<?xml version="1.0" standalone="no"?>
<!DOCTYPE svg PUBLIC "-//W3C//DTD SVG 20010904//EN"
 "http://www.w3.org/TR/2001/REC-SVG-20010904/DTD/svg10.dtd">
<svg version="1.0" xmlns="http://www.w3.org/2000/svg"
 width="1006.000000pt" height="1208.000000pt" viewBox="0 0 1006.000000 1208.000000"
 preserveAspectRatio="xMidYMid meet">

<g transform="translate(0.000000,1208.000000) scale(0.100000,-0.100000)"
fill="#000000" stroke="none">
<path d="M537 11989 c7 -7 15 -10 18 -7 3 3 -2 9 -12 12 -14 6 -15 5 -6 -5z"/>
<path d="M9430 11962 c-36 -16 -117 -54 -181 -86 -64 -31 -138 -63 -165 -70
-393 -108 -1011 -307 -1153 -372 -41 -19 -76 -34 -78 -34 -3 0 7 14 22 31 14
17 24 33 22 36 -7 6 -119 -39 -273 -109 -114 -53 -182 -94 -366 -222 -134 -94
-281 -207 -364 -280 -116 -103 -153 -142 -223 -242 -127 -180 -130 -180 -22 0
40 65 70 120 68 122 -23 24 -241 -173 -316 -286 -24 -36 -65 -105 -92 -155
l-48 -90 -143 -74 c-79 -41 -154 -83 -168 -93 -92 -71 -235 -218 -310 -319
-103 -137 -138 -197 -179 -304 -17 -44 -42 -98 -55 -120 l-25 -40 -10 28 c-6
16 -11 33 -11 39 0 14 -39 47 -78 64 -23 10 -60 14 -117 13 -88 -3 -111 5
-164 58 -22 21 -30 23 -83 17 -32 -4 -72 -9 -88 -13 -54 -11 -268 -195 -327
-280 -2 -3 -10 4 -18 15 -35 46 -235 333 -235 337 0 9 -132 230 -179 299 -54
80 -207 225 -342 325 -97 70 -133 88 -209 103 -51 10 -58 14 -85 58 -66 105
-245 266 -257 230 -2 -6 -43 36 -91 94 -48 58 -147 158 -221 223 -128 112
-142 121 -283 188 -130 61 -151 68 -176 59 -25 -10 -30 -7 -64 34 -21 24 -42
44 -47 44 -5 0 5 -15 22 -33 18 -18 29 -36 26 -40 -4 -3 7 -14 23 -23 25 -15
83 -82 83 -98 0 -6 -153 89 -284 177 -112 75 -488 258 -700 342 -147 58 -477
175 -492 175 -15 0 -228 123 -285 164 -48 35 -66 43 -76 35 -7 -6 -13 -18 -13
-27 0 -18 78 -117 102 -129 9 -4 56 -51 104 -103 47 -52 153 -163 235 -246 82
-83 149 -154 149 -157 0 -3 -21 -4 -47 -1 -135 13 -133 13 -133 -2 0 -8 11
-31 24 -52 37 -59 77 -142 69 -142 -5 0 -1 -6 8 -13 15 -12 184 -229 191 -246
2 -4 60 -35 129 -69 122 -59 256 -158 258 -189 1 -18 1 -18 -134 23 -66 19
-142 42 -170 49 -27 7 -58 17 -67 20 -26 10 -23 -15 7 -59 28 -42 32 -54 10
-36 -9 7 -15 8 -15 2 0 -10 29 -26 42 -24 8 2 150 -178 218 -275 40 -57 57
-70 222 -170 98 -59 174 -109 170 -111 -5 -1 -60 9 -122 22 -63 14 -116 24
-117 22 -1 -1 17 -31 41 -67 24 -35 90 -107 147 -159 57 -52 124 -114 149
-137 25 -23 57 -51 72 -62 15 -12 30 -31 34 -43 8 -28 148 -195 223 -268 31
-30 80 -68 110 -85 30 -16 53 -34 52 -39 -4 -12 26 -29 38 -22 5 3 12 -1 15
-10 3 -8 11 -14 18 -12 7 1 38 -11 68 -27 30 -16 99 -47 154 -70 95 -41 106
-55 40 -55 -22 0 -23 -2 -12 -25 6 -14 9 -27 6 -30 -3 -3 -65 29 -139 71 -126
72 -346 180 -574 281 -115 51 -222 68 -321 52 -144 -24 -136 -20 -102 -56 33
-36 12 -43 -124 -43 -85 0 -193 -11 -390 -41 -150 -22 -293 -42 -318 -44 -77
-6 -333 -142 -467 -248 -62 -49 -113 -90 -113 -91 0 -6 104 4 132 13 137 43
350 102 359 99 7 -2 -41 -28 -107 -57 -148 -66 -539 -299 -611 -365 -30 -27
-52 -50 -51 -52 4 -3 15 0 153 35 77 20 152 46 223 78 19 8 36 13 38 10 9 -9
-189 -295 -211 -305 -14 -6 -26 -23 -30 -41 -3 -16 -44 -85 -89 -153 -94 -139
-111 -168 -98 -168 5 0 20 10 34 23 94 85 167 140 376 285 238 165 320 218
326 211 2 -2 -60 -51 -138 -109 l-143 -105 -61 -110 c-269 -488 -381 -699
-399 -752 l-21 -62 36 19 c20 11 69 48 107 83 168 152 411 345 421 335 2 -3
-61 -101 -141 -218 -90 -132 -145 -221 -145 -237 0 -22 9 -16 90 56 91 82 124
101 94 56 -9 -14 -14 -25 -12 -25 10 0 510 170 586 200 151 58 79 41 -114 -26
-104 -37 -201 -68 -216 -68 -16 -1 -28 -3 -28 -6 0 -10 -151 -61 -159 -54 -4
4 31 50 79 107 8 9 20 17 27 17 7 0 13 5 13 10 0 6 4 10 10 10 9 0 28 13 64
45 32 28 86 65 95 65 6 0 11 4 11 9 0 10 31 30 82 53 16 7 28 18 28 24 0 6 20
24 44 40 25 16 86 59 138 95 88 63 375 232 504 297 52 26 232 77 241 68 2 -2
-33 -25 -79 -51 -46 -26 -106 -61 -135 -78 -53 -31 -207 -177 -187 -177 6 0
63 14 125 30 98 26 475 90 526 90 30 0 -383 -198 -689 -330 -158 -69 -285
-126 -283 -128 1 -2 20 4 40 13 59 24 53 10 -7 -18 -29 -14 -62 -31 -72 -39
-17 -14 -12 -15 60 -21 99 -8 251 -15 372 -16 87 -1 117 -12 72 -26 -11 -3
-20 -12 -20 -20 0 -7 -15 -25 -32 -40 -71 -58 -129 -118 -121 -125 12 -12 179
-18 232 -9 25 4 131 24 235 43 104 20 198 36 209 36 14 0 -2 -17 -53 -55 -40
-30 -78 -52 -84 -48 -6 3 -8 3 -4 -2 4 -4 3 -13 -2 -20 -7 -9 19 -20 103 -43
134 -37 337 -105 337 -112 0 -3 -42 -32 -93 -65 -113 -74 -413 -354 -465 -434
-19 -31 -70 -128 -112 -216 -82 -170 -105 -257 -73 -269 9 -4 17 -5 18 -4 27
41 53 77 69 93 18 19 18 19 12 1 -3 -10 -2 -24 4 -31 7 -9 4 -26 -10 -60 -11
-26 -38 -120 -60 -209 -22 -88 -51 -199 -65 -246 -76 -267 -163 -622 -180
-734 -9 -60 -40 -265 -70 -455 -30 -190 -57 -389 -60 -441 l-6 -95 20 40 c11
22 46 111 78 197 32 87 59 153 61 148 2 -5 -15 -106 -38 -222 -39 -201 -53
-249 -260 -873 -121 -363 -220 -665 -220 -670 0 -6 7 -1 15 9 8 11 51 57 95
102 44 45 80 86 80 92 0 6 7 28 16 49 9 21 20 47 25 58 7 19 110 261 239 563
32 73 60 135 63 138 3 4 4 -33 1 -82 -5 -82 -13 -106 -89 -299 -46 -115 -94
-235 -108 -265 -13 -30 -28 -66 -32 -80 -6 -21 -109 -234 -142 -295 -6 -11
-25 -49 -41 -85 -41 -88 -213 -453 -219 -463 -2 -4 -2 -7 0 -7 3 0 18 20 34
45 15 25 31 45 36 45 4 0 7 7 7 15 0 7 6 18 13 22 6 4 23 28 36 53 14 25 57
95 97 155 116 177 254 395 297 468 22 37 44 67 49 67 5 0 7 3 5 8 -2 4 6 25
19 47 13 22 28 52 35 68 11 28 29 37 29 14 0 -7 -15 -114 -34 -238 -30 -199
-54 -449 -42 -449 2 0 30 46 61 103 32 56 66 111 76 122 9 11 34 52 55 90 20
39 47 83 58 100 12 16 29 46 40 65 10 19 34 64 54 100 19 36 45 83 56 105 12
22 34 60 48 85 14 25 38 97 54 160 l29 115 5 -100 5 -100 43 90 c24 50 93 193
155 318 109 225 111 228 122 197 l11 -32 34 63 c18 35 49 88 67 117 24 36 50
109 89 245 31 105 58 194 60 196 2 2 4 -14 4 -37 0 -47 9 -51 55 -23 26 15 44
50 113 212 45 107 87 215 93 241 6 26 15 45 20 42 11 -6 11 -3 14 56 6 103 63
164 238 254 70 36 127 62 128 58 0 -4 4 2 9 13 4 11 68 57 141 102 192 115
176 110 176 59 1 -23 15 -87 31 -142 42 -136 72 -283 72 -349 0 -89 -39 -240
-92 -360 -78 -173 -80 -179 -54 -191 19 -9 28 -6 57 18 l34 29 2 -33 c6 -72
26 -184 37 -207 12 -22 14 -21 34 35 11 33 33 96 47 141 45 142 51 115 29
-152 -5 -69 -6 -69 71 39 28 40 41 51 43 38 2 -9 17 -58 33 -109 30 -90 30
-94 18 -174 -9 -60 -22 -102 -49 -153 -21 -39 -56 -134 -78 -211 -36 -129 -39
-145 -31 -210 4 -38 8 -101 9 -140 0 -91 43 -216 94 -278 20 -25 47 -74 59
-110 21 -62 26 -69 94 -116 47 -33 110 -64 185 -92 62 -22 136 -55 165 -72 50
-30 53 -34 136 -206 97 -201 120 -279 167 -573 l30 -187 -15 -133 c-8 -73 -15
-191 -15 -263 0 -71 -7 -190 -17 -262 l-17 -133 25 -52 c13 -29 42 -73 64 -99
22 -25 48 -60 57 -77 10 -20 27 -34 45 -37 15 -4 33 -8 38 -10 6 -1 19 -38 29
-81 22 -96 39 -151 72 -230 22 -52 32 -64 69 -82 l43 -21 17 62 c25 92 52 148
89 187 23 24 42 62 61 120 33 99 33 93 -35 455 -40 211 -41 225 -35 355 9 199
47 392 120 615 69 210 122 338 139 332 6 -2 46 -55 89 -118 l79 -114 -5 -67
c-4 -42 -15 -84 -31 -116 -14 -28 -44 -97 -67 -154 -22 -56 -43 -107 -47 -112
-3 -6 -7 -55 -10 -110 -3 -93 -2 -104 24 -158 24 -51 36 -63 88 -92 34 -18 84
-41 111 -51 28 -10 51 -19 52 -19 1 -1 9 -54 18 -119 l17 -118 -27 -108 -28
-108 30 -44 c32 -45 133 -143 140 -135 3 2 0 29 -7 60 -10 50 -8 73 23 233 27
137 34 199 32 268 -1 50 -3 113 -4 140 -1 46 -7 59 -79 155 -74 99 -81 112
-115 227 l-36 122 29 93 c51 168 63 247 62 408 -1 113 -2 115 -47 220 -45 103
-47 106 -135 179 l-90 75 0 170 c0 179 15 333 69 706 16 113 34 259 40 325 6
66 13 136 15 155 3 19 8 94 12 165 5 91 14 154 31 210 13 44 41 177 63 296 32
180 37 223 28 257 -10 39 -8 42 52 132 94 139 194 266 198 250 1 -9 -25 -179
-58 -380 -61 -373 -66 -410 -52 -410 4 0 45 31 90 69 45 38 86 72 92 76 20 12
118 -51 209 -134 51 -47 120 -108 152 -134 54 -44 62 -47 96 -41 21 4 46 13
55 22 17 14 14 19 -40 68 -47 44 -54 55 -42 64 8 5 22 7 30 4 31 -13 100 -17
100 -6 0 15 -17 24 -24 13 -7 -11 -64 3 -80 20 -8 8 -2 9 24 4 35 -8 100 -9
106 -2 7 7 -71 82 -120 115 -55 38 -56 49 -3 27 67 -28 73 -19 26 34 -24 27
-48 49 -52 50 -4 1 -27 16 -51 34 -34 25 -55 54 -95 132 -64 128 -71 182 -42
349 12 65 21 131 21 146 0 14 2 29 5 31 2 3 39 2 81 -2 92 -9 111 -21 250
-152 55 -52 116 -102 136 -110 23 -10 62 -46 105 -96 37 -45 71 -81 75 -81 3
0 10 14 13 32 7 31 8 31 22 12 8 -10 21 -32 28 -49 8 -16 30 -52 49 -80 20
-27 36 -60 36 -72 0 -12 5 -25 10 -28 6 -3 10 -1 10 4 0 20 18 11 67 -30 33
-29 53 -56 64 -88 8 -25 18 -53 22 -61 31 -71 67 -196 67 -232 0 -30 3 -39 10
-28 7 12 11 10 18 -10 5 -14 33 -74 62 -135 49 -103 53 -118 71 -255 17 -132
40 -244 53 -257 2 -3 18 5 34 17 22 16 32 34 36 64 16 98 39 216 42 213 4 -3
11 -58 34 -247 6 -52 18 -131 26 -175 8 -44 17 -102 20 -130 16 -154 90 -525
105 -525 23 0 51 65 80 185 35 142 41 146 53 40 25 -211 126 -695 145 -695 3
0 22 26 43 58 24 37 42 83 53 135 9 42 20 77 24 77 8 -1 239 -335 287 -415 19
-33 51 -91 70 -130 32 -66 34 -68 33 -35 0 82 -48 249 -122 426 -212 508 -228
559 -209 668 l7 39 234 -391 c129 -216 236 -390 239 -388 2 3 -8 51 -21 108
-14 57 -49 200 -77 318 -28 118 -109 420 -179 670 -71 250 -141 507 -156 570
-14 63 -30 131 -35 149 -5 19 -8 36 -6 38 1 2 40 -73 86 -167 46 -93 85 -168
87 -166 2 2 -6 104 -17 227 -22 237 -56 459 -120 779 -22 113 -41 242 -45 305
-4 75 -16 147 -36 225 -17 63 -41 156 -54 206 -13 50 -62 200 -109 335 -216
610 -272 713 -463 853 -35 25 -63 51 -63 56 0 6 16 18 36 26 19 8 57 30 83 48
46 33 50 34 186 41 l139 7 -39 32 c-22 17 -62 52 -90 78 -54 51 -48 59 25 38
19 -6 49 -13 65 -16 26 -4 155 -34 280 -64 133 -32 216 -50 230 -50 13 0 11
10 -14 54 -17 29 -31 55 -31 58 0 2 89 -10 198 -27 174 -28 210 -37 311 -79
62 -26 115 -45 117 -43 2 2 -10 34 -27 72 -16 37 -28 70 -25 73 9 8 86 -30 80
-39 -3 -5 1 -6 9 -3 21 8 71 -16 172 -82 135 -88 134 -88 71 30 -31 57 -56
108 -56 112 0 5 62 -55 138 -132 75 -77 156 -155 180 -173 l43 -33 -24 63
c-14 35 -53 138 -87 229 -75 199 -67 181 -152 308 -39 57 -68 105 -66 107 2 2
271 -194 461 -336 l28 -21 -14 33 c-38 89 -141 318 -158 351 -17 32 -162 219
-266 342 -18 22 -33 46 -33 53 0 7 -6 13 -13 13 -7 0 -33 21 -57 46 -33 34
-38 43 -20 34 43 -21 111 -81 104 -91 -3 -6 0 -9 7 -7 20 4 13 10 403 -307 88
-71 157 -122 154 -114 -17 42 -306 455 -362 517 -102 112 -100 112 109 -43 83
-61 157 -115 165 -119 18 -10 -67 80 -285 303 -88 90 -155 162 -149 160 36
-13 241 -138 299 -183 38 -30 71 -53 72 -52 2 2 -5 28 -14 59 -26 83 -195 265
-424 457 -200 167 -295 222 -480 281 -96 31 -102 34 -76 43 15 5 27 13 27 16
0 3 -24 14 -52 25 -111 38 -103 33 -84 54 16 18 13 19 -91 35 -252 37 -484 57
-658 56 -145 0 -369 -17 -409 -30 -16 -6 -30 -9 -32 -8 -1 2 29 37 67 78 l69
75 -51 10 -50 10 28 26 c15 14 69 49 118 77 78 44 100 62 160 137 70 87 134
175 134 186 1 4 -14 9 -31 13 -33 7 -32 7 77 78 102 66 118 82 213 199 87 109
102 133 102 164 0 30 -3 35 -17 31 -55 -17 -196 -47 -206 -43 -7 2 13 12 43
21 111 36 238 99 347 173 58 40 105 93 330 373 57 70 87 123 74 128 -5 2 -52
-8 -105 -21 -53 -14 -96 -21 -96 -17 0 4 41 45 92 91 50 46 98 90 105 98 8 7
56 52 106 98 98 90 280 284 273 290 -2 3 -37 -10 -78 -27 -69 -30 -395 -150
-407 -150 -3 0 22 24 55 53 32 28 88 79 124 112 36 33 106 96 155 140 48 44
116 105 149 136 34 31 95 85 135 120 l75 64 -43 3 c-31 2 -54 -4 -89 -23 l-47
-27 35 34 c19 18 55 50 79 71 53 44 47 45 -39 9z m-8712 -176 c97 -62 114 -70
259 -121 162 -58 173 -63 173 -73 0 -5 19 -15 43 -22 33 -11 37 -15 20 -18
-39 -6 -25 -22 20 -22 72 0 175 -35 443 -151 276 -119 327 -146 319 -167 -3
-8 4 -16 17 -20 59 -15 344 -182 476 -278 80 -58 132 -108 132 -128 0 -6 18
-19 39 -29 47 -21 269 -233 251 -239 -7 -2 4 -16 26 -33 22 -16 41 -34 43 -39
2 -5 19 -25 38 -44 19 -19 32 -40 29 -47 -2 -7 2 -16 11 -19 11 -5 14 -2 9 10
-5 14 -4 15 9 4 11 -9 12 -15 5 -20 -6 -4 14 -27 48 -56 62 -52 168 -188 262
-339 75 -118 259 -494 301 -614 26 -75 25 -80 -23 -88 -58 -9 -136 -83 -176
-166 -43 -92 -52 -137 -52 -276 0 -150 74 -405 169 -587 28 -53 51 -102 51
-107 0 -8 -35 -4 -82 9 -15 4 -35 56 -30 77 3 11 -39 99 -58 122 -9 11 -31 43
-48 71 -22 38 -27 55 -19 63 8 8 7 11 -6 11 -9 0 -21 10 -28 21 -8 15 -8 19 0
15 6 -4 11 -1 11 7 0 8 -10 18 -22 21 -28 7 -111 83 -104 95 3 5 23 11 44 15
21 3 47 15 57 26 22 24 20 24 -35 5 -87 -31 -126 -16 -213 82 -34 39 -90 75
-108 70 -8 -2 -11 -2 -6 0 13 8 -3 23 -25 23 -19 0 -83 38 -76 46 2 1 67 -10
144 -25 l141 -28 67 -57 c37 -32 71 -55 74 -51 4 3 -27 38 -68 76 -41 38 -69
70 -62 70 6 1 15 2 20 3 4 1 43 6 88 10 44 4 87 11 94 16 9 6 -8 34 -62 106
-96 128 -92 120 -53 121 26 1 41 -7 71 -38 21 -21 42 -39 46 -39 4 0 8 18 8
41 0 32 -3 40 -15 35 -9 -3 -15 0 -15 8 0 7 17 18 38 25 34 11 37 16 37 49 l0
37 70 5 c92 7 62 22 -36 18 -43 -2 -73 -7 -72 -13 1 -6 5 -23 9 -39 l7 -29
-52 7 c-28 4 -57 9 -64 12 -6 2 -48 54 -91 114 -92 127 -120 157 -131 139 -5
-7 1 -18 13 -28 11 -9 35 -43 53 -76 18 -33 52 -90 76 -127 24 -36 43 -69 43
-71 0 -13 -51 12 -96 46 -95 73 -200 144 -261 177 l-62 34 -73 -23 -73 -23
-100 50 c-161 80 -188 90 -327 127 -72 20 -139 41 -147 48 -94 73 -244 204
-263 230 -13 17 -36 48 -52 69 l-27 36 43 -9 c24 -5 54 -13 68 -18 14 -5 34
-12 45 -16 11 -4 34 -8 50 -9 17 -2 55 -6 85 -10 37 -6 52 -5 45 1 -41 41
-209 153 -346 232 -147 84 -169 99 -204 149 -22 30 -84 114 -138 186 -53 72
-93 132 -87 134 5 2 38 -6 72 -17 35 -11 142 -45 238 -75 219 -69 349 -127
582 -257 173 -97 227 -131 272 -172 11 -9 38 -26 60 -38 23 -11 50 -26 61 -33
43 -25 233 -157 283 -197 29 -23 55 -40 58 -37 8 9 -153 151 -246 216 -47 34
-90 65 -97 71 -7 6 -15 11 -18 11 -3 0 -42 24 -88 54 -45 29 -94 61 -109 70
-16 9 -28 21 -28 27 0 6 7 3 16 -5 8 -9 20 -14 25 -11 11 7 12 32 1 37 -9 4
-179 208 -196 236 -27 44 306 -143 472 -265 78 -57 202 -136 207 -131 2 2 -6
23 -18 47 -21 41 -39 54 -262 187 -246 148 -352 200 -428 210 -81 11 -75 -8
41 -143 63 -73 91 -118 80 -128 -2 -2 -96 42 -208 99 -113 56 -230 111 -260
121 -56 18 -79 34 -160 109 -98 90 -149 125 -251 170 -59 26 -118 60 -132 74
-58 63 -277 385 -277 409 0 3 26 3 59 1 55 -4 64 -8 160 -82 56 -43 128 -88
159 -100 133 -53 193 -82 390 -188 114 -61 302 -173 417 -248 198 -129 282
-180 245 -148 -130 110 -348 263 -489 343 -94 53 -316 165 -432 218 -178 81
-368 244 -658 565 -46 51 -82 94 -80 96 7 6 404 -224 399 -232 -3 -4 -9 -5
-15 -4 -5 2 -6 0 -2 -5 5 -4 12 -8 15 -8 22 -2 422 -201 577 -288 55 -31 79
-50 77 -61 -2 -9 2 -16 8 -16 6 0 8 5 5 10 -18 29 55 -14 208 -124 l128 -91
-28 -12 c-37 -16 -80 -16 -87 0 -3 6 -3 1 1 -13 13 -53 225 -232 559 -471 62
-44 123 -97 138 -117 14 -20 26 -31 26 -24 0 7 5 10 10 7 6 -4 8 -11 4 -16 -3
-6 3 -13 15 -16 12 -3 21 -9 21 -13 0 -4 16 -15 35 -26 19 -10 35 -23 35 -29
0 -5 4 -4 9 4 7 12 46 -14 178 -121 181 -145 201 -160 188 -137 -40 69 -111
129 -535 450 -342 258 -433 330 -493 385 -37 34 -67 64 -67 68 0 3 33 6 73 5
69 -1 109 -14 150 -49 6 -6 62 -42 122 -79 61 -38 181 -127 269 -198 179 -144
258 -204 264 -199 10 11 -38 61 -178 184 -111 97 -213 174 -360 271 -113 74
-212 140 -220 146 -9 5 -31 19 -49 30 -18 11 -94 58 -169 104 -75 47 -267 156
-425 243 -159 87 -326 180 -370 207 -45 27 -156 86 -245 130 -144 72 -348 182
-407 220 -21 13 -60 61 -51 61 3 0 37 -20 74 -44z m8502 21 c-151 -120 -161
-126 -472 -247 -594 -231 -1050 -442 -1361 -627 -32 -20 -61 -33 -63 -30 -7 7
-142 -86 -273 -188 -151 -118 -261 -225 -332 -326 l-64 -89 -65 2 c-54 1 -82
-5 -164 -36 -54 -20 -100 -35 -103 -33 -10 10 110 190 170 257 18 19 32 41 32
48 0 13 96 115 102 108 3 -2 -33 -69 -80 -147 -107 -184 -109 -188 -102 -199
3 -5 36 21 73 59 84 85 208 184 261 207 28 12 37 20 28 26 -26 17 -67 7 -104
-24 -47 -42 -37 -25 53 87 102 127 338 335 494 433 69 43 176 111 239 151 62
39 150 90 195 112 l81 40 -80 -76 c-44 -41 -137 -123 -207 -182 -69 -60 -125
-114 -123 -120 3 -7 -1 -13 -7 -13 -6 0 -8 -3 -4 -7 4 -5 14 1 22 12 13 17 16
18 25 5 9 -13 10 -12 5 3 -3 11 0 17 10 17 8 0 12 5 9 10 -3 6 1 10 10 10 10
0 13 5 9 12 -5 8 -2 9 9 5 11 -4 17 -1 17 7 0 16 130 112 240 178 117 70 405
218 425 218 18 0 80 19 436 134 114 37 217 68 230 70 13 1 35 8 48 15 12 7 31
11 41 8 10 -3 29 2 41 11 18 12 21 12 14 1 -5 -9 -1 -7 12 4 11 9 27 17 35 17
9 0 29 7 45 15 35 18 184 74 198 74 6 0 3 -5 -5 -12z m49 -100 c-36 -34 -84
-78 -105 -97 -22 -19 -58 -51 -79 -71 -343 -307 -331 -298 -474 -366 -146 -70
-198 -92 -208 -92 -3 1 -9 -3 -12 -8 -3 -5 -90 -51 -193 -103 -103 -51 -252
-135 -330 -186 -79 -51 -249 -159 -378 -240 -129 -81 -287 -182 -350 -224
-146 -97 -145 -96 -136 -82 4 6 57 49 119 95 152 114 445 373 652 576 94 91
190 183 215 204 l45 38 -35 -7 c-62 -11 -173 -46 -273 -87 -54 -21 -100 -37
-102 -35 -9 9 257 140 455 224 249 105 276 116 516 209 234 91 282 107 293
101 5 -3 14 1 21 9 6 7 17 12 24 9 8 -3 30 6 51 20 21 14 43 26 49 26 13 0 57
22 126 62 92 54 155 87 165 88 6 0 -20 -28 -56 -63z m-7979 -313 c0 -2 -9 0
-20 6 -11 6 -20 13 -20 16 0 2 9 0 20 -6 11 -6 20 -13 20 -16z m7915 -43 c-22
-21 -109 -96 -180 -156 -26 -22 -53 -46 -60 -52 -8 -7 -17 -13 -22 -13 -10 0
-43 -37 -43 -48 0 -5 -37 -42 -83 -83 -113 -101 -132 -117 -122 -99 4 8 -3 5
-16 -7 -13 -12 -107 -63 -209 -112 -118 -57 -241 -127 -340 -193 -160 -106
-310 -217 -310 -229 0 -4 -44 -26 -97 -49 -54 -24 -136 -63 -183 -89 l-84 -45
28 37 c16 20 36 37 45 37 9 0 39 28 66 62 28 34 97 116 155 182 116 133 167
197 195 239 l18 28 -26 -10 c-14 -5 -58 -26 -99 -46 -64 -31 -69 -33 -43 -10
56 47 887 471 993 506 69 23 291 111 372 147 57 26 70 27 45 3z m-6537 -380
c23 -18 41 -35 39 -39 -9 -14 12 -52 28 -52 9 0 25 -9 37 -20 12 -10 25 -17
31 -13 5 3 3 9 -4 14 -7 4 -11 10 -8 13 7 7 139 -92 139 -105 0 -7 -8 -5 -19
5 -10 10 -21 14 -24 9 -3 -5 24 -33 60 -63 123 -104 229 -222 217 -241 -4 -7
-3 -9 3 -6 9 6 173 -162 173 -176 0 -2 -20 -10 -44 -16 -43 -10 -44 -12 -33
-36 13 -27 35 -39 150 -80 42 -15 77 -32 77 -37 0 -5 -4 -7 -9 -3 -24 14 -18
-18 11 -65 33 -53 55 -155 38 -175 -8 -9 6 -36 65 -133 36 -58 86 -132 90
-132 8 0 -14 52 -56 133 -57 110 -47 127 23 35 59 -77 98 -118 98 -102 0 5 -7
31 -15 58 -8 27 -15 61 -14 75 0 39 154 -271 168 -339 16 -81 41 -322 41 -398
0 -57 -6 -80 -39 -150 -21 -46 -41 -80 -44 -75 -6 11 -21 125 -18 141 1 8 -12
47 -29 89 -17 41 -32 85 -32 96 -1 12 -7 29 -13 37 -7 8 -20 40 -30 70 -20 62
-61 166 -75 193 -7 12 -7 17 2 17 8 1 6 6 -4 14 -10 7 -18 17 -18 21 0 13
-104 220 -183 365 -82 150 -120 199 -396 520 -110 129 -326 349 -342 350 -15
0 -189 202 -183 212 4 7 3 8 -5 4 -6 -4 -14 0 -18 11 -3 10 -17 31 -30 46 -13
16 -23 33 -23 38 0 12 163 -70 218 -110z m5121 -8 c-74 -70 -163 -155 -199
-189 -189 -178 -1160 -942 -1160 -913 0 14 49 99 104 178 28 41 63 97 78 125
35 63 47 75 81 78 31 3 34 14 11 39 -15 16 -12 23 42 96 64 88 65 89 155 163
87 72 111 90 121 90 4 0 8 6 8 13 0 32 156 143 320 228 39 20 365 143 436 164
27 8 67 24 89 35 21 11 41 20 44 20 3 0 -56 -57 -130 -127z m-5011 -83 c3 -8
-5 -6 -21 6 -15 10 -27 23 -27 28 0 12 43 -18 48 -34z m6071 -57 c-14 -16
-103 -117 -198 -225 -94 -108 -182 -200 -194 -204 -12 -4 -53 -21 -92 -39
-233 -109 -513 -229 -585 -250 -25 -7 -25 -7 6 26 17 19 39 48 49 64 10 17 39
55 65 85 26 30 53 66 59 79 13 23 12 23 -33 20 -34 -3 -42 -1 -33 7 29 27 321
206 407 249 80 40 535 213 564 215 6 0 -2 -12 -15 -27z m-1035 -195 c-10 -13
-38 -43 -60 -68 -23 -25 -66 -72 -95 -105 -127 -144 -277 -300 -314 -325 -22
-15 -123 -71 -225 -125 -170 -90 -379 -223 -523 -333 -32 -24 -60 -42 -62 -40
-7 6 37 122 46 126 5 2 9 10 9 18 0 31 61 141 97 176 21 20 223 156 448 303
316 206 441 282 545 330 74 35 139 63 144 64 5 1 1 -9 -10 -21z m-4544 -165
c42 -28 150 -157 150 -178 0 -12 -24 11 -111 106 -79 86 -90 107 -39 72z
m4565 -185 c-15 -18 -95 -102 -178 -186 -168 -170 -150 -158 -444 -291 -165
-75 -237 -120 -220 -137 4 -4 34 5 67 19 59 26 77 26 43 1 -10 -7 -14 -16 -10
-20 4 -5 14 -4 21 1 58 43 146 96 226 138 84 44 109 52 215 68 66 10 127 18
135 19 41 1 -304 -292 -420 -357 -30 -17 -108 -48 -172 -69 -65 -21 -114 -42
-110 -46 12 -12 208 28 345 72 71 22 134 40 139 40 25 0 -29 -49 -197 -180
-128 -100 -210 -156 -285 -194 -58 -29 -112 -55 -120 -58 -26 -9 -6 -18 56
-24 47 -5 83 0 179 24 66 17 129 34 140 38 32 11 -40 -60 -115 -114 -35 -26
-97 -79 -138 -118 -64 -63 -80 -73 -120 -78 -26 -4 -60 -9 -77 -13 -27 -5 -28
-7 -10 -14 11 -4 36 -8 55 -8 l34 -1 -62 -62 c-44 -45 -87 -76 -151 -108 -121
-61 -121 -76 1 -44 33 8 62 14 63 12 2 -2 -17 -40 -42 -86 -49 -91 -38 -84
-162 -86 -26 -1 -46 -6 -48 -13 -3 -9 7 -13 31 -13 20 0 36 -4 36 -8 0 -5 -26
-35 -57 -67 l-57 -58 -23 29 c-12 16 -23 32 -23 37 0 4 -9 7 -19 7 -14 0 -32
-22 -61 -75 -27 -49 -61 -92 -96 -123 -53 -46 -114 -80 -114 -64 0 16 47 71
55 64 5 -4 5 -2 1 5 -4 7 5 30 19 52 14 23 25 43 25 45 0 3 11 21 24 41 13 19
41 79 62 133 21 53 43 100 49 104 5 4 7 8 3 8 -4 0 -2 14 4 31 8 23 13 28 20
17 7 -9 8 -5 5 15 -2 16 10 74 30 135 19 59 40 143 48 187 18 105 13 263 -10
343 -17 57 -23 66 -58 84 -27 13 -54 19 -83 16 -24 -2 -44 -1 -44 2 1 35 70
251 110 341 l51 115 72 42 c40 24 83 50 97 60 23 16 24 16 17 -1 -4 -10 -27
-84 -52 -165 -25 -81 -52 -159 -60 -174 -17 -33 -2 -38 29 -9 12 10 39 29 61
41 42 24 194 90 206 90 4 0 -19 -39 -51 -87 -80 -123 -103 -163 -93 -163 5 0
53 11 107 25 55 14 101 23 103 21 8 -8 -80 -107 -166 -186 -64 -59 -88 -87
-81 -94 7 -7 61 -11 135 -11 l125 0 -120 -116 c-66 -64 -120 -123 -120 -131 0
-11 12 -13 59 -10 33 2 65 2 71 0 7 -2 -33 -53 -88 -113 l-101 -110 45 -9 c24
-5 44 -12 44 -15 0 -3 -43 -31 -95 -61 -52 -30 -95 -60 -95 -66 0 -28 43 -134
56 -134 19 0 18 10 -6 70 l-20 50 31 19 c18 11 76 43 131 73 110 58 110 54 1
75 l-43 8 110 120 c60 66 110 124 110 129 0 4 -10 6 -22 3 -13 -3 -50 -8 -83
-12 l-60 -6 133 130 c74 72 131 135 127 141 -3 6 -11 7 -17 4 -6 -4 -65 -9
-132 -11 l-121 -5 90 94 c50 52 108 120 129 151 22 31 43 57 48 57 4 0 8 5 8
10 0 17 -30 12 -128 -21 -51 -17 -96 -28 -99 -25 -4 3 14 36 40 74 57 83 107
188 107 224 0 23 15 37 106 97 59 39 112 71 118 71 9 0 -56 -46 -114 -80 -11
-6 -12 -12 -4 -19 12 -13 93 27 384 191 328 184 360 201 445 235 44 17 82 32
83 32 2 1 -8 -14 -23 -31z m-4455 -43 c0 -29 -10 -31 -53 -8 -29 15 -30 17
-12 24 11 4 30 8 43 8 17 1 22 -5 22 -24z m3178 13 c-7 -19 -35 -21 -41 -3 -5
11 0 15 19 15 16 0 24 -5 22 -12z m-3105 -10 c9 -7 19 -26 23 -42 6 -26 5 -28
-17 -21 -29 9 -39 22 -39 53 0 25 9 28 33 10z m3041 -7 c16 -17 16 -19 -6 -24
-30 -8 -61 19 -38 33 21 13 25 13 44 -9z m69 -78 c-166 -217 -418 -797 -438
-1008 -6 -67 -40 -175 -54 -175 -20 0 -50 54 -76 135 -27 82 -30 102 -29 220
0 118 3 140 33 235 18 58 60 169 94 248 58 138 63 145 116 186 66 49 165 106
185 106 8 0 19 7 24 17 10 16 193 124 201 117 2 -2 -23 -39 -56 -81z m-3020
30 c4 -20 4 -39 1 -42 -9 -10 -34 31 -34 56 0 38 27 27 33 -14z m2868 27 c26
-15 25 -40 -2 -35 -27 5 -50 25 -43 36 7 12 21 11 45 -1z m1912 -14 c-10 -13
-56 -71 -103 -129 -77 -94 -96 -112 -215 -189 -71 -47 -150 -93 -175 -103 -42
-16 -186 -122 -177 -131 2 -2 62 20 133 49 130 54 184 72 184 62 0 -3 -45 -59
-101 -123 -78 -91 -118 -128 -179 -167 -67 -43 -150 -119 -150 -139 0 -3 17
-6 38 -6 27 0 33 -3 22 -10 -13 -8 -158 -65 -214 -84 -10 -4 -17 -9 -14 -11 2
-3 51 8 109 24 57 16 106 27 108 25 9 -8 -102 -98 -143 -118 -23 -10 -71 -29
-108 -41 l-68 -24 26 51 26 51 -38 -8 c-21 -3 -94 -22 -163 -41 -68 -19 -129
-34 -135 -34 -5 0 26 24 70 54 43 30 103 71 132 92 30 22 59 39 66 39 7 0 33
18 58 40 56 49 87 75 91 75 7 0 171 159 167 163 -3 2 -36 8 -74 13 l-70 9 83
70 c119 101 271 259 259 270 -2 2 -27 5 -56 6 -28 2 -52 7 -52 12 0 5 -11 7
-25 5 -33 -7 -32 2 8 40 54 52 253 129 477 183 107 26 201 48 208 48 10 1 9
-6 -5 -23z m-4679 -41 c5 -21 -4 -55 -20 -73 -1 -2 -12 6 -23 17 -15 15 -21
34 -21 66 l0 46 29 -15 c16 -9 32 -27 35 -41z m2718 2 c6 -12 6 -17 0 -13 -5
3 -13 -2 -16 -11 -6 -14 -10 -13 -31 7 -29 28 -32 47 -7 52 20 5 39 -7 54 -35z
m-91 -9 c43 -52 8 -83 -47 -42 -40 31 -42 37 -11 52 32 15 37 15 58 -10z
m-2579 -49 c-3 -47 -16 -69 -31 -53 -13 12 9 106 23 101 6 -2 10 -23 8 -48z
m2478 21 c0 -5 12 -21 27 -35 l28 -25 -23 -22 c-24 -25 -23 -25 -69 41 -16 22
-16 24 2 37 22 16 35 18 35 4z m-2528 -107 c87 -76 150 -146 259 -284 144
-184 144 -184 292 -478 81 -161 160 -310 176 -330 l29 -37 -43 -72 c-55 -91
-82 -130 -113 -164 -34 -37 -20 -55 22 -28 49 29 58 25 33 -17 -12 -21 -38
-69 -57 -108 -32 -64 -40 -73 -93 -100 -45 -22 -55 -31 -41 -35 12 -5 14 -9 6
-14 -22 -13 -12 -26 21 -26 l32 -1 -35 -29 c-29 -25 -43 -30 -87 -30 -49 0
-54 -2 -64 -27 -23 -60 -35 -78 -65 -95 l-31 -18 -30 43 c-58 80 -161 277
-197 373 -32 85 -36 108 -36 188 0 100 15 243 31 292 14 44 52 78 78 69 34
-10 47 -41 76 -170 15 -66 28 -121 30 -123 8 -9 57 72 89 145 32 77 35 91 37
195 1 87 -3 134 -20 203 -12 49 -26 117 -30 150 -12 85 -119 320 -190 417 -31
43 -59 77 -63 78 -13 0 -9 -39 6 -68 15 -30 39 -122 33 -128 -8 -8 -132 172
-163 237 -30 62 -36 105 -14 97 5 -2 60 -49 122 -105z m131 83 c26 -20 21 -51
-14 -80 -17 -14 -34 -26 -39 -26 -20 0 -22 24 -4 39 20 18 27 35 26 64 -1 20
7 21 31 3z m2360 -118 l-22 -21 -48 29 c-26 17 -48 35 -48 42 0 7 14 21 30 31
l30 19 40 -39 40 -39 -22 -22z m-2294 58 c17 -20 -3 -57 -41 -79 -41 -24 -55
-8 -24 26 13 14 27 36 31 47 7 23 18 25 34 6z m66 -80 c-5 -16 -4 -18 4 -6 5
8 13 12 16 9 5 -6 -57 -59 -69 -59 -6 0 2 42 14 76 9 22 13 24 25 14 9 -8 13
-21 10 -34z m2116 -2 c27 -20 49 -37 49 -39 0 -3 -8 -9 -18 -14 -27 -15 -129
54 -111 75 17 20 26 18 80 -22z m-2181 -39 c0 -15 -6 -25 -14 -25 -22 0 -30
19 -16 35 18 22 30 18 30 -10z m2104 -20 c44 -35 58 -55 35 -55 -8 0 -77 42
-108 66 -5 4 9 24 18 24 5 0 29 -16 55 -35z m-1967 -6 c-4 -17 -3 -18 9 -8 12
10 13 9 8 -5 -4 -11 -14 -16 -25 -13 -13 4 -19 -2 -24 -23 -7 -30 -26 -43 -50
-34 -22 9 -19 21 12 47 14 12 34 30 42 39 22 23 34 22 28 -3z m1931 -49 c54
-43 41 -66 -15 -26 -78 55 -79 56 -63 66 8 5 19 5 25 1 5 -4 29 -23 53 -41z
m133 -19 c-30 -58 -91 -299 -105 -411 -12 -100 -8 -161 20 -317 16 -86 20 -94
60 -134 l44 -43 29 34 c30 36 55 85 65 130 10 43 22 53 67 54 l44 1 13 -75
c13 -69 12 -83 -8 -180 -31 -149 -132 -364 -235 -501 -85 -111 -85 -111 -131
-37 -29 46 -29 48 -4 48 11 0 20 5 20 10 0 6 -4 10 -10 10 -5 0 -9 5 -7 11 3
15 -73 68 -89 62 -16 -6 -74 53 -112 116 -35 56 -34 62 5 31 36 -28 42 -16 10
18 -32 33 -33 40 -9 38 12 -1 16 5 14 19 -5 27 -52 95 -66 95 -7 0 -25 14 -42
31 l-29 32 32 -6 c48 -9 48 7 0 33 -47 26 -97 69 -97 83 0 6 24 49 54 97 40
64 58 106 72 165 24 106 99 256 193 385 74 101 210 255 218 246 2 -2 -5 -22
-16 -45z m-1992 -7 c14 -32 10 -39 -39 -64 -47 -24 -60 -25 -60 -5 0 8 7 15
15 15 9 0 19 8 23 18 10 25 36 62 43 62 3 0 11 -12 18 -26z m1801 -16 c55 -39
67 -58 36 -58 -8 0 -20 7 -27 16 -8 9 -33 25 -57 35 -37 16 -42 22 -32 34 7 8
14 15 17 15 2 0 31 -19 63 -42z m-42 -61 c49 -37 52 -41 36 -58 -15 -17 -18
-16 -53 22 -21 21 -47 39 -58 39 -29 0 -35 11 -17 31 19 21 20 21 92 -34z
m1022 43 c0 -5 -27 -23 -60 -40 -33 -17 -60 -28 -60 -25 0 6 103 75 112 75 5
0 8 -4 8 -10z m-2723 -62 c15 -24 15 -28 -8 -56 -22 -29 -57 -41 -72 -25 -4 3
-1 13 6 21 10 13 8 14 -11 8 -12 -4 -22 -4 -22 1 0 12 74 82 83 80 5 -2 16
-14 24 -29z m1656 -47 c36 -34 39 -41 28 -55 -18 -21 -21 -21 -56 12 -16 16
-42 36 -57 46 -33 22 -28 36 13 36 21 0 42 -12 72 -39z m-1593 -52 c0 -15 -64
-68 -82 -69 -10 0 -22 9 -28 20 -10 18 -8 20 17 20 32 1 68 24 59 38 -3 6 2 8
14 5 11 -3 20 -9 20 -14z m1484 11 c20 0 96 -53 96 -67 0 -18 -7 -17 -81 20
-42 20 -64 37 -61 45 2 7 11 11 19 8 8 -3 20 -6 27 -6z m-1445 -76 c14 -31 18
-26 -44 -57 -50 -26 -65 -26 -65 -2 0 12 77 84 91 85 3 0 11 -12 18 -26z
m1444 -5 c56 -29 67 -38 61 -54 -4 -10 -18 -5 -54 21 -26 19 -58 34 -71 35
-22 0 -23 1 -4 9 11 5 21 9 23 9 1 1 22 -9 45 -20z m-3390 -44 c59 -27 181
-72 297 -110 63 -21 119 -41 123 -45 5 -4 -5 -11 -22 -15 -41 -9 -48 -22 -22
-46 12 -11 21 -29 21 -39 0 -11 6 -20 14 -20 8 0 23 -10 33 -23 10 -13 65 -56
122 -97 57 -41 120 -87 140 -102 20 -14 72 -38 115 -52 43 -15 94 -35 114 -46
l37 -19 -42 -1 c-23 0 -45 5 -48 10 -3 6 -11 10 -16 10 -5 0 -1 -12 8 -27 16
-25 17 -26 1 -21 -9 4 -45 12 -80 18 -60 11 -109 29 -80 30 38 1 -8 30 -185
119 -109 54 -209 108 -223 119 l-25 21 40 -10 c22 -6 87 -24 144 -40 190 -55
111 -11 -110 61 -68 22 -131 40 -139 40 -21 0 -279 270 -273 287 7 17 17 16
56 -2z m3371 -23 c42 -25 54 -48 35 -67 -15 -15 -17 -14 -32 9 -10 14 -34 30
-57 37 -38 11 -49 26 -33 43 10 9 51 -1 87 -22z m-1391 -25 c-10 -10 -19 -13
-23 -7 -3 5 -12 1 -20 -11 -26 -36 -48 -42 -61 -18 -10 19 -9 21 5 16 9 -4 15
-2 13 5 -1 6 18 21 42 34 34 18 47 21 52 12 5 -7 1 -20 -8 -31z m728 -17 c60
-24 119 -67 119 -86 0 -8 5 -14 10 -14 6 0 10 -9 10 -20 0 -11 -1 -20 -3 -20
-2 0 -37 11 -77 25 -86 29 -80 28 -80 11 0 -15 26 -27 113 -51 50 -14 57 -19
57 -42 0 -25 -1 -25 -72 -22 -51 3 -72 0 -75 -8 -4 -10 12 -13 55 -13 85 0 92
-4 92 -55 0 -64 17 -64 25 0 4 30 11 58 16 60 4 3 38 8 74 12 53 5 63 8 54 19
-6 8 -20 14 -31 14 -10 0 -17 4 -14 9 8 12 -18 21 -64 21 -36 0 -38 1 -44 42
-8 46 -1 54 52 64 86 17 207 -103 164 -161 -4 -5 -16 -15 -26 -21 -25 -13 -48
-78 -40 -113 24 -111 108 -266 138 -255 7 3 25 27 40 54 15 27 31 52 35 54 11
7 54 -40 47 -52 -8 -13 60 -89 95 -107 24 -13 59 -60 59 -80 0 -3 -13 1 -30
10 -41 21 -50 19 -45 -13 6 -48 132 -232 159 -232 6 0 29 -5 50 -11 l40 -11
-23 -17 -23 -18 38 -51 c80 -104 79 -99 32 -175 -22 -37 -44 -67 -47 -67 -4 0
-30 16 -57 35 l-49 35 -14 -61 c-14 -67 -24 -65 -36 8 -4 24 -11 45 -16 49
-12 7 -11 -13 2 -95 10 -59 9 -72 -6 -102 l-18 -34 -10 25 c-29 72 -54 113
-72 120 -30 11 -30 5 1 -35 16 -22 33 -61 39 -93 6 -31 16 -57 23 -60 6 -2 18
13 27 34 8 20 18 35 21 32 3 -3 -3 -23 -13 -44 -17 -36 -21 -39 -65 -42 -29
-2 -59 3 -79 13 -29 15 -31 20 -26 53 5 28 -2 52 -33 116 -21 45 -46 90 -54
101 -29 38 -18 -9 24 -98 24 -51 38 -95 36 -109 -3 -12 -5 -27 -5 -31 -1 -4
-18 2 -40 15 -26 15 -45 37 -61 69 l-22 47 20 54 c11 29 23 72 27 96 12 73
-11 47 -41 -45 l-27 -88 -18 40 c-34 73 -26 128 35 249 30 59 62 116 71 126
15 16 48 130 41 138 -7 6 -66 -51 -66 -64 0 -8 -4 -14 -10 -14 -5 0 -10 6 -10
13 0 31 -32 74 -79 107 -28 19 -50 39 -51 43 0 4 -16 23 -35 42 -53 54 -69 92
-69 162 l0 61 -22 -16 c-12 -10 -20 -20 -18 -23 7 -12 -53 -189 -65 -189 -3 0
-19 20 -34 45 -16 25 -33 45 -38 45 -19 0 -46 -62 -57 -129 -12 -68 -10 -83
23 -176 4 -12 -7 -5 -29 19 -31 34 -36 46 -36 90 0 37 -3 47 -10 36 -5 -8 -10
-27 -10 -42 0 -16 -4 -28 -10 -28 -5 0 -10 9 -10 19 0 11 -4 23 -10 26 -6 4
-10 -10 -10 -35 l0 -40 -26 17 c-15 9 -35 31 -45 48 -11 16 -19 24 -19 17 0
-7 -3 -11 -7 -9 -5 3 -14 -1 -20 -9 -8 -8 -9 -15 -3 -19 15 -9 12 -25 -5 -25
-8 0 -31 25 -51 55 -20 30 -41 55 -45 55 -5 0 -9 20 -9 44 0 29 -5 46 -14 49
-10 4 -13 1 -10 -8 4 -9 -7 -22 -29 -35 -38 -23 -63 -73 -51 -105 7 -17 8 -17
21 1 7 10 13 24 13 33 0 16 28 51 42 51 4 0 8 -12 8 -26 0 -14 4 -44 9 -67 5
-23 15 -82 21 -132 18 -131 54 -238 96 -285 35 -38 35 -41 28 -97 -8 -66 -29
-92 -130 -158 -33 -21 -81 -57 -109 -79 -91 -75 -87 -73 -83 -49 3 19 239 306
246 299 1 -2 -1 -29 -6 -60 -5 -31 -7 -56 -5 -56 15 0 63 44 63 57 0 13 -3 13
-15 3 -18 -15 -19 -7 -5 39 8 28 6 38 -7 53 -16 18 -18 17 -61 -24 -24 -24
-63 -70 -87 -103 -24 -33 -51 -67 -62 -76 -10 -9 -36 -42 -58 -74 -70 -100
-73 -103 -147 -110 -65 -6 -68 -6 -79 18 -10 22 -6 32 32 88 23 35 45 66 48
69 3 3 42 43 86 89 114 119 61 84 -80 -53 l-119 -115 -35 28 c-20 16 -45 38
-55 50 -11 12 -26 21 -35 21 -9 0 -33 20 -54 44 l-36 44 36 38 c20 21 42 53
49 71 12 27 21 33 67 43 44 9 63 20 101 58 l48 47 -39 5 -38 5 57 37 c39 25
60 46 64 65 4 15 31 74 61 132 29 57 53 109 53 114 0 5 -12 1 -27 -8 -81 -53
-78 -51 -68 -35 5 8 38 54 73 102 56 77 67 87 87 82 20 -5 35 4 76 42 66 63
79 90 79 161 0 52 -3 60 -30 82 -17 13 -30 27 -30 31 0 33 210 220 261 233 13
3 33 13 44 22 18 15 17 15 -12 0 -18 -8 -33 -11 -33 -6 0 14 16 22 74 36 28 7
52 13 53 14 1 1 25 -8 54 -19z m-673 -28 c4 -13 -84 -72 -109 -72 -15 0 -35
27 -26 36 9 10 114 53 121 51 6 -2 11 -8 14 -15z m1289 -4 c46 -25 56 -37 43
-58 -6 -10 -18 -7 -53 13 -25 15 -57 27 -72 27 -23 0 -24 2 -15 20 14 26 45
25 97 -2z m-1264 -80 c-22 -25 -104 -62 -114 -51 -20 21 -9 34 51 65 52 27 67
31 73 20 6 -9 2 -21 -10 -34z m1260 -5 c38 -27 41 -31 31 -57 -5 -12 -15 -8
-53 24 -35 29 -56 40 -82 40 -32 1 -33 1 -14 16 25 19 68 10 118 -23z m-2533
-74 l135 -81 60 -92 c32 -50 72 -107 87 -127 15 -20 28 -40 28 -43 0 -19 -65
3 -201 68 -85 40 -171 79 -192 86 -34 10 -86 54 -199 162 -16 16 -40 35 -53
44 -14 9 -25 19 -25 23 0 6 112 26 215 40 5 0 70 -36 145 -80z m3277 75 c26
-7 45 -52 67 -159 35 -174 -27 -450 -178 -787 -49 -112 -95 -196 -137 -255
-34 -48 -64 -89 -65 -91 -2 -3 -88 39 -112 56 -10 7 -4 20 26 58 35 45 138
198 168 249 6 11 43 72 83 135 39 63 71 120 71 127 0 6 17 58 37 115 34 97 36
110 37 228 0 118 -1 127 -24 153 -18 21 -33 27 -63 27 -38 0 -39 1 -33 28 24
98 26 101 59 111 41 12 38 12 64 5z m-1943 -30 c10 -27 -52 -85 -106 -98 -22
-5 -30 -2 -39 16 -9 17 -9 23 0 26 6 2 17 9 24 16 7 7 19 11 27 8 8 -3 12 -1
8 3 -7 8 46 41 68 44 7 0 15 -6 18 -15z m1121 -8 c55 -19 97 -79 87 -124 l-7
-33 -63 70 c-35 39 -70 71 -78 71 -8 0 -14 7 -14 15 0 19 23 19 75 1z m-1077
-74 c2 -18 -1 -32 -7 -32 -5 0 -12 -8 -15 -18 -7 -20 -74 -62 -100 -62 -13 0
-36 28 -36 43 0 3 19 16 43 30 23 14 53 37 66 51 31 33 45 29 49 -12z m785 31
c-13 -2 -33 -2 -45 0 -13 2 -3 4 22 4 25 0 35 -2 23 -4z m291 -64 c55 -60 64
-74 55 -90 -5 -10 -13 -19 -17 -19 -17 1 -144 151 -138 165 10 28 34 15 100
-56z m-3454 46 c36 -8 75 -17 87 -20 12 -3 29 -13 39 -23 10 -9 20 -17 23 -18
3 0 15 -4 26 -8 11 -5 50 -20 88 -34 37 -14 67 -31 67 -38 0 -7 14 -16 32 -19
18 -4 39 -11 48 -15 8 -5 35 -17 60 -28 25 -11 90 -46 145 -78 55 -31 133 -75
173 -96 39 -22 72 -44 72 -50 0 -6 3 -9 6 -5 9 9 52 -16 94 -54 27 -24 22 -22
-24 10 -33 23 -61 39 -63 37 -3 -2 11 -28 31 -58 20 -29 36 -56 36 -60 0 -5
-21 -8 -46 -8 -33 0 -56 7 -87 28 -65 44 -229 138 -257 148 -14 4 -32 7 -41 6
-9 -2 -78 13 -155 32 -115 29 -179 38 -364 52 -326 24 -457 13 -755 -67 -293
-78 -602 -192 -835 -309 -172 -86 -336 -150 -300 -116 18 16 260 165 310 191
19 10 64 37 100 60 83 54 478 231 560 251 3 0 12 4 21 8 10 4 23 6 30 5 8 -1
26 3 41 9 14 6 44 13 65 15 21 3 94 18 163 35 177 43 206 49 378 77 l154 26
66 -20 c65 -18 383 -161 410 -184 10 -8 16 -7 22 3 6 10 11 8 21 -9 8 -11 20
-21 28 -21 7 0 -4 13 -25 30 -22 16 -44 34 -51 40 -7 5 -15 10 -19 10 -4 0
-17 8 -28 19 -35 31 -336 167 -421 190 -110 30 -175 53 -175 63 0 14 182 8
250 -7z m1680 -27 c0 -6 -7 -20 -17 -30 -15 -17 -15 -18 4 -18 12 0 24 -7 27
-16 10 -26 7 -32 -12 -28 -24 7 -110 -33 -116 -54 -2 -9 -7 -51 -11 -94 -5
-64 -10 -77 -26 -81 -25 -7 -24 -18 11 -187 16 -79 27 -147 24 -151 -2 -4 32
-80 76 -167 44 -88 80 -164 80 -169 0 -4 13 -21 29 -36 16 -15 50 -59 77 -97
27 -38 59 -75 72 -81 12 -7 22 -17 22 -24 0 -6 25 -24 55 -40 30 -17 58 -39
61 -50 4 -11 15 -31 25 -44 l19 -24 -47 -31 c-26 -17 -52 -35 -59 -41 -18 -13
-180 154 -218 226 -15 30 -38 65 -51 79 -30 33 -47 68 -40 80 3 6 1 10 -5 10
-6 0 -8 5 -5 10 3 6 2 10 -4 10 -5 0 -16 12 -24 28 -8 15 -33 62 -55 104 -50
92 -95 207 -88 225 3 7 1 13 -4 13 -14 0 -29 61 -31 128 -1 38 -7 66 -15 73
-10 8 -14 40 -14 113 1 93 2 99 15 76 16 -28 17 -24 15 41 -1 26 6 63 14 83 8
20 15 39 15 41 1 22 36 64 60 75 18 7 28 17 24 25 -3 9 7 17 29 24 47 13 88
13 88 -1z m1610 -2 c0 -2 -8 -10 -17 -17 -16 -13 -17 -12 -4 4 13 16 21 21 21
13z m-919 -108 c-94 -94 -109 -85 -20 13 51 57 74 76 80 67 5 -8 -14 -35 -60
-80z m1033 17 c58 -66 64 -78 54 -95 -15 -24 -23 -18 -48 30 -19 37 -87 100
-109 100 -8 0 -7 6 1 20 7 11 18 20 25 20 6 0 41 -34 77 -75z m2703 58 c-3 -4
37 -9 89 -10 51 -1 99 -5 105 -9 14 -8 92 -14 189 -15 36 0 83 -4 105 -8 l40
-8 -33 -8 c-47 -11 -48 -22 -2 -30 22 -4 42 -10 44 -14 2 -3 -64 -22 -147 -40
-150 -34 -217 -58 -127 -47 129 16 319 28 369 23 90 -10 376 -140 464 -212 60
-48 71 -70 20 -40 l-28 17 25 -21 c14 -11 30 -20 35 -20 27 3 37 -2 31 -16 -3
-9 0 -15 9 -15 25 0 151 -116 309 -284 115 -123 119 -133 35 -80 -20 12 -78
46 -130 74 -99 55 -156 103 -379 315 -89 84 -159 142 -198 163 -71 38 -82 30
-19 -15 55 -41 322 -309 322 -326 1 -6 5 -11 10 -10 6 0 69 -57 140 -129 l130
-130 -115 85 c-63 46 -218 153 -345 238 -206 139 -249 164 -415 236 -102 45
-210 89 -240 97 -64 18 -317 33 -261 15 40 -12 38 -15 -14 -22 -54 -8 -332
-61 -475 -91 -63 -13 -162 -42 -219 -65 -57 -22 -120 -41 -141 -41 -23 0 -43
-6 -51 -17 -12 -15 -12 -16 4 -10 36 13 15 -2 -39 -28 -30 -15 -92 -61 -137
-103 -45 -41 -104 -96 -131 -120 -53 -49 -167 -212 -222 -319 -20 -37 -52 -89
-71 -116 l-36 -49 -20 21 c-15 14 -23 40 -28 88 -7 58 -3 86 23 193 17 69 41
142 53 163 29 50 164 199 175 192 4 -3 13 8 20 24 6 16 22 39 36 52 13 12 24
28 24 35 0 44 227 230 350 287 36 16 124 51 195 77 137 50 163 54 400 66 72 3
131 7 132 8 7 6 144 6 140 -1z m-6344 -17 c4 -10 -71 -32 -321 -95 -180 -45
-349 -85 -377 -90 -73 -12 -357 -85 -532 -137 -83 -24 -155 -44 -159 -44 -4 0
35 29 87 65 89 62 170 105 284 153 55 23 260 69 340 77 54 5 72 9 95 18 8 4
35 9 60 11 25 3 63 7 85 10 33 4 235 25 385 39 19 2 38 5 41 5 4 1 9 -4 12
-12z m2711 -22 c9 -12 4 -31 -26 -93 -31 -66 -42 -80 -70 -90 -28 -10 -35 -9
-45 5 -15 20 1 51 55 111 19 21 41 48 49 61 18 26 22 27 37 6z m895 -90 c52
-58 59 -68 48 -85 -6 -10 -14 -19 -17 -19 -3 0 -20 26 -37 58 -18 32 -41 67
-53 77 -11 10 -20 22 -20 27 0 20 22 4 79 -58z m-854 -21 c-6 -40 -16 -56 -57
-96 -61 -60 -83 -52 -28 10 22 26 50 68 63 94 12 26 23 46 25 44 2 -2 0 -25
-3 -52z m834 -62 c26 -52 30 -81 11 -81 -8 0 -9 2 -47 99 -30 80 -7 68 36 -18z
m-3679 -92 c-63 -27 -167 -74 -230 -104 -63 -30 -122 -56 -130 -57 -8 -2 -20
-8 -27 -15 -7 -6 -151 -81 -319 -167 -169 -86 -334 -176 -368 -199 -33 -24
-83 -60 -111 -79 -248 -173 -306 -215 -342 -251 -24 -23 -43 -38 -43 -34 0 3
60 89 133 189 73 101 167 230 208 288 41 58 86 111 100 117 13 7 17 13 9 13
-48 0 95 67 290 135 345 121 514 173 591 184 125 17 227 27 294 28 l59 1 -114
-49z m420 30 c25 -5 106 -20 180 -34 74 -14 160 -32 191 -40 31 -8 67 -15 78
-15 24 0 106 -39 98 -46 -5 -5 -127 13 -153 23 -12 4 -15 2 -12 -8 3 -9 35
-18 94 -26 64 -9 106 -21 152 -44 65 -34 74 -44 45 -52 -10 -3 -2 -5 18 -6 20
-1 49 -11 69 -26 60 -45 57 -51 -27 -54 -42 -1 -80 -4 -84 -7 -4 -2 -52 -5
-107 -5 -74 -1 -105 3 -123 14 -29 19 -399 104 -495 113 -38 4 -75 11 -82 17
-10 8 -16 7 -22 -2 -5 -9 -10 -10 -14 -3 -6 11 -168 9 -204 -2 -28 -9 -425
-57 -429 -52 -3 2 6 7 19 11 13 4 77 33 143 65 142 69 160 77 335 146 132 53
137 54 210 48 41 -3 95 -10 120 -15z m6218 1 c28 -5 99 -31 159 -58 84 -38
140 -73 256 -161 81 -62 147 -114 147 -116 0 -1 -28 6 -62 17 -162 51 -472
119 -633 139 -163 19 -423 28 -445 14 -5 -3 -10 -1 -10 4 0 6 -5 11 -11 11 -5
0 -8 -4 -5 -9 4 -5 -29 -12 -71 -16 -139 -11 -131 -14 28 -9 l157 5 128 -57
c227 -100 504 -254 504 -279 0 -8 14 -22 30 -32 17 -9 30 -21 30 -24 0 -4 8
-10 18 -13 9 -3 33 -20 52 -36 19 -17 43 -36 53 -41 17 -10 18 -9 2 14 -9 14
-23 28 -32 31 -9 4 -13 9 -10 13 4 3 33 -16 67 -43 33 -27 55 -51 49 -53 -5
-1 -18 4 -28 13 -10 9 -25 14 -33 11 -8 -3 -55 6 -104 20 -49 14 -141 37 -206
50 -141 29 -356 91 -521 149 -67 23 -151 46 -186 49 -35 4 -69 11 -75 16 -6 5
-40 19 -76 31 -36 13 -69 26 -73 30 -8 7 43 50 58 50 9 0 55 43 55 51 0 4 -22
9 -48 13 -27 3 -57 12 -67 20 -18 13 -18 14 1 24 45 24 431 116 598 142 99 16
192 31 206 33 43 7 46 7 98 -3z m-4771 -77 c-3 -10 -5 -2 -5 17 0 19 2 27 5
18 2 -10 2 -26 0 -35z m1657 -118 c36 -31 66 -61 66 -66 0 -5 -10 -9 -23 -9
-55 0 -237 -66 -237 -86 0 -19 20 -18 34 1 10 15 192 75 224 75 29 0 41 -33
42 -109 0 -74 -1 -75 -72 -204 -55 -98 -91 -148 -147 -206 -62 -64 -75 -73
-78 -56 -7 30 -17 37 -47 29 -36 -9 -33 -27 4 -22 37 6 38 -4 4 -27 -24 -16
-30 -16 -58 -2 -55 26 -146 104 -192 164 -25 32 -59 76 -77 97 -33 41 -62 128
-52 155 8 21 -15 127 -25 112 -4 -8 -10 -1 -14 19 -12 60 -10 62 34 40 21 -11
52 -20 68 -20 16 0 35 -7 42 -15 8 -10 16 -12 20 -6 10 17 127 -24 166 -58 19
-17 39 -31 44 -31 17 0 4 54 -26 106 -28 51 -28 53 -15 115 7 35 16 68 20 72
5 4 16 -5 26 -20 23 -35 33 -45 67 -67 33 -21 34 -20 42 72 3 35 11 72 17 83
10 20 13 18 44 -28 19 -28 63 -76 99 -108z m3846 -163 c363 -245 324 -209 546
-504 239 -318 225 -299 189 -267 -450 394 -512 443 -831 654 -115 75 -213 141
-219 146 -10 10 49 -7 179 -51 49 -16 91 -28 93 -27 5 6 -229 201 -289 241
-32 21 -58 40 -58 42 0 16 183 -94 390 -234z m-5990 124 c96 -63 159 -125 255
-250 77 -99 107 -147 128 -204 15 -42 25 -82 22 -90 -3 -8 1 -20 10 -26 8 -6
22 -42 31 -79 l17 -68 -34 -35 c-27 -28 -39 -34 -59 -29 -14 3 -31 14 -38 23
-7 9 -18 24 -25 32 -16 19 -29 53 -63 165 -35 118 -117 251 -178 291 -24 16
-67 58 -96 94 -28 36 -75 89 -103 119 l-52 53 55 -2 c72 -3 77 -2 58 13 -9 6
-24 25 -34 42 l-19 30 40 -25 c22 -13 60 -37 85 -54z m1511 2 c23 -31 24 -39
5 -32 -16 6 -36 48 -35 72 0 14 2 14 6 2 3 -8 14 -27 24 -42z m3537 32 c208
-24 365 -53 370 -69 2 -6 8 -8 13 -5 6 3 32 3 58 -1 37 -5 80 -26 178 -88 137
-87 374 -281 367 -301 -3 -7 11 -17 29 -24 24 -9 73 -58 170 -170 75 -86 175
-201 223 -255 81 -92 91 -109 155 -255 62 -142 82 -196 61 -167 -35 49 -228
193 -348 260 -37 20 -77 62 -169 176 -102 128 -152 179 -340 345 -179 159
-239 206 -320 251 -55 30 -128 73 -163 94 -35 22 -65 39 -68 39 -2 0 -51 25
-107 56 -56 31 -140 69 -187 86 -83 30 -123 47 -107 48 4 0 88 -9 185 -20z
m-704 -35 c25 -4 48 -11 51 -15 5 -8 -103 -60 -124 -60 -6 0 -11 -4 -11 -8 0
-4 45 -22 100 -41 55 -18 100 -34 100 -36 0 -3 -37 -3 -82 0 -57 3 -78 1 -71
-6 6 -6 53 -12 105 -14 51 -2 92 -7 91 -11 0 -4 -59 -38 -130 -75 -131 -70
-180 -82 -224 -58 -19 10 -18 13 21 67 22 32 40 61 40 65 0 4 -13 7 -30 7 -16
0 -30 -4 -30 -9 0 -5 -24 -14 -52 -21 -47 -11 -78 -31 -78 -51 0 -3 21 4 48
17 42 21 72 30 72 21 0 -2 -9 -22 -20 -45 -29 -59 -26 -68 23 -78 l42 -9 1
-57 c1 -32 7 -64 14 -73 14 -17 14 -17 -15 -34 l-20 -12 20 5 c18 5 20 2 17
-44 l-4 -50 76 0 c42 0 76 -4 76 -9 0 -13 -146 -141 -160 -141 -9 0 -11 11 -7
35 3 20 0 75 -7 124 -13 82 -17 93 -63 152 -28 35 -55 73 -61 85 -7 13 -40 32
-87 50 -41 16 -75 33 -75 39 0 5 38 46 84 90 84 80 290 219 312 211 6 -3 32
-8 58 -11z m-5424 -27 c-14 -6 -43 -19 -65 -28 -38 -16 -174 -76 -240 -105
-16 -7 -55 -24 -86 -38 -30 -13 -129 -74 -220 -134 -90 -61 -176 -114 -189
-118 -14 -4 -39 -19 -56 -34 -52 -44 -106 -84 -174 -130 -36 -25 -90 -65 -121
-90 -30 -25 -74 -62 -98 -81 -136 -109 -433 -358 -536 -450 -66 -59 -126 -110
-134 -115 -8 -5 4 27 27 69 98 182 148 265 157 266 6 0 11 8 11 18 0 15 75
154 239 442 26 45 53 71 151 143 188 138 244 174 390 252 26 14 55 32 64 39 8
8 44 30 80 50 l65 35 250 8 c398 14 514 14 485 1z m273 -28 c78 -23 153 -45
167 -49 14 -5 43 -14 65 -20 70 -22 95 -33 89 -42 -3 -5 4 -9 15 -9 23 0 168
-74 191 -97 13 -13 13 -14 -6 -9 -11 3 -104 2 -205 -4 -101 -5 -312 -17 -469
-26 -157 -8 -345 -16 -417 -17 -73 -1 -133 -5 -133 -8 0 -4 -30 -9 -67 -12
-38 -2 -77 -8 -88 -12 -23 -9 131 87 186 115 20 11 40 16 44 12 5 -4 5 -2 1 5
-4 7 10 21 35 35 45 25 416 175 437 177 8 1 77 -17 155 -39z m3137 -32 c0 -13
-11 -36 -24 -53 l-24 -30 5 30 c6 28 30 75 39 75 2 0 4 -10 4 -22z m-2396 -85
c19 -21 45 -51 58 -68 12 -16 33 -38 45 -48 13 -10 23 -26 23 -35 -1 -9 -33
-39 -72 -67 -78 -55 -177 -158 -213 -220 -26 -46 -55 -216 -55 -322 1 -86 32
-162 123 -301 36 -55 63 -103 60 -106 -4 -3 -12 2 -19 13 -10 13 -32 20 -79
25 -36 4 -78 9 -94 12 l-28 6 33 68 c19 38 34 77 34 87 0 18 -5 19 -72 11
-131 -16 -131 -15 -53 80 36 46 64 89 62 96 -3 8 -29 19 -59 26 -111 27 -109
20 -29 109 39 43 71 83 71 88 0 16 -65 33 -131 33 -35 0 -69 4 -76 8 -8 5 27
38 102 95 62 48 118 87 124 87 6 0 11 4 11 8 0 4 -47 23 -105 42 -58 19 -105
37 -105 40 0 8 289 120 308 120 33 0 4 24 -68 57 -55 24 -77 39 -68 44 9 6 4
9 -15 9 -28 0 -97 25 -97 34 0 4 79 6 175 6 l174 0 35 -37z m4796 -78 c162
-49 191 -62 168 -76 -9 -6 -6 -9 10 -9 12 0 22 -4 22 -10 0 -12 -55 -12 -122
-1 -27 4 -48 4 -48 -1 0 -4 6 -8 13 -8 46 0 193 -22 211 -32 11 -6 66 -48 121
-94 109 -90 272 -221 369 -297 33 -26 60 -52 58 -58 -1 -6 1 -8 6 -5 5 3 24
-8 43 -25 41 -37 41 -37 -141 41 -175 75 -190 81 -260 108 -55 21 -211 60
-410 102 -106 23 -176 55 -289 134 -25 17 -79 50 -120 72 -41 23 -77 46 -79
52 -2 6 16 16 40 23 42 12 200 108 213 129 4 6 14 9 23 6 10 -3 87 -26 172
-51z m-5093 -56 c-10 -6 -44 -13 -75 -17 -47 -5 -52 -7 -27 -12 28 -5 24 -8
-46 -34 -64 -23 -81 -26 -99 -16 -12 6 -25 9 -28 5 -3 -3 3 -8 15 -11 29 -8
36 -31 15 -44 -15 -10 -14 -11 3 -4 44 15 72 15 88 0 8 -9 26 -16 40 -16 13 0
45 -7 70 -16 l47 -16 -42 -31 c-23 -17 -49 -38 -58 -47 -25 -29 -140 -120
-151 -120 -6 0 -8 -4 -5 -8 3 -5 55 -12 117 -15 61 -3 113 -8 116 -11 3 -2
-20 -31 -50 -63 -31 -32 -65 -70 -76 -84 l-21 -27 90 -28 c50 -16 90 -32 90
-36 0 -4 -14 -15 -31 -23 -17 -9 -28 -19 -25 -22 3 -4 -14 -28 -39 -54 -29
-32 -45 -57 -45 -74 l0 -26 95 5 c56 3 95 1 95 -4 0 -5 -10 -33 -21 -62 -12
-29 -25 -64 -28 -78 l-7 -25 -160 4 c-87 1 -160 4 -162 5 -1 2 20 51 48 109
27 58 50 111 50 116 0 6 8 15 18 21 25 16 -28 5 -191 -41 -125 -36 -238 -50
-237 -31 1 4 24 26 53 50 29 24 79 68 112 98 33 30 72 62 88 70 15 8 27 19 27
25 0 6 14 24 31 40 17 16 26 29 21 29 -6 0 -14 -5 -17 -10 -24 -40 -158 -66
-384 -77 -165 -7 -165 -7 -74 78 47 43 205 159 217 159 4 0 12 5 19 10 7 6 21
18 32 26 19 15 18 15 -12 10 -18 -3 -33 -2 -33 3 0 5 -17 5 -37 1 -21 -5 -90
-16 -153 -25 -63 -9 -182 -30 -263 -46 -82 -17 -153 -29 -159 -27 -13 5 147
124 214 161 25 14 63 36 85 49 21 14 101 56 178 95 l140 71 195 21 c107 11
209 22 225 24 17 2 55 5 85 5 43 1 51 -1 37 -9z m4331 -66 c47 -29 72 -56 116
-119 l56 -83 0 -101 c0 -102 0 -102 -44 -183 -103 -189 -216 -313 -433 -475
-69 -51 -96 -65 -167 -83 -83 -22 -86 -22 -198 -6 -108 15 -225 53 -258 83 -9
7 -17 23 -18 36 -5 40 -8 52 -21 83 -12 30 -9 78 9 105 8 12 12 11 32 -7 13
-12 60 -40 104 -62 76 -38 87 -41 165 -41 136 0 237 16 327 51 68 27 96 45
162 107 120 110 193 205 218 281 40 118 24 259 -34 310 -17 15 -33 35 -37 45
-5 14 -11 15 -27 6 -11 -6 -43 -10 -70 -8 l-50 3 32 53 c39 62 44 62 136 5z
m-3788 -110 c0 -17 -6 -23 -22 -23 -13 0 -53 -3 -90 -6 -56 -5 -71 -11 -91
-34 -14 -15 -29 -29 -34 -31 -19 -9 -68 -96 -68 -124 -3 -110 -5 -125 -20
-125 -9 0 -15 -10 -15 -26 0 -14 4 -23 9 -20 4 3 11 -20 14 -52 9 -87 31 -137
104 -234 72 -97 105 -127 176 -158 26 -12 47 -25 47 -30 0 -6 7 -10 16 -10 24
0 114 -33 114 -42 0 -4 7 -4 17 -1 11 4 14 3 9 -6 -5 -8 -1 -10 16 -7 12 3 41
8 63 11 49 8 241 70 313 101 l52 23 -2 -82 -3 -82 -120 -36 c-133 -41 -317
-59 -359 -37 -11 6 -34 13 -51 15 -30 3 -182 77 -243 118 -60 41 -150 160
-202 267 l-50 103 4 140 c2 116 7 152 27 210 22 65 31 77 129 171 58 55 118
110 133 122 l29 21 49 -57 c27 -31 49 -67 49 -79z m4929 117 c66 -15 64 -23
-4 -16 -75 9 -95 15 -95 28 0 6 11 8 28 4 15 -4 47 -11 71 -16z m-6190 -34
c-63 -33 -125 -54 -233 -80 -150 -37 -245 -80 -422 -192 -34 -21 -75 -46 -90
-55 -55 -31 -488 -311 -536 -346 -26 -19 -48 -32 -48 -29 0 8 135 123 151 128
8 3 11 9 7 13 -8 8 -60 -29 -134 -95 -28 -25 -84 -74 -125 -110 -82 -72 -148
-138 -186 -188 -14 -18 -28 -31 -30 -28 -15 15 275 429 323 461 14 9 22 20 19
25 -8 13 9 20 25 10 9 -5 27 3 56 28 24 20 42 38 40 40 -6 5 -48 -20 -67 -40
-18 -20 -29 -23 -29 -9 0 5 28 32 62 61 46 39 63 48 70 38 7 -10 8 -9 6 4 -5
26 354 309 371 292 3 -3 -5 -14 -19 -25 -21 -17 -21 -19 -3 -10 11 6 29 21 40
34 12 16 53 35 128 60 116 39 161 42 615 55 l95 2 -86 -44z m5333 6 c2 -5 44
-30 93 -56 95 -50 131 -73 124 -80 -2 -2 -55 -7 -118 -11 -94 -6 -113 -5 -109
6 3 9 26 16 59 20 l54 6 -51 1 c-49 2 -51 3 -46 27 4 22 1 25 -23 25 -23 0
-26 3 -21 23 3 12 6 28 6 35 0 13 26 17 32 4z m943 -5 c45 -2 155 -24 307 -61
l237 -59 91 -81 c49 -44 118 -104 152 -132 57 -46 187 -196 188 -218 0 -5 -13
-6 -30 -2 -45 8 -36 -7 13 -24 35 -12 46 -24 67 -65 15 -27 32 -49 39 -47 7 1
10 -2 6 -8 -4 -6 18 -35 48 -64 47 -46 61 -71 110 -187 50 -121 78 -195 83
-224 1 -6 13 -28 28 -49 14 -21 26 -43 26 -49 0 -15 -25 10 -278 275 -201 212
-238 246 -341 315 -64 43 -117 81 -119 85 -2 5 -8 8 -13 8 -5 0 -31 15 -57 34
-27 18 -62 41 -79 49 -31 16 -122 88 -203 162 -25 22 -70 60 -100 85 -30 25
-73 61 -95 81 -22 19 -78 66 -125 103 -97 78 -108 92 -59 82 19 -4 66 -8 104
-9z m968 -75 c21 -18 33 -32 28 -32 -5 0 -32 21 -58 48 -50 48 -39 42 30 -16z
m-3970 -69 c21 -40 21 -41 -5 -45 -34 -5 -31 -23 4 -23 26 0 35 -7 52 -37 22
-39 90 -98 112 -98 8 0 14 -8 14 -17 0 -12 3 -14 8 -6 5 8 17 8 47 -3 22 -7
57 -14 78 -14 l37 0 -4 -43 c-4 -48 -68 -158 -103 -178 -12 -6 -24 -18 -27
-26 -3 -8 -1 -11 4 -8 31 19 -22 -67 -82 -134 -38 -41 -38 -41 -95 -35 -71 7
-262 -11 -277 -26 -8 -8 3 -9 39 -5 97 12 275 17 275 8 0 -5 -15 -24 -33 -41
-33 -32 -33 -32 -52 -12 -10 11 -23 20 -28 20 -6 0 -1 -10 11 -23 27 -28 27
-39 3 -61 -17 -16 -22 -15 -92 19 -59 29 -81 35 -109 30 -19 -4 -39 -10 -45
-14 -5 -4 -58 -25 -117 -45 l-108 -38 -68 -82 c-37 -44 -80 -97 -95 -117 -35
-47 -100 -207 -92 -227 8 -22 18 -7 44 64 25 67 108 191 188 278 42 46 72 66
150 103 131 62 172 65 252 23 l62 -33 -38 -39 c-21 -21 -43 -36 -50 -34 -14 6
-37 -20 -29 -33 4 -5 -2 -16 -12 -23 -9 -7 -31 -32 -48 -55 -17 -24 -34 -40
-37 -36 -4 3 -7 34 -7 69 0 57 -2 62 -20 57 -25 -7 -33 -32 -25 -85 5 -37 2
-48 -22 -80 -15 -20 -54 -60 -85 -88 -55 -49 -69 -70 -49 -70 5 0 35 25 67 55
50 46 94 70 94 50 0 -18 -75 -149 -113 -199 -66 -84 -255 -206 -320 -206 -14
0 -44 -7 -68 -15 -58 -21 -75 -11 -120 73 l-36 67 23 63 c12 35 27 69 33 75
15 15 14 27 -2 27 -7 0 -26 -26 -41 -57 -26 -53 -29 -56 -37 -35 -12 31 11 84
62 144 21 26 39 49 39 52 0 19 -85 -54 -103 -88 l-21 -41 -8 50 c-5 28 -9 99
-9 158 -1 77 -4 107 -12 104 -30 -10 -13 -259 25 -379 l21 -66 -29 -124 -30
-123 -91 -55 c-51 -30 -107 -70 -126 -88 l-33 -32 -38 86 c-34 77 -38 98 -43
197 -6 98 -8 108 -20 91 -16 -21 -11 -134 9 -209 16 -61 108 -279 123 -291 11
-8 11 -21 0 -73 -15 -72 -79 -174 -198 -318 -72 -86 -75 -92 -81 -154 -4 -35
-12 -85 -17 -112 -14 -59 -8 -84 29 -122 21 -21 35 -51 47 -100 14 -61 21 -73
55 -97 21 -16 43 -28 49 -28 6 0 11 -15 11 -33 0 -41 29 -125 63 -187 14 -25
49 -118 77 -208 51 -156 52 -163 35 -182 -15 -17 -20 -18 -43 -6 -22 11 -32
11 -67 0 -36 -13 -43 -20 -62 -72 -12 -31 -27 -95 -33 -142 -9 -61 -20 -96
-39 -125 l-26 -40 -3 113 c-2 80 -7 121 -18 136 -8 13 -11 31 -8 41 5 13 4 16
-4 11 -7 -4 -12 -16 -12 -26 0 -11 -6 -37 -14 -57 -8 -21 -29 -86 -47 -145
-18 -60 -36 -108 -40 -108 -4 0 -10 34 -14 75 -6 64 -3 119 11 210 2 11 5 70
8 131 3 69 10 125 20 148 9 21 16 58 16 81 0 62 -26 202 -61 324 -16 58 -32
143 -36 188 -6 82 -6 82 21 92 33 13 34 20 1 13 l-26 -4 5 68 c17 263 62 496
144 755 22 68 43 153 46 189 3 36 10 112 16 170 15 158 82 494 111 555 5 11
15 41 23 66 12 41 12 46 -3 45 -38 -3 -49 146 -15 201 8 12 14 31 14 42 0 30
89 213 100 206 6 -3 10 3 10 13 0 11 7 25 15 32 8 7 12 17 8 23 -3 5 -2 7 4 4
14 -9 241 48 304 77 31 14 65 36 75 47 25 28 184 149 196 149 5 0 6 -4 3 -10
-3 -5 -2 -10 3 -10 5 0 17 17 28 38 10 20 22 39 27 40 4 2 7 28 7 57 l0 54 78
-77 c76 -76 146 -122 183 -122 27 0 108 44 145 78 32 30 103 130 119 167 7 16
10 11 15 -25 3 -25 14 -59 23 -77z m1776 20 c10 -21 24 -63 31 -93 11 -49 10
-63 -10 -130 -22 -71 -68 -150 -115 -195 -12 -11 -62 -58 -113 -104 l-92 -84
-119 -32 c-89 -24 -128 -30 -157 -25 l-39 7 40 18 c51 22 168 115 270 214 l80
78 74 191 c72 187 75 192 102 192 23 0 32 -7 48 -37z m-1275 -11 c18 -16 66
-45 107 -66 98 -49 130 -87 167 -194 40 -116 44 -149 31 -213 -11 -51 -57
-155 -101 -226 -11 -18 -17 -33 -14 -33 4 0 20 23 37 50 17 28 33 50 35 50 14
0 -116 -230 -155 -275 -66 -76 -237 -225 -369 -324 -93 -69 -115 -91 -133
-130 -29 -66 -67 -188 -74 -242 -7 -47 -74 -149 -182 -275 -53 -62 -236 -189
-284 -197 -19 -3 -106 -24 -194 -46 -88 -23 -171 -43 -185 -44 -14 -2 -37 -9
-52 -15 -15 -6 -56 -19 -90 -27 -85 -22 -215 -63 -238 -75 -11 -6 -30 -11 -44
-12 -13 -1 -22 -6 -20 -10 3 -4 -2 -8 -10 -8 -9 0 -16 -4 -16 -9 0 -5 -30 -31
-66 -59 -36 -28 -88 -81 -117 -118 -55 -71 -68 -71 -43 1 14 42 77 127 183
249 24 26 43 54 43 62 0 8 4 14 8 14 5 0 9 6 10 13 0 6 6 43 12 82 10 54 10
80 -1 122 l-12 53 38 56 c60 86 173 147 400 214 182 53 257 91 372 187 49 42
163 197 163 223 0 34 135 213 241 320 200 201 305 345 406 557 67 141 89 209
99 310 4 35 9 63 12 63 2 0 19 -13 36 -28z m1876 -52 c0 -6 6 -10 13 -10 23 0
282 -166 285 -182 2 -9 19 -34 39 -55 40 -42 223 -270 223 -277 0 -3 -62 31
-137 74 -163 94 -423 203 -534 224 -43 8 -88 22 -102 30 -13 9 -26 13 -30 10
-8 -9 -67 6 -67 17 0 5 12 12 27 15 15 4 36 17 45 28 18 21 58 90 58 101 0 3
-39 5 -86 5 -84 0 -85 0 -78 23 3 12 7 23 8 23 0 1 57 4 125 8 69 4 127 9 129
11 7 7 82 -34 82 -45z m-4600 -69 c0 -10 15 -61 34 -112 32 -92 35 -95 107
-154 41 -33 84 -67 97 -75 23 -15 26 -25 52 -152 9 -44 16 -58 29 -58 9 0 37
-20 61 -45 24 -25 52 -45 61 -45 21 0 53 -36 44 -49 -3 -6 -29 -11 -57 -11
-117 0 -305 85 -379 172 -110 128 -150 281 -113 433 17 73 37 115 54 115 6 0
10 -8 10 -19z m5013 -48 c105 -29 313 -103 619 -218 91 -35 109 -47 280 -186
156 -128 200 -170 296 -286 61 -74 112 -137 112 -138 0 -2 -33 11 -72 29 -78
33 -149 73 -160 90 -4 6 -10 7 -14 4 -4 -4 -19 1 -34 12 -16 11 -32 20 -36 20
-7 0 -155 86 -248 144 -60 37 -111 66 -191 107 -33 18 -78 44 -100 59 -22 15
-83 49 -135 77 -90 47 -187 108 -275 173 -55 40 -144 100 -150 100 -10 0 -75
45 -75 52 0 10 44 1 183 -39z m-6166 -144 c-62 -57 -85 -85 -78 -92 8 -8 6
-16 -6 -29 -9 -10 -13 -18 -10 -18 3 0 15 9 26 21 17 19 33 22 138 25 210 7
277 12 306 23 42 16 32 1 -41 -62 -37 -32 -100 -88 -140 -125 l-73 -67 108 6
c101 6 220 31 306 64 20 8 37 12 37 8 0 -4 -14 -31 -32 -59 -28 -47 -40 -57
-112 -89 -112 -52 -376 -110 -610 -135 -262 -28 -246 -30 -196 29 57 67 106
100 250 163 69 31 175 86 235 122 61 37 134 79 164 93 30 15 49 29 44 30 -16
6 -153 -59 -337 -156 -182 -97 -122 -88 -500 -75 -177 6 -197 8 -180 21 31 24
130 70 163 78 17 3 34 11 38 17 4 8 0 9 -13 5 -14 -5 -12 -2 5 11 14 9 90 44
170 78 80 33 207 90 281 127 74 36 137 66 140 66 2 1 -35 -36 -83 -80z m5511
44 c43 -7 34 -14 -58 -47 -41 -15 -86 -36 -100 -46 l-25 -19 37 -15 c21 -9 42
-16 47 -16 5 0 12 -4 15 -9 4 -5 -24 -20 -60 -33 -37 -12 -68 -27 -69 -33 -2
-5 -6 -26 -9 -45 -5 -31 -14 -39 -71 -70 -68 -36 -101 -72 -97 -102 2 -13 -13
-26 -52 -45 -50 -24 -56 -31 -56 -58 0 -28 -4 -32 -45 -43 -54 -14 -88 -16
-80 -3 3 5 -9 2 -27 -7 -28 -14 -30 -17 -13 -20 48 -8 49 -12 4 -52 l-44 -38
-37 21 c-21 11 -38 24 -38 29 0 4 -8 8 -17 9 -10 0 36 27 102 61 102 51 136
75 224 157 88 81 120 119 203 245 54 82 98 156 98 163 0 7 7 13 15 13 8 0 15
5 15 11 0 11 48 8 138 -8z m116 -29 c13 -5 14 -9 5 -20 -9 -12 -6 -13 20 -8
26 6 43 -2 114 -49 46 -31 110 -85 143 -120 100 -108 196 -217 190 -217 -10 0
-351 88 -373 97 -24 9 -107 73 -186 144 -29 26 -72 56 -96 69 -33 16 -41 24
-30 31 8 5 21 9 29 9 18 0 88 36 107 56 15 15 50 18 77 8z m612 -76 c8 -1 125
-78 201 -132 18 -13 29 -27 25 -31 -4 -5 -2 -5 5 -1 6 3 35 -8 64 -25 29 -16
83 -46 120 -65 50 -24 67 -38 63 -49 -4 -8 -1 -15 6 -15 6 0 8 5 5 10 -10 16
-1 13 88 -30 86 -41 197 -124 255 -190 17 -21 32 -40 32 -43 0 -3 -21 2 -47
10 -60 19 -374 73 -385 67 -5 -3 -38 -2 -73 1 -57 6 -73 14 -128 54 -62 46
-214 139 -294 180 -24 12 -43 27 -43 33 0 6 -3 9 -6 5 -13 -13 -110 48 -178
112 -39 36 -84 77 -101 89 -29 22 -29 23 -5 16 37 -10 500 -243 537 -270 17
-13 34 -24 38 -24 3 0 -17 34 -45 75 -28 41 -48 75 -44 75 5 0 -26 42 -96 130
-11 14 -20 30 -20 35 0 6 4 4 9 -3 4 -8 12 -14 17 -14z m-747 -104 c16 -14 28
-31 25 -38 -2 -6 8 -17 23 -23 16 -7 62 -45 103 -84 143 -136 220 -212 216
-216 -11 -12 -676 172 -676 187 0 4 28 15 63 25 34 10 66 22 70 26 5 4 12 31
15 60 l7 53 55 17 c72 22 66 23 99 -7z m813 -278 c122 -79 191 -130 206 -152
25 -38 21 -40 -36 -20 -22 8 -43 12 -47 8 -3 -4 -10 0 -14 7 -5 7 -25 13 -45
13 -20 0 -36 5 -36 10 0 6 -6 8 -13 5 -16 -6 -99 9 -237 43 -19 5 -62 14 -95
20 -62 13 -97 35 -197 127 -49 45 -44 53 19 28 36 -14 316 -89 378 -102 l30
-5 -28 30 c-20 21 -25 31 -15 34 8 3 2 11 -17 20 -16 9 -43 31 -60 48 l-30 33
27 -14 c14 -8 109 -67 210 -133z m-2135 -101 c3 -55 9 -104 13 -110 4 -5 10
-35 13 -65 4 -31 24 -108 46 -172 31 -95 40 -138 46 -229 6 -87 5 -110 -5
-104 -9 6 -10 3 -2 -11 5 -11 13 -64 16 -119 8 -133 7 -129 22 -140 6 -5 17
-28 24 -50 6 -22 20 -62 30 -90 16 -43 24 -109 30 -272 0 -7 4 -13 8 -13 4 0
5 32 1 72 -3 39 -3 83 1 97 l7 26 9 -30 c13 -43 8 -455 -6 -555 -7 -47 -14
-116 -16 -155 -2 -38 -11 -115 -20 -170 -31 -184 -16 -396 36 -513 26 -58 37
-48 16 15 -16 50 -47 215 -41 221 2 2 25 -28 51 -68 25 -39 70 -97 98 -127 28
-31 41 -51 30 -45 -29 15 -34 7 -22 -31 14 -43 42 -68 112 -100 33 -15 57 -29
55 -31 -2 -1 -34 -1 -71 2 -59 4 -72 9 -108 40 -31 26 -44 32 -50 22 -5 -7 0
-20 11 -31 11 -11 19 -26 19 -34 0 -8 30 -51 66 -96 36 -44 63 -83 60 -86 -2
-3 -20 -2 -38 2 -23 5 -61 35 -123 95 -103 100 -226 197 -261 206 -13 3 -24 9
-24 13 0 4 -14 6 -30 3 -17 -2 -29 -10 -28 -16 2 -7 -28 -38 -66 -70 l-68 -58
6 53 c9 72 21 134 61 319 45 206 75 431 75 557 0 87 -4 111 -22 146 -52 102
-68 182 -68 344 l0 152 -43 26 c-24 14 -51 25 -59 25 -22 0 -25 13 -39 137
-14 127 -19 142 -106 291 l-65 113 21 52 c31 78 51 174 51 252 l1 70 54 43
c30 23 57 42 60 42 23 0 162 206 200 297 12 29 24 -27 32 -142z m1101 124 c57
-19 81 -39 48 -39 -7 0 -46 -14 -86 -30 -70 -29 -77 -30 -132 -19 -74 15 -78
36 -10 62 26 10 58 25 72 32 33 19 35 19 108 -6z m-4818 -44 l-22 -35 94 -2
c51 -1 104 -1 118 -1 32 1 -159 -90 -260 -124 -41 -14 -97 -26 -125 -26 -53
-1 -135 18 -135 32 0 5 18 21 41 37 22 15 57 43 77 61 22 20 67 43 121 62 114
39 117 39 91 -4z m588 -33 c6 -9 12 -19 12 -23 0 -3 -27 -21 -61 -39 l-61 -32
-95 12 -95 13 35 35 c19 19 46 36 58 37 13 1 33 3 44 4 l20 2 -20 9 c-12 6 12
7 65 3 60 -4 89 -10 98 -21z m4369 5 c15 -13 55 -40 88 -61 191 -122 294 -193
294 -204 1 -7 -25 -24 -56 -38 l-56 -25 -46 25 c-25 13 -66 35 -91 47 -113 55
-141 70 -196 105 -51 33 -56 38 -39 46 16 6 14 7 -7 3 -19 -4 -35 2 -56 20
-17 14 -35 25 -41 25 -6 0 -11 5 -11 10 0 6 6 10 14 10 8 0 43 13 78 30 76 36
88 37 125 7z m183 -10 c47 -13 141 -37 210 -53 111 -26 134 -35 210 -84 l85
-55 -146 -3 -146 -3 -119 80 c-238 159 -237 157 -94 118z m-4883 -40 c-20 -18
-37 -35 -37 -39 0 -3 20 -9 45 -13 25 -3 63 -12 83 -19 l37 -13 -35 -18 c-18
-10 -63 -26 -98 -36 -36 -10 -72 -25 -81 -32 -9 -8 -32 -20 -52 -27 -33 -12
-47 -10 -138 15 -55 15 -99 30 -97 34 8 12 379 180 400 181 5 0 -7 -15 -27
-33z m4535 -75 c57 -39 96 -72 93 -79 -3 -8 5 -13 20 -13 13 0 27 -5 31 -11 7
-11 -62 -6 -109 7 -18 6 -18 4 -1 -28 9 -18 28 -50 41 -71 13 -21 23 -48 21
-59 -3 -19 -7 -18 -53 15 -27 20 -108 77 -180 127 -186 130 -182 126 -169 147
14 23 105 43 164 36 34 -4 68 -21 142 -71z m-262 -61 c30 -19 137 -95 238
-170 123 -92 182 -142 182 -154 0 -11 -14 -37 -32 -59 -26 -33 -36 -39 -60
-36 -15 3 -28 1 -28 -4 0 -27 -39 6 -131 110 -57 64 -146 161 -198 214 l-95
98 24 25 c12 13 28 21 34 18 6 -4 36 -22 66 -42z m-3920 -30 c33 -26 19 -41
-89 -92 -175 -83 -359 -220 -474 -351 -44 -51 -111 -127 -148 -169 -58 -64
-80 -102 -154 -257 -47 -100 -90 -204 -95 -230 -5 -27 -18 -82 -28 -123 -11
-41 -25 -110 -32 -154 -25 -170 -42 -272 -56 -333 -8 -34 -12 -66 -9 -71 3 -5
1 -12 -5 -16 -5 -3 -10 -13 -10 -21 0 -8 5 -12 10 -9 6 3 10 1 10 -4 0 -6 -4
-11 -10 -11 -5 0 -13 -12 -16 -27 -4 -16 -11 -33 -16 -40 -5 -7 -7 -21 -4 -31
4 -11 2 -32 -4 -47 -7 -19 -7 -32 -1 -38 7 -7 10 -3 10 9 1 49 10 102 22 129
12 29 13 27 20 -50 4 -44 13 -181 18 -305 9 -196 8 -267 -10 -550 l-21 -325
-93 -297 c-72 -228 -109 -328 -161 -435 -37 -76 -93 -194 -126 -262 -52 -110
-397 -676 -406 -666 -2 2 25 63 61 137 35 73 73 156 85 183 11 28 52 115 90
195 92 193 168 367 202 465 16 44 37 104 48 133 11 29 21 56 22 60 2 4 6 17
11 29 12 33 47 191 54 248 3 28 13 82 20 122 16 78 30 174 40 268 3 33 15 116
26 184 11 68 18 126 16 128 -9 8 -49 -174 -131 -587 -32 -158 -70 -317 -90
-375 -38 -109 -40 -108 -26 5 6 41 13 98 16 125 6 63 23 207 29 260 3 22 6 68
6 103 0 34 4 62 8 62 5 0 6 11 3 25 -2 15 0 25 7 25 6 0 11 5 11 11 0 5 -4 7
-10 4 -5 -3 -10 -1 -10 4 0 6 4 11 9 11 4 0 7 10 7 23 -1 12 2 28 7 35 5 7 7
36 4 65 -7 52 7 201 23 267 12 47 24 148 22 185 -2 25 48 302 64 358 3 10 0
17 -9 17 -12 0 -28 -53 -28 -95 0 -2 -5 -19 -11 -37 -5 -18 -11 -44 -12 -58
-7 -66 -94 -394 -126 -473 -108 -268 -140 -339 -140 -317 0 14 14 131 30 260
16 129 35 280 41 335 16 141 63 380 101 512 33 113 48 139 48 83 0 -17 8 -47
17 -68 14 -33 17 -34 20 -14 3 12 9 22 14 22 5 0 9 7 9 15 0 8 4 23 10 33 29
54 119 273 124 305 4 21 10 36 14 33 4 -2 8 14 9 37 1 23 10 86 21 139 25 118
131 365 250 578 45 79 79 146 77 148 -2 2 -18 -7 -37 -19 -26 -17 -49 -55
-114 -188 -177 -367 -188 -394 -244 -616 -39 -152 -65 -235 -97 -300 l-43 -90
5 87 c7 141 143 663 211 813 10 22 19 45 19 52 0 12 169 209 298 347 31 35 57
69 57 76 0 7 8 22 17 32 16 18 16 18 -3 11 -21 -9 -100 -92 -126 -133 -9 -14
-81 -95 -160 -180 -79 -85 -173 -195 -208 -244 -41 -56 -66 -84 -68 -73 -2 8
37 96 87 194 l90 179 188 185 c196 192 340 304 488 377 122 61 157 70 289 71
104 0 125 -2 146 -18z m4510 -93 c43 -25 52 -52 23 -73 -14 -10 -8 -16 48 -45
67 -34 68 -32 7 32 -10 10 -18 25 -18 34 0 15 3 14 28 -1 15 -10 43 -31 63
-47 20 -15 41 -28 46 -28 5 0 31 -14 57 -30 32 -21 46 -36 42 -45 -3 -8 -1
-15 4 -15 14 0 60 -72 60 -95 0 -11 16 -40 35 -64 33 -42 39 -55 36 -75 -1 -5
7 -18 18 -30 19 -20 64 -133 75 -186 8 -41 25 -93 40 -125 8 -16 61 -151 118
-300 79 -208 109 -300 129 -399 29 -146 26 -146 -56 16 -31 59 -66 119 -78
135 -13 15 -45 69 -72 118 -63 117 -95 166 -106 159 -8 -5 26 -74 181 -359
115 -212 153 -330 224 -695 47 -238 113 -716 102 -727 -2 -2 -29 68 -61 154
-31 87 -75 192 -98 233 -40 74 -40 77 -47 210 -4 74 -8 108 -8 76 -1 -33 -4
-57 -7 -55 -2 3 -13 97 -24 209 -29 292 -30 298 -45 278 -9 -13 -6 -75 15
-295 15 -153 30 -314 33 -358 29 -427 36 -560 35 -685 -1 -117 -3 -137 -11
-105 -5 22 -23 87 -39 143 -52 186 -55 210 -134 1107 -3 33 -6 104 -7 158 -1
97 -12 134 -23 80 -3 -15 -10 -44 -14 -63 -4 -20 3 -183 15 -370 13 -184 25
-380 28 -435 3 -55 17 -215 31 -355 15 -140 27 -302 26 -360 0 -58 9 -172 21
-255 19 -140 24 -158 75 -270 30 -66 66 -149 80 -185 35 -90 149 -371 183
-450 33 -76 92 -242 87 -246 -8 -8 -210 327 -298 495 -71 136 -117 240 -164
372 -78 219 -79 225 -110 684 -8 121 -22 326 -30 456 -9 130 -18 278 -20 330
-2 52 -15 294 -29 539 l-24 445 -47 205 c-26 113 -58 240 -71 283 -13 43 -22
83 -18 88 3 5 1 9 -4 9 -5 0 -12 8 -15 18 -27 87 -79 194 -162 333 -75 124
-119 186 -183 253 -85 89 -142 168 -142 194 0 24 149 9 200 -20z m-1785 -106
c-5 -13 -10 -11 -30 13 l-24 30 27 22 27 23 3 -36 c2 -20 1 -43 -3 -52z
m-2845 -3 c-19 -16 -64 -55 -99 -87 -36 -31 -62 -49 -59 -40 4 9 2 19 -5 21
-18 7 78 96 110 102 16 3 39 12 53 20 38 20 38 17 0 -16z m4043 -63 c177 -117
242 -174 233 -204 -4 -12 -11 -22 -16 -22 -4 0 -20 -20 -34 -44 -29 -49 -75
-69 -83 -36 -3 10 -11 21 -18 23 -9 4 -186 286 -232 370 -9 16 13 3 150 -87z
m-1236 47 c29 -37 30 -39 18 -95 -6 -32 -14 -60 -17 -63 -3 -3 -20 29 -38 70
-42 95 -58 80 -19 -18 35 -89 36 -115 4 -177 -14 -27 -25 -56 -25 -65 0 -9 -7
-18 -15 -21 -8 -4 -15 -10 -15 -14 0 -5 -5 -21 -11 -37 -7 -15 -13 -39 -15
-53 -2 -14 -8 -26 -14 -28 -14 -5 -13 -45 4 -111 47 -185 48 -189 41 -273 l-7
-84 45 -97 45 -96 -121 -115 c-203 -190 -259 -229 -529 -363 -71 -34 -153 -79
-183 -99 -49 -33 -57 -35 -82 -25 -16 7 -62 55 -103 107 -62 79 -78 107 -93
164 -11 39 -23 70 -29 70 -5 0 -7 -8 -4 -17 3 -10 10 -46 15 -79 12 -80 61
-166 115 -203 43 -30 92 -79 85 -84 -2 -2 -35 -26 -74 -52 -38 -27 -97 -72
-130 -101 -33 -28 -69 -59 -80 -68 -11 -9 -67 -62 -125 -116 -119 -114 -109
-115 -135 21 -56 298 -56 488 2 679 75 246 92 307 104 368 6 34 15 65 20 67
17 11 397 103 449 110 87 10 115 23 258 110 121 76 139 91 204 171 106 131
152 220 167 324 19 127 70 215 163 280 39 28 76 50 83 50 6 0 25 -17 42 -37z
m1713 -112 c14 -27 12 -61 -8 -161 -16 -79 -23 -92 -81 -168 -50 -65 -79 -92
-138 -128 -42 -25 -78 -43 -81 -40 -3 3 -11 -3 -19 -14 -9 -12 -25 -20 -41
-19 l-27 1 25 8 c22 7 22 8 4 9 -11 1 -24 -2 -28 -6 -3 -4 -14 -8 -22 -9 -9
-1 -47 -8 -85 -15 -53 -9 -75 -10 -95 0 -14 6 -30 9 -35 5 -16 -10 -156 18
-188 37 -43 26 -41 62 4 104 29 26 58 38 143 59 59 15 134 36 167 46 44 13 79
17 130 14 l70 -5 40 63 c48 75 81 108 109 108 24 1 94 63 115 103 17 32 27 34
41 8z m-4768 -75 c-13 -81 -13 -88 8 -143 11 -32 38 -83 58 -113 20 -30 42
-64 48 -75 11 -21 87 -69 164 -105 25 -11 53 -25 64 -31 13 -8 16 -7 11 1 -5
9 15 10 76 7 46 -3 89 -6 94 -7 6 -1 55 2 110 6 131 10 191 37 310 141 50 43
121 102 159 132 l68 53 -7 -73 c-6 -69 -9 -76 -43 -107 -79 -69 -330 -222
-366 -222 -24 0 -20 19 7 30 20 8 20 9 2 9 -11 0 -33 -6 -50 -14 -19 -10 -22
-13 -7 -9 24 6 30 -7 10 -24 -7 -5 -40 -15 -73 -22 -33 -7 -65 -15 -72 -17 -7
-3 -13 -1 -13 5 0 5 14 12 32 16 17 3 29 9 26 12 -3 3 -25 0 -48 -6 -37 -10
-54 -8 -148 20 -98 29 -168 61 -183 82 -3 5 -12 6 -20 3 -18 -7 -89 21 -89 35
0 6 -19 29 -41 52 -23 24 -48 59 -56 78 -9 19 -24 55 -35 79 -21 48 -37 137
-38 212 0 37 5 50 23 62 12 9 24 16 28 16 3 1 -1 -37 -9 -83z m4894 -66 c-2
-19 -28 -78 -57 -130 -80 -144 -272 -332 -370 -361 -125 -37 -189 -50 -252
-51 -64 -1 -87 4 -211 50 -122 45 -234 71 -274 63 -19 -3 -61 100 -82 203 -11
50 -18 91 -17 93 2 1 45 -40 96 -92 51 -52 96 -95 100 -95 3 0 24 -17 46 -37
45 -40 100 -68 160 -79 51 -9 295 -11 301 -2 2 4 17 6 32 6 42 -1 69 10 180
75 126 74 184 136 214 229 32 100 47 170 48 218 l1 45 45 -50 c39 -43 44 -55
40 -85z m-4981 -13 c-3 -17 -1 -26 5 -22 6 3 10 -1 10 -10 0 -9 -4 -14 -9 -11
-4 3 -6 -6 -3 -19 3 -19 0 -25 -13 -25 -9 0 -37 -16 -61 -36 -24 -20 -44 -35
-44 -33 0 18 75 208 88 222 16 18 17 17 25 -10 4 -15 5 -41 2 -56z m165 -12
c14 -19 68 -64 120 -100 52 -36 114 -79 137 -97 l42 -31 61 13 c52 11 63 11
78 -2 38 -34 86 -42 174 -31 46 6 88 8 93 3 6 -4 19 -10 30 -12 17 -3 16 -7
-15 -30 -52 -39 -155 -51 -334 -37 -134 10 -145 12 -228 51 -49 23 -88 46 -88
51 0 6 -11 24 -24 41 -30 40 -59 96 -53 103 3 2 -1 19 -8 36 -34 84 -28 101
15 42z m-295 -89 c-19 -53 -35 -101 -35 -106 0 -21 25 -8 91 46 70 57 92 62
107 27 4 -10 19 -38 34 -63 15 -25 34 -67 43 -93 l16 -48 -58 -71 c-106 -128
-95 -119 -89 -73 3 22 8 67 12 100 3 33 13 73 21 89 9 18 10 26 3 21 -9 -6
-11 6 -9 43 2 28 1 52 -3 52 -5 0 -8 -3 -7 -6 0 -3 -21 -29 -48 -57 -26 -29
-88 -105 -137 -170 -49 -64 -91 -115 -93 -113 -2 2 5 39 16 82 10 44 29 134
41 201 22 118 24 123 72 183 28 34 52 60 54 58 2 -3 -12 -48 -31 -102z m1939
71 c7 -19 25 -43 40 -54 30 -24 33 -33 9 -33 -10 0 -37 -9 -60 -20 l-42 -19 5
47 c6 49 23 112 30 112 2 0 10 -15 18 -33z m1401 -103 c41 -75 48 -98 61 -192
22 -159 34 -194 72 -206 60 -21 59 -27 -8 -123 -65 -92 -166 -206 -187 -211
-7 -2 -18 9 -25 25 -6 15 -22 52 -36 81 -22 48 -24 61 -19 134 4 53 2 103 -7
147 -47 221 -46 234 25 387 l41 89 18 -23 c10 -12 40 -61 65 -108z m1897 -5
c37 -68 66 -128 64 -134 -1 -5 3 -16 11 -23 15 -15 17 -32 5 -32 -15 0 -38 34
-56 82 -18 48 -54 80 -42 36 53 -188 59 -227 50 -325 l-9 -98 -27 47 c-16 26
-28 56 -28 67 0 11 -6 24 -13 28 -6 4 -25 25 -40 46 -27 36 -57 49 -57 25 0
-27 -33 -97 -43 -91 -7 4 -8 0 -4 -11 9 -22 -2 -43 -13 -26 -5 8 -9 5 -13 -9
-3 -12 -1 -19 4 -15 5 3 9 0 9 -5 0 -6 -4 -11 -10 -11 -5 0 -10 -10 -10 -22
-1 -52 -16 -49 -58 9 -49 69 -78 103 -86 103 -3 0 -6 -15 -6 -32 0 -18 -13
-73 -28 -121 l-28 -89 -49 74 c-26 40 -50 67 -53 60 -2 -6 17 -56 42 -110 25
-53 47 -110 49 -127 3 -25 -55 -280 -67 -292 -2 -2 -25 46 -52 107 -26 61 -52
109 -58 107 -17 -6 -6 -86 19 -152 13 -33 24 -53 24 -45 1 8 16 -16 35 -55 24
-51 34 -88 38 -137 2 -41 0 -64 -6 -61 -6 4 -6 -1 -2 -13 11 -28 28 -205 24
-258 l-3 -47 -50 84 c-50 82 -51 87 -69 223 -10 76 -27 193 -37 259 -11 66
-22 137 -25 158 -3 20 -11 37 -17 37 -7 0 -19 12 -28 28 -11 19 -29 31 -62 39
-37 10 -50 19 -62 45 -8 18 -13 25 -11 16 3 -10 1 -20 -5 -24 -21 -13 -57 7
-88 51 -18 25 -38 45 -45 45 -16 0 -200 244 -187 248 5 2 36 -4 68 -13 32 -9
84 -22 116 -30 71 -16 91 -31 54 -41 -15 -3 -45 -4 -67 -2 -23 2 -36 0 -31 -5
14 -14 97 -12 221 7 174 26 250 48 332 98 62 38 77 43 104 36 17 -4 36 -19 44
-32 24 -45 35 -37 75 50 20 46 41 84 46 84 4 0 19 -4 33 -10 25 -9 25 -9 24
48 -1 31 3 66 10 77 12 20 12 20 18 -2 3 -12 13 -24 21 -27 12 -5 14 0 11 26
-3 18 3 61 13 96 17 59 17 63 1 60 -12 -2 -20 -19 -26 -53 -5 -28 -10 -51 -11
-53 -4 -5 -35 10 -35 18 0 21 64 140 73 137 6 -2 42 -59 79 -128z m-172 -85
c-11 -20 -20 -41 -20 -49 0 -16 -25 -26 -45 -19 -21 8 -20 9 26 64 47 55 71
57 39 4z m-5240 -205 c-17 -90 -33 -171 -36 -179 -4 -8 -30 -82 -59 -165 -29
-82 -70 -186 -90 -230 -20 -44 -41 -91 -46 -104 -5 -13 -12 -22 -14 -19 -7 6
33 230 57 323 11 44 20 96 19 115 0 25 26 90 96 232 53 109 98 196 100 195 1
-2 -11 -77 -27 -168z m277 142 c1 -11 -5 -22 -14 -25 -11 -5 -13 -14 -8 -33 4
-17 2 -29 -7 -34 -8 -6 -9 -9 -1 -9 16 0 8 -161 -12 -230 -9 -30 -23 -86 -31
-125 -16 -76 -145 -465 -154 -465 -10 0 -71 445 -67 495 2 28 15 75 29 105 24
52 44 79 129 175 19 22 48 58 64 80 25 35 66 85 70 85 0 0 1 -9 2 -19z m4878
-31 c3 -5 -8 -34 -26 -64 -26 -48 -33 -54 -49 -46 -33 18 -32 29 4 64 20 18
36 38 36 45 0 13 26 15 35 1z m-4702 -146 l-6 -96 26 17 27 17 -6 -33 c-4 -19
-12 -48 -19 -64 -7 -17 -36 -107 -64 -200 -45 -146 -148 -402 -157 -392 -7 7
-13 135 -14 312 -1 182 0 193 24 250 14 33 26 70 26 81 0 12 35 60 81 113 45
50 83 91 85 91 1 0 0 -43 -3 -96z m5066 72 c44 -53 137 -481 151 -701 12 -177
12 -218 1 -211 -5 3 -37 47 -71 97 -61 90 -64 96 -107 267 -24 97 -47 180 -50
185 -11 19 -33 -24 -22 -44 20 -38 59 -264 59 -343 0 -86 -20 -276 -29 -276
-4 0 -31 66 -61 147 -93 248 -200 453 -236 453 -9 0 -14 -3 -12 -7 2 -5 17
-35 34 -68 l31 -60 -18 -183 c-10 -100 -21 -188 -25 -194 -10 -16 -69 143
-114 310 -37 134 -39 147 -30 220 10 89 29 173 42 187 5 6 34 -16 74 -58 36
-37 69 -67 73 -67 5 0 23 55 40 123 18 67 36 127 40 134 4 7 28 -26 59 -81 50
-88 86 -135 97 -124 3 2 10 27 15 54 23 108 30 171 24 212 -5 33 -3 42 9 42 8
0 20 -6 26 -14z m-5915 -42 c-9 -21 -19 -34 -21 -27 -5 13 26 78 33 70 2 -2
-3 -21 -12 -43z m931 24 c32 -15 32 -21 -6 -52 -36 -31 -48 -27 -42 11 10 59
10 59 48 41z m138 -59 c20 -5 37 -13 37 -17 0 -8 -68 -75 -86 -85 -8 -5 -12
12 -13 53 -1 66 0 67 62 49z m-1097 -36 c-10 -10 -19 5 -10 18 6 11 8 11 12 0
2 -7 1 -15 -2 -18z m1264 -4 c13 -9 12 -10 -2 -5 -10 3 -18 2 -18 -3 0 -4 49
-7 110 -6 101 1 109 0 97 -16 -6 -9 -30 -40 -52 -68 l-40 -52 -36 38 -36 39
-53 -48 c-30 -26 -55 -46 -58 -44 -3 4 36 154 45 169 6 10 25 9 43 -4z m-260
-42 c0 -5 -4 -5 -10 -2 -5 3 -10 14 -10 23 0 15 2 15 10 2 5 -8 10 -19 10 -23z
m127 -5 c-10 -10 -17 -22 -17 -26 0 -4 11 6 24 21 30 35 40 26 27 -24 -5 -21
-17 -67 -26 -102 -13 -51 -31 -83 -84 -151 -37 -48 -83 -122 -102 -164 -19
-42 -36 -76 -39 -76 -7 0 -4 32 20 225 11 83 22 179 26 215 3 36 10 69 15 75
6 5 9 2 9 -8 0 -9 5 -17 10 -17 6 0 10 -14 10 -32 0 -29 1 -30 18 -15 10 10
26 17 34 17 9 0 21 7 28 15 7 8 9 15 4 15 -4 0 3 11 16 25 27 28 52 35 27 7z
m-47 -36 c0 -3 -4 -8 -10 -11 -5 -3 -10 -1 -10 4 0 6 5 11 10 11 6 0 10 -2 10
-4z m3068 -123 c1 -51 -3 -92 -9 -100 -8 -9 -8 -13 0 -13 6 0 11 -13 11 -28 0
-30 47 -177 72 -227 9 -17 18 -63 20 -103 l5 -73 -47 -72 c-54 -81 -413 -527
-435 -539 -20 -12 -394 -99 -437 -103 -61 -4 -212 -109 -305 -211 -43 -47 -90
-105 -105 -129 -21 -33 -45 -52 -110 -87 -46 -24 -130 -78 -188 -119 -58 -41
-114 -81 -126 -89 -159 -111 -303 -249 -305 -293 0 -12 -9 -35 -19 -52 -53
-83 -110 -209 -130 -290 -13 -49 -26 -94 -30 -98 -4 -5 -10 10 -14 33 -5 31 2
67 29 157 36 119 87 223 160 328 49 70 96 160 195 375 84 182 82 180 360 420
24 21 23 21 -19 -2 -24 -13 -104 -80 -176 -150 -128 -124 -133 -129 -175 -225
-80 -183 -173 -373 -182 -373 -12 0 -28 46 -28 84 0 18 -11 66 -25 107 -23 67
-24 79 -14 129 7 33 28 81 53 120 24 36 55 86 69 112 15 26 43 63 62 84 19 20
35 40 35 43 0 3 71 76 158 162 251 249 522 444 822 591 96 47 196 103 222 125
292 237 433 368 498 459 53 74 99 134 104 134 1 0 3 -39 4 -87z m-2844 58 c15
-16 16 -25 7 -53 -13 -37 -79 -428 -111 -652 -18 -121 -26 -156 -48 -188 -34
-51 -41 -35 -31 67 4 44 10 136 14 205 12 264 12 268 92 523 20 64 42 117 48
117 7 0 20 -9 29 -19z m151 -33 c-2 -13 -28 -180 -56 -373 l-51 -350 -49 -50
c-26 -27 -51 -47 -53 -44 -7 7 28 282 38 297 4 7 18 65 32 130 47 227 81 350
105 381 29 36 41 39 34 9z m-1086 -204 c1 -23 -6 -55 -14 -70 -8 -16 -15 -51
-15 -79 -1 -27 -7 -88 -15 -135 -18 -111 -52 -485 -65 -725 -15 -274 -18 -329
-45 -745 -14 -206 -25 -426 -25 -489 0 -111 -1 -116 -34 -177 -19 -34 -50
-119 -70 -189 -32 -117 -46 -147 -181 -391 -147 -265 -215 -383 -215 -372 0
10 38 258 71 458 17 107 34 211 36 230 3 19 14 55 25 80 18 39 22 42 28 25 6
-16 9 -12 15 20 3 22 26 81 50 130 24 50 51 117 59 150 15 59 138 431 156 470
5 11 12 70 15 130 4 61 9 130 11 155 12 122 20 908 11 1040 l-10 146 35 49
c49 69 139 261 132 280 -4 9 2 35 12 57 17 39 19 40 25 17 4 -13 7 -43 8 -65z
m1272 -91 l12 -122 -62 -103 -61 -103 0 53 c0 30 18 127 40 217 22 90 40 171
40 181 0 11 3 14 9 9 5 -6 15 -65 22 -132z m770 39 c-29 -92 -33 -99 -65 -84
-31 14 -33 42 -8 89 19 36 85 89 90 73 2 -6 -6 -41 -17 -78z m-1793 -46 c-5
-39 -13 -75 -18 -80 -6 -6 -10 -36 -10 -67 0 -31 -13 -200 -30 -375 -27 -294
-47 -747 -51 -1174 l-1 -115 -145 -320 -144 -320 5 100 c3 55 9 168 12 250 4
83 8 159 9 170 1 11 3 54 5 95 1 41 4 69 7 62 2 -6 9 -10 13 -7 5 3 3 22 -4
43 -9 26 -11 60 -5 117 4 44 10 161 13 260 4 99 9 212 11 250 3 39 10 151 15
250 12 199 24 337 45 495 7 58 17 153 20 213 4 59 11 110 16 113 5 3 9 -1 10
-8 0 -7 3 -22 6 -33 2 -11 5 -28 6 -37 1 -10 4 -18 8 -18 4 0 17 -38 30 -85
23 -88 43 -109 55 -57 3 15 28 92 54 172 26 80 51 161 55 180 13 60 22 6 13
-74z m4265 42 c15 -27 37 -100 57 -192 17 -82 36 -159 40 -171 5 -12 15 -46
24 -75 l16 -54 -40 39 c-45 44 -74 111 -91 212 -6 37 -17 97 -24 133 -23 106
-28 150 -17 150 6 0 21 -19 35 -42z m202 -143 c48 -124 100 -327 90 -352 -3
-8 -2 -20 2 -26 11 -17 16 -97 6 -96 -4 0 -31 31 -59 68 -61 81 -90 162 -102
281 -10 95 -4 266 9 253 4 -4 29 -62 54 -128z m634 -83 c40 -90 55 -145 25
-89 -16 30 -41 38 -29 10 28 -69 46 -131 51 -176 2 -29 9 -99 14 -157 33 -385
54 -533 126 -911 15 -78 13 -125 -5 -139 -4 -3 -17 -60 -31 -128 -13 -68 -27
-125 -32 -128 -4 -3 -8 -4 -8 -2 -1 2 -7 75 -15 163 -13 153 -16 165 -60 275
-26 63 -53 122 -60 130 -38 44 -45 88 -45 292 0 172 -3 214 -24 311 -64 301
-65 306 -36 345 21 29 33 81 50 219 6 48 14 99 17 113 7 25 7 25 14 -5 4 -16
26 -72 48 -123z m-4699 -383 l19 -217 -23 -108 c-17 -83 -41 -148 -96 -269
-40 -88 -76 -164 -81 -170 -5 -5 -9 14 -9 45 0 30 -3 136 -6 235 -11 316 26
885 57 885 5 0 9 -10 9 -22 0 -31 11 -16 57 72 l38 75 8 -155 c4 -85 16 -252
27 -371z m-789 464 c-12 -20 -14 -14 -5 12 4 9 9 14 11 11 3 -2 0 -13 -6 -23z
m5171 -65 c9 -19 33 -91 53 -159 20 -68 39 -131 42 -139 3 -8 7 -22 8 -30 10
-79 35 -151 48 -143 6 4 8 0 4 -10 -3 -10 -3 -17 1 -17 13 0 42 -160 43 -235
0 -38 3 -64 6 -57 10 26 18 2 14 -48 -2 -35 -6 -48 -12 -39 -7 12 -9 11 -9 -1
0 -9 5 -21 12 -28 8 -8 9 -12 1 -12 -6 0 -9 -9 -6 -20 3 -11 3 -20 0 -20 -4 0
-15 30 -27 66 -14 45 -44 101 -96 176 -64 93 -75 115 -70 139 3 16 2 29 -2 29
-4 0 -8 24 -10 53 -1 28 -9 110 -17 181 -27 234 -30 266 -27 324 2 42 21 38
44 -10z m-4716 -1325 c-41 -121 -91 -251 -110 -289 l-36 -69 5 185 c3 102 8
226 12 275 4 50 6 96 4 103 -1 8 3 20 10 28 8 10 8 14 0 14 -14 0 -15 150 -1
321 5 68 16 237 25 374 21 348 26 404 36 380 4 -11 8 -45 9 -75 1 -30 5 -63 9
-73 6 -17 8 -16 19 7 6 14 16 26 21 26 5 0 12 12 16 28 4 15 16 50 28 77 l22
50 3 -571 2 -570 -74 -221z m5342 1184 c39 -56 51 -81 43 -87 -9 -5 -10 -17
-2 -46 5 -21 13 -66 17 -99 10 -85 9 -84 16 -91 4 -3 4 -20 1 -38 -3 -18 0
-57 6 -87 6 -30 13 -76 16 -104 16 -163 35 -394 40 -480 20 -394 44 -755 50
-765 12 -19 6 -240 -7 -263 -6 -12 -13 -27 -14 -33 -1 -7 -17 -62 -34 -123
-31 -105 -50 -132 -50 -73 0 15 -7 65 -16 112 -39 218 -56 323 -89 560 -20
140 -33 266 -30 278 4 17 2 22 -6 16 -9 -5 -10 2 -5 27 4 22 -3 70 -18 134
-60 248 -95 459 -101 610 -11 284 -17 400 -22 408 -2 4 -2 7 1 7 3 0 14 -17
24 -37 l19 -37 16 25 c9 13 23 77 32 144 8 66 18 133 22 149 l5 30 16 -30 c8
-16 40 -64 70 -107z m82 -154 c0 -44 -5 -41 -14 10 -5 27 -4 37 3 32 6 -3 11
-22 11 -42z m-3800 -218 c10 -71 22 -152 25 -180 4 -27 13 -74 21 -103 11 -38
12 -57 4 -72 -17 -32 -27 -24 -41 32 -11 50 -61 175 -128 321 -17 38 -34 93
-37 123 l-7 54 34 1 c19 0 50 6 69 12 l35 12 3 -35 c1 -19 11 -93 22 -165z
m3797 153 c-3 -8 -6 -5 -6 6 -1 11 2 17 5 13 3 -3 4 -12 1 -19z m-2182 -403
c-13 -67 -38 -184 -55 -261 -34 -158 -55 -285 -65 -394 -3 -41 -22 -203 -41
-360 -44 -360 -71 -682 -84 -975 -15 -345 -9 -314 -124 -632 -90 -250 -110
-319 -156 -528 -42 -194 -54 -266 -59 -375 -7 -145 -7 -144 90 -569 l22 -94
-23 -66 c-13 -36 -44 -111 -71 -166 -26 -55 -55 -126 -65 -158 -15 -47 -21
-57 -40 -57 -29 0 -61 45 -79 112 -29 107 -63 243 -64 258 0 8 -16 83 -36 165
-19 83 -39 186 -45 230 -16 124 -13 360 6 430 8 33 17 77 20 97 5 37 58 220
70 239 9 14 34 178 29 192 -2 7 -6 86 -9 177 -8 213 -18 293 -56 470 -29 131
-32 154 -25 240 10 131 12 144 14 150 1 3 4 63 7 134 4 142 16 200 42 216 14
10 13 11 -7 6 l-24 -5 7 287 c22 808 21 844 -14 962 -10 34 -9 36 47 87 56 52
160 105 228 116 42 7 156 33 250 57 44 11 99 20 122 20 40 0 46 4 120 85 76
84 78 85 85 59 4 -17 -2 -75 -17 -149z m-2064 -201 c-12 -64 -18 -75 -31 -54
-5 9 -3 27 7 49 8 20 18 44 20 54 12 38 14 6 4 -49z m358 -38 c8 -10 8 -16 -3
-25 -7 -6 -35 -59 -62 -117 -26 -58 -50 -101 -52 -95 -8 24 40 211 61 239 13
16 42 15 56 -2z m840 -58 c-1 -18 6 -94 16 -168 13 -106 15 -175 10 -320 -3
-102 -8 -329 -11 -505 -3 -179 -9 -338 -15 -360 -13 -48 -108 -169 -149 -190
-16 -8 -54 -15 -84 -15 l-55 0 -41 59 c-22 33 -40 64 -40 69 0 5 -9 21 -20 35
-11 14 -24 52 -29 88 -50 336 -62 436 -63 518 0 55 -4 87 -8 76 -5 -14 -8 -5
-8 28 0 47 -10 97 -39 206 l-14 53 33 33 c78 75 179 145 306 211 41 20 81 48
89 61 8 12 19 21 23 18 4 -3 10 8 13 23 5 23 70 112 83 112 2 0 4 -15 3 -32z
m-1225 -30 c-8 -39 -36 -88 -41 -71 -3 7 0 21 6 32 8 14 8 20 -1 23 -7 3 -5
12 8 26 26 31 35 27 28 -10z m-2078 -206 c-9 -92 -20 -238 -26 -325 -11 -154
-13 -161 -66 -308 -68 -188 -331 -819 -350 -839 -7 -8 -28 -32 -45 -53 -17
-21 -34 -36 -36 -33 -2 2 51 150 118 327 67 178 144 385 171 459 49 134 66
172 52 115 -9 -39 4 -27 16 14 5 19 5 29 -1 26 -13 -9 -11 9 7 55 9 22 21 40
26 40 6 0 8 7 5 15 -4 8 -1 17 5 21 7 4 7 8 0 13 -7 4 -7 16 2 36 28 64 38
102 41 152 4 67 33 223 46 246 6 10 12 40 14 65 4 65 28 181 33 159 2 -9 -3
-93 -12 -185z m6869 -242 c24 -91 69 -248 100 -350 61 -201 131 -453 165 -595
12 -49 33 -127 47 -173 14 -45 23 -85 21 -88 -10 -9 -336 550 -450 772 -83
159 -129 325 -127 453 l1 66 13 -45 c7 -25 25 -97 40 -161 22 -94 33 -123 60
-155 l33 -39 6 75 c16 203 17 300 4 298 -10 -2 -13 35 -15 177 l-1 180 30
-125 c16 -69 49 -199 73 -290z m-4862 335 c-26 -36 -36 -30 -18 11 8 20 15 39
15 43 0 3 5 -2 11 -11 7 -13 5 -24 -8 -43z m736 -420 c28 -158 48 -314 66
-520 9 -99 22 -227 29 -285 8 -58 12 -108 10 -112 -9 -14 -70 16 -115 56 -26
23 -74 61 -109 85 -67 48 -70 53 -129 216 -34 95 -40 125 -44 215 -6 134 7
213 45 268 35 51 209 205 219 194 4 -4 17 -56 28 -117z m4032 -585 c-3 -41 -9
-70 -14 -63 -8 12 -78 315 -76 330 0 4 22 -37 49 -92 47 -99 47 -101 41 -175z
m-144 -300 c83 -206 79 -185 53 -305 -13 -58 -26 -105 -29 -105 -4 0 -14 37
-24 83 -25 113 -117 600 -116 612 0 6 14 -26 31 -70 17 -44 55 -141 85 -215z
m-2521 -1286 c-46 -163 -49 -190 -36 -282 11 -71 43 -152 56 -140 2 3 -3 36
-11 73 -9 37 -15 88 -13 114 l3 46 29 -70 c28 -65 102 -170 159 -223 24 -23
25 -30 32 -185 6 -145 5 -174 -15 -272 -12 -61 -26 -114 -31 -120 -5 -5 -9
-36 -9 -69 l0 -61 -35 49 c-19 27 -37 57 -40 67 -3 10 8 59 25 110 30 91 36
153 19 209 -4 14 -10 46 -13 72 -5 48 -31 97 -52 98 -6 0 -24 7 -41 15 -16 8
-54 20 -84 25 -34 7 -63 20 -81 37 -25 24 -28 34 -28 89 0 100 19 215 45 269
13 28 38 84 55 125 18 41 45 88 61 103 16 15 29 33 29 39 0 6 2 9 5 6 3 -2
-10 -58 -29 -124z"/>
<path d="M1070 11610 c8 -5 22 -9 30 -9 10 0 8 3 -5 9 -27 12 -43 12 -25 0z"/>
<path d="M1110 11459 c0 -5 4 -8 9 -4 5 3 12 1 15 -4 6 -9 66 -33 66 -26 0 5
-70 45 -81 45 -5 0 -9 -5 -9 -11z"/>
<path d="M1940 11190 c8 -5 20 -10 25 -10 6 0 3 5 -5 10 -8 5 -19 10 -25 10
-5 0 -3 -5 5 -10z"/>
<path d="M2340 9910 c0 -5 9 -10 20 -10 11 0 20 5 20 10 0 6 -9 10 -20 10 -11
0 -20 -4 -20 -10z"/>
<path d="M2507 9906 c-3 -8 -16 -16 -29 -19 l-23 -4 23 -2 c18 -1 22 -7 22
-33 0 -22 15 -52 50 -100 51 -70 61 -90 35 -68 -27 23 -26 4 2 -21 14 -13 23
-17 19 -9 -6 13 27 -23 52 -55 103 -133 136 -171 112 -124 -7 11 -9 27 -6 34
2 7 -5 21 -16 32 -11 10 -32 38 -46 63 -15 25 -57 90 -94 144 -37 55 -67 101
-65 102 5 6 236 -75 280 -97 98 -50 301 -184 285 -187 -31 -6 -20 -16 57 -51
41 -18 75 -38 75 -43 0 -5 5 -6 10 -3 6 3 10 1 10 -4 0 -6 7 -11 16 -11 9 0
25 -9 35 -21 11 -12 23 -18 30 -13 9 5 10 2 6 -9 -5 -13 -1 -17 19 -17 13 0
27 -6 30 -14 3 -8 12 -12 20 -9 7 3 43 -16 79 -41 36 -25 65 -43 65 -40 0 25
-69 152 -159 295 -60 96 -108 175 -106 177 1 2 35 -18 75 -43 40 -25 73 -45
75 -43 2 2 5 12 7 22 2 15 -18 32 -95 78 -55 32 -103 56 -108 52 -5 -3 -9 -14
-9 -25 0 -26 95 -217 153 -306 26 -40 45 -73 43 -73 -2 0 -78 46 -167 102
-258 160 -596 348 -672 374 -83 28 -83 28 -90 10z"/>
<path d="M2395 9900 c4 -6 11 -8 16 -5 14 9 11 15 -7 15 -8 0 -12 -5 -9 -10z"/>
<path d="M3610 9320 c0 -5 10 -15 23 -21 22 -12 22 -12 3 10 -21 23 -26 26
-26 11z"/>
<path d="M2810 10836 c0 -16 48 -46 72 -46 13 0 -20 31 -54 51 -14 7 -18 6
-18 -5z"/>
<path d="M3780 9402 c0 -22 50 -102 72 -113 29 -16 50 -4 46 28 -2 14 -8 28
-14 30 -7 2 -10 -6 -7 -24 l4 -28 -28 32 c-15 18 -38 45 -50 60 -12 15 -22 22
-23 15z"/>
<path d="M6408 9469 c-49 -28 -88 -57 -88 -66 0 -11 14 -6 58 18 31 18 63 37
70 42 16 13 16 -4 -3 -72 -8 -30 -12 -58 -9 -63 3 -4 27 -8 54 -8 27 0 51 -4
55 -10 3 -5 -3 -45 -15 -89 -11 -44 -20 -82 -20 -85 0 -3 14 -6 30 -6 36 0 37
-10 10 -99 -11 -36 -18 -66 -16 -68 3 -4 106 173 106 182 0 3 -19 5 -43 5 -24
0 -46 3 -49 6 -4 3 2 36 13 72 28 98 28 97 -41 112 -33 7 -60 14 -60 15 0 1 8
26 18 56 26 75 34 109 25 109 -5 0 -47 -23 -95 -51z"/>
<path d="M6247 9938 c-14 -24 -46 -63 -71 -88 -28 -26 -46 -53 -46 -66 0 -37
17 -36 40 1 12 20 49 68 81 108 32 40 59 75 59 80 0 4 -9 7 -19 7 -12 0 -29
-16 -44 -42z"/>
<path d="M6090 9615 c0 -2 -14 -66 -31 -141 -16 -75 -28 -143 -25 -150 12 -31
25 -10 36 59 6 39 21 102 32 138 20 65 20 99 -2 99 -5 0 -10 -2 -10 -5z"/>
<path d="M3881 9954 c0 -11 3 -14 6 -6 3 7 2 16 -1 19 -3 4 -6 -2 -5 -13z"/>
<path d="M4069 9693 c-13 -16 -12 -17 4 -4 9 7 17 15 17 17 0 8 -8 3 -21 -13z"/>
<path d="M4135 9510 c-19 -8 -19 -9 2 -9 12 -1 25 4 28 9 7 12 -2 12 -30 0z"/>
<path d="M4898 9338 c-23 -19 -101 -138 -95 -145 4 -3 20 0 37 7 22 9 39 29
61 71 38 77 37 98 -3 67z"/>
<path d="M4652 9035 c-69 -156 -53 -171 32 -30 49 83 53 91 38 108 -8 9 -18
17 -21 17 -3 0 -25 -43 -49 -95z"/>
<path d="M4947 9116 c-10 -8 -13 -16 -7 -18 6 -2 2 -22 -12 -55 -12 -29 -19
-56 -15 -60 15 -14 49 36 62 91 14 60 8 69 -28 42z"/>
<path d="M4740 8935 c0 -59 19 -145 32 -145 6 0 8 12 4 31 -3 17 -6 60 -6 95
0 50 -3 64 -15 64 -11 0 -15 -12 -15 -45z"/>
<path d="M5249 8913 c21 -36 50 -63 77 -73 l29 -10 -28 21 c-15 12 -34 34 -43
50 -8 16 -21 29 -30 29 -11 0 -12 -4 -5 -17z"/>
<path d="M5524 8795 c-6 -14 30 -116 50 -143 7 -9 5 -16 -4 -22 -11 -7 -9 -16
12 -48 15 -22 30 -56 34 -77 3 -20 13 -39 21 -42 26 -10 30 -25 -53 235 -34
107 -48 129 -60 97z"/>
<path d="M4443 8566 c-93 -51 -124 -79 -57 -51 20 8 39 15 42 15 4 0 -24 -31
-62 -69 -37 -38 -64 -71 -59 -74 5 -3 61 46 125 109 63 63 112 116 109 118 -3
1 -48 -20 -98 -48z"/>
<path d="M5520 8510 c23 -32 67 -70 82 -70 6 0 -9 23 -32 50 -47 56 -87 72
-50 20z"/>
<path d="M4465 8452 c-27 -26 -70 -64 -94 -85 -37 -30 -41 -37 -23 -37 11 0
23 4 27 9 3 5 24 24 47 43 l43 33 -24 -40 c-36 -59 -47 -65 -128 -65 -60 0
-73 -3 -73 -16 0 -13 9 -14 58 -9 31 3 70 9 86 12 l29 5 -6 -48 c-3 -27 -3
-76 1 -109 l8 -60 32 94 32 94 -25 -23 c-35 -33 -33 -6 5 53 53 84 84 151 66
144 -12 -5 -14 -1 -9 23 3 17 4 30 2 30 -2 0 -26 -22 -54 -48z"/>
<path d="M5700 8398 c0 -12 55 -62 89 -83 25 -15 3 45 -27 71 -29 25 -62 32
-62 12z"/>
<path d="M5610 8382 c0 -4 28 -22 63 -40 34 -18 88 -53 120 -78 64 -51 82 -53
42 -5 -56 65 -225 158 -225 123z"/>
<path d="M4535 8310 c-26 -52 -35 -81 -34 -117 l1 -48 12 50 c7 28 27 78 44
112 35 69 36 73 22 73 -5 0 -26 -31 -45 -70z"/>
<path d="M5453 8373 c-8 -3 -9 -12 -3 -31 5 -15 14 -46 20 -69 18 -70 29 -49
14 25 -18 83 -17 80 -31 75z"/>
<path d="M4245 8185 c-27 -13 -66 -26 -84 -30 l-35 -7 17 26 c16 23 16 26 2
26 -16 0 -129 -100 -121 -107 2 -2 45 10 95 28 50 17 94 29 97 26 3 -3 -9 -32
-25 -66 -24 -47 -28 -61 -16 -61 9 0 27 28 45 67 17 38 43 80 57 95 31 33 32
33 -32 3z"/>
<path d="M5520 8201 c0 -5 10 -11 23 -13 14 -2 41 -28 72 -70 27 -37 51 -65
52 -64 2 2 -14 36 -34 77 -36 70 -40 74 -75 77 -21 2 -38 -1 -38 -7z"/>
<path d="M4287 7925 c-15 -14 -27 -30 -27 -35 0 -15 28 -12 33 3 3 6 3 -5 0
-27 -5 -33 -4 -38 13 -34 16 3 20 14 22 61 2 31 -1 57 -5 57 -5 0 -21 -11 -36
-25z"/>
<path d="M3497 8754 c-4 -4 -7 -14 -7 -23 0 -11 3 -12 11 -4 6 6 10 16 7 23
-2 6 -7 8 -11 4z"/>
<path d="M7740 9000 c0 -5 5 -10 11 -10 5 0 7 5 4 10 -3 6 -8 10 -11 10 -2 0
-4 -4 -4 -10z"/>
<path d="M7640 8945 c-29 -19 -57 -39 -60 -46 -4 -6 -11 -11 -16 -12 -17 -1
-114 -68 -114 -77 0 -13 17 -13 25 -1 8 14 118 76 128 73 5 -1 6 2 3 7 -6 10
52 61 70 61 5 0 18 7 28 15 41 31 -10 15 -64 -20z"/>
<path d="M7240 8868 c-61 -13 -74 -28 -24 -28 48 0 114 18 114 30 0 12 -30 11
-90 -2z"/>
<path d="M9110 8846 c0 -2 7 -7 16 -10 8 -3 12 -2 9 4 -6 10 -25 14 -25 6z"/>
<path d="M9174 8811 c7 -11 46 -35 46 -28 0 3 -12 12 -26 22 -15 9 -23 12 -20
6z"/>
<path d="M7397 8783 c-20 -14 -35 -28 -33 -31 7 -6 76 38 76 49 0 13 -1 12
-43 -18z"/>
<path d="M7055 8694 c-55 -35 -103 -68 -107 -72 -3 -4 0 -16 8 -27 15 -20 16
-20 37 7 12 15 65 57 117 93 127 88 82 88 -55 -1z"/>
<path d="M6792 8428 c-5 -7 -31 -55 -57 -107 -42 -85 -50 -121 -27 -121 9 0
93 172 107 218 7 24 -6 30 -23 10z"/>
<path d="M4475 9029 c-4 -6 -5 -12 -2 -15 2 -3 7 2 10 11 7 17 1 20 -8 4z"/>
<path d="M2390 8796 c0 -2 7 -6 15 -10 8 -3 15 -1 15 4 0 6 -7 10 -15 10 -8 0
-15 -2 -15 -4z"/>
<path d="M2458 8773 c7 -3 16 -2 19 1 4 3 -2 6 -13 5 -11 0 -14 -3 -6 -6z"/>
<path d="M2578 8653 c7 -3 16 -2 19 1 4 3 -2 6 -13 5 -11 0 -14 -3 -6 -6z"/>
<path d="M2658 8643 c7 -3 16 -2 19 1 4 3 -2 6 -13 5 -11 0 -14 -3 -6 -6z"/>
<path d="M2753 8643 c9 -2 23 -2 30 0 6 3 -1 5 -18 5 -16 0 -22 -2 -12 -5z"/>
<path d="M7730 8766 c0 -2 18 -6 39 -8 22 -2 37 0 35 4 -5 8 -74 11 -74 4z"/>
<path d="M5207 8545 c-20 -7 -48 -20 -62 -29 -32 -21 -34 -41 -2 -25 12 7 24
12 27 12 3 0 15 6 28 15 16 11 36 13 80 7 64 -8 65 -5 7 17 -34 14 -46 14 -78
3z"/>
<path d="M4764 8539 c-3 -5 -14 -9 -24 -9 -10 0 -22 -5 -26 -11 -4 -7 0 -9 14
-5 11 4 23 2 26 -3 4 -5 15 -8 26 -6 11 2 20 -1 20 -6 0 -6 5 -7 11 -4 5 4 19
-1 30 -11 23 -20 38 -12 19 11 -19 23 -89 55 -96 44z"/>
<path d="M5231 8432 c-36 -12 -50 -13 -78 -3 -40 15 -57 6 -29 -15 11 -8 42
-14 70 -14 39 0 58 6 81 25 34 28 21 30 -44 7z"/>
<path d="M4711 8426 c-19 -23 50 -39 116 -27 31 6 58 11 60 11 2 0 3 4 3 9 0
5 -22 7 -49 4 -27 -2 -65 0 -85 5 -26 8 -38 7 -45 -2z"/>
<path d="M4641 8404 c0 -11 3 -14 6 -6 3 7 2 16 -1 19 -3 4 -6 -2 -5 -13z"/>
<path d="M4963 8216 c6 -17 54 -19 60 -3 4 12 -3 15 -29 14 -19 -1 -33 -6 -31
-11z"/>
<path d="M5016 8165 c-13 -10 -32 -13 -58 -9 -46 8 -48 -4 -7 -33 26 -18 35
-20 53 -10 30 17 66 49 66 59 0 13 -33 9 -54 -7z"/>
<path d="M3315 8263 c4 -10 16 -46 26 -80 20 -64 24 -69 47 -54 11 6 6 23 -22
80 -20 39 -41 71 -47 71 -7 0 -8 -7 -4 -17z"/>
<path d="M3507 7990 c-5 -25 -15 -55 -23 -67 -18 -28 -4 -30 20 -4 12 14 16
32 14 67 l-3 49 -8 -45z"/>
<path d="M7368 8533 c7 -3 16 -2 19 1 4 3 -2 6 -13 5 -11 0 -14 -3 -6 -6z"/>
<path d="M7176 8462 c-3 -5 8 -6 25 -4 16 2 29 6 29 8 0 8 -49 4 -54 -4z"/>
<path d="M7125 8450 c-8 -13 5 -13 25 0 13 8 13 10 -2 10 -9 0 -20 -4 -23 -10z"/>
<path d="M223 7518 c-19 -24 -24 -38 -15 -38 5 0 14 11 20 25 13 27 10 32 -5
13z"/>
<path d="M2991 8335 c-62 -29 -72 -37 -61 -49 9 -12 6 -22 -17 -50 -28 -35
-33 -37 -80 -19 -8 3 -13 -4 -13 -21 0 -24 3 -25 38 -23 27 2 48 12 73 35 19
17 37 32 42 32 4 0 7 5 7 11 0 8 -6 7 -17 -2 -15 -13 -16 -11 -9 16 4 16 8 31
9 31 1 1 26 16 55 34 28 17 52 34 52 36 0 6 2 7 -79 -31z"/>
<path d="M2810 8016 c-31 -46 -37 -62 -20 -51 7 4 7 -3 0 -20 -14 -37 -13 -40
8 -22 10 10 22 14 27 10 4 -5 5 -3 1 4 -3 6 -2 14 4 18 5 3 10 23 10 44 0 20
5 42 12 49 9 9 9 12 0 12 -6 0 -25 -20 -42 -44z"/>
<path d="M7578 8193 c7 -3 16 -2 19 1 4 3 -2 6 -13 5 -11 0 -14 -3 -6 -6z"/>
<path d="M6166 7325 c10 -8 26 -14 34 -15 8 0 2 7 -14 15 -36 19 -45 19 -20 0z"/>
<path d="M6220 7300 c0 -5 7 -10 15 -10 8 0 15 5 15 10 0 6 -7 10 -15 10 -8 0
-15 -4 -15 -10z"/>
<path d="M981 7971 c-10 -7 -10 -10 -1 -16 6 -4 16 -3 22 3 13 13 -4 23 -21
13z"/>
<path d="M870 7715 c-8 -9 -8 -15 -2 -15 12 0 26 19 19 26 -2 2 -10 -2 -17
-11z"/>
<path d="M5237 8043 c-4 -3 -7 -11 -7 -17 0 -6 5 -5 12 2 6 6 9 14 7 17 -3 3
-9 2 -12 -2z"/>
<path d="M5165 7986 c-20 -19 -32 -37 -28 -39 5 -3 25 12 45 34 45 48 33 52
-17 5z"/>
<path d="M5120 7919 c0 -5 5 -7 10 -4 6 3 10 8 10 11 0 2 -4 4 -10 4 -5 0 -10
-5 -10 -11z"/>
<path d="M5059 7890 c-1 -8 -3 -20 -3 -27 -1 -6 -12 -24 -26 -39 -21 -22 -21
-25 -5 -16 31 16 90 81 81 89 -4 4 -11 1 -17 -7 -8 -13 -10 -13 -19 0 -9 13
-10 13 -11 0z"/>
<path d="M5550 7794 c-36 -7 -126 -16 -200 -18 -131 -5 -269 -21 -280 -33 -3
-3 45 -3 105 0 99 4 106 4 75 -8 -47 -18 -27 -18 40 0 30 8 100 19 155 25 111
12 171 26 180 40 7 12 10 12 -75 -6z"/>
<path d="M5015 7780 c-3 -5 -1 -10 4 -10 6 0 11 5 11 10 0 6 -2 10 -4 10 -3 0
-8 -4 -11 -10z"/>
<path d="M4450 7762 c0 -5 47 -15 104 -22 58 -8 103 -16 102 -19 -7 -11 149
-11 219 0 89 14 123 33 40 22 -73 -10 -234 -6 -295 7 -74 15 -170 22 -170 12z"/>
<path d="M5158 7713 c7 -3 16 -2 19 1 4 3 -2 6 -13 5 -11 0 -14 -3 -6 -6z"/>
<path d="M4977 7704 c-14 -15 -4 -184 12 -184 9 0 12 131 3 163 -4 16 -11 25
-15 21z"/>
<path d="M4890 7418 c-41 -23 -139 -70 -217 -104 -78 -34 -179 -83 -224 -110
l-82 -48 -107 115 c-59 63 -106 117 -103 122 2 4 -3 7 -11 7 -9 0 -16 5 -16
10 0 16 -30 12 -36 -5 -4 -10 38 -58 132 -150 77 -74 141 -135 144 -135 2 0
18 13 35 28 23 22 297 157 370 183 31 11 195 112 195 120 0 12 4 14 -80 -33z"/>
<path d="M5187 7263 c-10 -9 -9 -23 1 -23 5 0 9 7 9 15 0 17 -1 18 -10 8z"/>
<path d="M3777 4881 c-2 -11 6 -63 19 -118 21 -82 24 -114 19 -199 -3 -56 -1
-112 4 -125 9 -21 10 -18 11 21 1 25 4 54 6 65 2 11 6 63 7 115 3 118 -18 236
-43 250 -14 7 -19 5 -23 -9z"/>
<path d="M5795 7804 l6 -232 -62 -188 c-34 -104 -70 -206 -81 -228 -14 -27
-16 -41 -9 -47 6 -5 9 -6 7 -3 -3 3 18 48 46 100 110 207 151 461 114 708 -9
61 -19 112 -22 115 -3 3 -3 -98 1 -225z"/>
<path d="M5957 7358 c-9 -31 -2 -33 11 -3 6 14 8 25 3 25 -5 0 -11 -10 -14
-22z"/>
<path d="M5230 7031 c5 -11 14 -23 20 -26 21 -13 50 -138 50 -214 0 -70 -12
-196 -26 -281 -3 -19 -3 -32 1 -28 4 4 18 60 31 125 23 117 32 277 15 287 -4
3 -14 26 -21 52 -7 25 -24 59 -38 75 -27 33 -48 39 -32 10z"/>
<path d="M5311 7004 c0 -11 3 -14 6 -6 3 7 2 16 -1 19 -3 4 -6 -2 -5 -13z"/>
<path d="M5156 6759 c-76 -141 -278 -366 -436 -486 -51 -38 -308 -183 -325
-183 -4 0 -1 8 6 18 10 12 7 11 -11 -4 -78 -64 -140 -94 -220 -105 l-55 -7 65
2 c60 2 81 10 271 103 186 91 219 110 332 201 187 151 310 291 383 433 35 70
26 96 -10 28z"/>
<path d="M4248 5953 c6 -2 18 -2 25 0 6 3 1 5 -13 5 -14 0 -19 -2 -12 -5z"/>
<path d="M4180 5935 c-33 -19 -21 -19 21 0 19 8 27 14 19 14 -8 0 -26 -6 -40
-14z"/>
<path d="M1700 7685 c0 -9 6 -12 15 -9 8 4 15 10 15 15 0 5 -7 9 -15 9 -8 0
-15 -7 -15 -15z"/>
<path d="M1608 7673 c7 -3 16 -2 19 1 4 3 -2 6 -13 5 -11 0 -14 -3 -6 -6z"/>
<path d="M8250 7596 c0 -2 7 -9 15 -16 9 -7 15 -8 15 -2 0 5 -7 12 -15 16 -8
3 -15 4 -15 2z"/>
<path d="M7370 7630 c8 -5 20 -10 25 -10 6 0 3 5 -5 10 -8 5 -19 10 -25 10 -5
0 -3 -5 5 -10z"/>
<path d="M5954 6773 c29 -115 29 -227 1 -448 -5 -36 -4 -37 6 -15 22 51 45
255 38 347 -6 86 -23 143 -42 143 -5 0 -6 -12 -3 -27z"/>
<path d="M5711 6689 c0 -9 6 -22 14 -29 10 -9 15 -9 15 -1 0 6 -4 11 -9 11 -5
0 -12 8 -14 18 -4 14 -5 14 -6 1z"/>
<path d="M7250 7201 c0 -9 30 -24 36 -18 2 1 -6 8 -16 15 -11 7 -20 8 -20 3z"/>
<path d="M7010 7206 c0 -2 7 -7 16 -10 8 -3 12 -2 9 4 -6 10 -25 14 -25 6z"/>
<path d="M7205 6983 c17 -24 34 -43 38 -43 11 0 -26 52 -50 71 -9 8 -4 -5 12
-28z"/>
<path d="M2542 6969 c-24 -9 -52 -33 -52 -43 0 -3 6 -6 14 -6 16 0 117 40 131
52 12 11 -64 9 -93 -3z"/>
<path d="M1830 5043 c0 -4 5 -15 10 -23 8 -13 10 -13 10 2 0 9 -4 20 -10 23
-5 3 -10 3 -10 -2z"/>
<path d="M1816 4925 c-3 -8 -1 -15 4 -15 6 0 10 7 10 15 0 8 -2 15 -4 15 -2 0
-6 -7 -10 -15z"/>
<path d="M7660 6751 c0 -22 13 -41 56 -80 30 -28 64 -51 74 -51 16 0 10 13
-31 68 -28 37 -53 73 -56 80 -3 6 -14 12 -24 12 -14 0 -19 -7 -19 -29z"/>
<path d="M7845 6501 c-3 -6 15 -56 40 -112 25 -56 44 -104 42 -105 -2 -2 -29
27 -60 64 -71 86 -135 147 -143 139 -7 -6 17 -39 130 -177 65 -80 141 -149
152 -137 3 3 -25 80 -62 171 -61 152 -82 184 -99 157z"/>
<path d="M7920 6184 c0 -16 82 -174 90 -174 6 0 10 4 10 10 0 19 -74 160 -87
164 -7 3 -13 3 -13 0z"/>
<path d="M7981 5624 c-13 -16 -19 -34 -15 -43 3 -9 13 -35 21 -58 8 -24 21
-43 28 -43 11 0 12 17 8 78 -3 42 -9 81 -13 85 -4 5 -17 -4 -29 -19z"/>
<path d="M8271 4960 c1 -8 5 -26 9 -40 l8 -25 1 25 c0 14 -4 32 -9 40 -9 13
-10 13 -9 0z"/>
<path d="M4979 5828 c3 -73 15 -127 26 -116 9 9 -9 198 -19 198 -8 0 -10 -26
-7 -82z"/>
<path d="M6821 6246 c-10 -12 -8 -13 8 -9 12 3 18 9 15 14 -7 12 -10 11 -23
-5z"/>
<path d="M3000 6210 c0 -5 5 -10 11 -10 5 0 7 5 4 10 -3 6 -8 10 -11 10 -2 0
-4 -4 -4 -10z"/>
<path d="M3245 6160 c-3 -5 -2 -10 4 -10 5 0 13 5 16 10 3 6 2 10 -4 10 -5 0
-13 -4 -16 -10z"/>
<path d="M2582 6368 c8 -12 21 -24 28 -26 8 -3 6 5 -6 21 -23 32 -42 36 -22 5z"/>
<path d="M7183 6068 l-32 -32 -26 24 -25 24 -39 -38 c-35 -34 -43 -38 -75 -32
-35 7 -35 6 -57 -43 -32 -76 -42 -80 -78 -31 -17 23 -36 55 -43 71 -7 16 -17
29 -23 29 -6 0 -34 -21 -63 -46 l-53 -47 -52 59 c-29 32 -50 63 -49 69 2 5 0
7 -4 3 -4 -4 -13 -3 -21 3 -26 22 -12 -3 34 -64 63 -83 95 -117 107 -117 6 0
26 21 45 45 18 25 36 45 40 45 4 0 23 -27 42 -61 18 -33 42 -65 51 -70 20 -11
58 8 58 28 0 7 6 13 14 13 8 0 18 19 25 45 11 44 12 45 50 45 33 0 44 6 65 32
l25 33 30 -29 c17 -16 32 -28 34 -25 10 10 58 99 55 99 -2 0 -18 -14 -35 -32z"/>
<path d="M6972 5790 c15 -24 33 -27 24 -4 -3 9 -6 18 -6 20 0 2 -7 4 -15 4
-13 0 -13 -3 -3 -20z"/>
<path d="M7090 5701 c0 -5 10 -11 23 -15 36 -9 42 -7 21 9 -21 16 -44 19 -44
6z"/>
<path d="M5689 5573 c-6 -15 -30 -82 -54 -148 -24 -66 -65 -174 -91 -240 -56
-143 -65 -190 -51 -270 l11 -60 7 40 c4 22 8 59 8 83 1 24 18 93 40 155 21 62
66 190 99 284 33 95 56 175 51 179 -5 3 -14 -7 -20 -23z"/>
<path d="M5215 5234 c-84 -43 -233 -201 -335 -354 -80 -121 -100 -160 -189
-382 -54 -137 -95 -250 -91 -253 5 -3 12 5 16 17 3 13 35 87 69 165 35 77 66
155 70 172 4 17 10 29 15 26 4 -3 6 3 4 13 -5 19 104 201 191 317 60 80 173
192 258 253 80 60 77 69 -8 26z"/>
<path d="M3987 3873 c-4 -3 -7 -11 -7 -17 0 -6 5 -5 12 2 6 6 9 14 7 17 -3 3
-9 2 -12 -2z"/>
<path d="M1585 2829 c-6 -26 -11 -61 -19 -154 -4 -50 -4 -53 4 -20 16 74 31
187 26 192 -3 3 -8 -5 -11 -18z"/>
<path d="M7785 3919 c10 -35 23 -45 18 -15 -3 15 -10 29 -15 32 -6 4 -7 -2 -3
-17z"/>
<path d="M5390 3132 c-88 -92 -167 -159 -194 -166 -37 -9 -83 25 -135 100 -47
70 -64 81 -51 33 20 -70 99 -169 134 -169 9 0 16 -7 16 -15 0 -17 36 -12 75 8
11 6 25 10 30 9 15 -3 48 33 110 118 30 41 58 80 62 85 7 9 16 56 10 54 -1 0
-27 -26 -57 -57z"/>
<path d="M5349 2993 c-13 -16 -12 -17 4 -4 9 7 17 15 17 17 0 8 -8 3 -21 -13z"/>
<path d="M4985 867 c-11 -26 3 -125 31 -219 35 -119 86 -259 92 -254 2 3 -19
101 -48 218 -29 117 -56 227 -60 243 -6 25 -8 27 -15 12z"/>
<path d="M4640 2900 c-9 -6 -10 -10 -3 -10 6 0 15 5 18 10 8 12 4 12 -15 0z"/>
<path d="M4560 2880 c0 -6 7 -10 15 -10 8 0 15 2 15 4 0 2 -7 6 -15 10 -8 3
-15 1 -15 -4z"/>
<path d="M1365 3459 c-4 -6 -5 -12 -2 -15 2 -3 7 2 10 11 7 17 1 20 -8 4z"/>
<path d="M600 11956 c0 -2 7 -7 16 -10 8 -3 12 -2 9 4 -6 10 -25 14 -25 6z"/>
<path d="M1066 11065 c4 -8 10 -15 15 -15 4 0 6 7 3 15 -4 8 -10 15 -15 15 -4
0 -6 -7 -3 -15z"/>
<path d="M2507 9129 c7 -7 15 -10 18 -7 3 3 -2 9 -12 12 -14 6 -15 5 -6 -5z"/>
<path d="M828 7464 c-38 -20 -36 -28 2 -9 17 9 30 18 30 20 0 7 -1 6 -32 -11z"/>
<path d="M760 7430 c-9 -6 -10 -10 -3 -10 6 0 15 5 18 10 8 12 4 12 -15 0z"/>
<path d="M1757 6093 c-4 -3 -7 -11 -7 -17 0 -6 5 -5 12 2 6 6 9 14 7 17 -3 3
-9 2 -12 -2z"/>
</g>
</svg>
