<?xml version="1.0" standalone="no"?>
<!DOCTYPE svg PUBLIC "-//W3C//DTD SVG 20010904//EN"
 "http://www.w3.org/TR/2001/REC-SVG-20010904/DTD/svg10.dtd">
<svg version="1.0" xmlns="http://www.w3.org/2000/svg"
 width="1024.000000pt" height="768.000000pt" viewBox="0 0 1024.000000 768.000000"
 preserveAspectRatio="xMidYMid meet">
<metadata>
Created by potrace 1.16, written by Peter Selinger 2001-2019
</metadata>
<g transform="translate(0.000000,768.000000) scale(0.100000,-0.100000)"
fill="#000000" stroke="none">
<path d="M5000 7125 c-7 -8 -44 -38 -84 -67 -94 -68 -125 -98 -120 -112 3 -7
-39 -53 -92 -102 -89 -82 -279 -302 -321 -371 -40 -65 -95 -145 -122 -176 -94
-108 -299 -433 -315 -499 -3 -14 -16 -39 -29 -55 -13 -15 -45 -71 -72 -123
-98 -194 -145 -275 -145 -252 0 10 24 55 121 227 16 28 29 57 29 65 0 8 -20
-21 -45 -65 -89 -158 -116 -216 -110 -235 4 -13 -8 -29 -45 -61 -30 -25 -49
-48 -45 -56 3 -8 -7 -21 -25 -31 -27 -16 -39 -32 -23 -32 14 0 113 81 109 89
-7 11 56 60 129 101 33 18 110 62 170 98 141 83 422 217 602 287 65 25 73 26
87 12 22 -21 176 -45 176 -27 0 9 -93 30 -131 30 -32 0 -39 17 -11 27 9 3 60
47 112 97 56 54 148 126 225 177 272 180 332 219 395 252 36 19 131 69 213
111 133 71 170 96 135 96 -7 0 -33 -12 -58 -27 -25 -14 -56 -27 -70 -27 -14
-1 -49 -15 -79 -31 -55 -31 -286 -182 -331 -217 -14 -11 -81 -56 -150 -100
-133 -86 -206 -139 -308 -226 -35 -29 -80 -61 -100 -70 -20 -9 -41 -23 -45
-29 -4 -7 -18 -12 -30 -11 -12 1 -40 -4 -62 -11 -79 -26 -468 -222 -614 -311
-81 -49 -156 -92 -165 -96 -12 -4 -5 15 24 67 23 41 85 162 139 269 93 185
227 402 330 535 25 33 58 79 73 102 15 23 56 74 90 114 35 39 77 91 93 114 17
24 46 62 65 86 19 23 34 45 33 49 -2 7 190 198 345 344 67 63 74 67 90 53 21
-19 101 -56 121 -57 14 0 -24 28 -92 68 -45 26 -51 27 -67 7z"/>
<path d="M4718 6903 c-215 -175 -537 -536 -707 -792 -31 -48 -73 -107 -92
-132 -139 -186 -161 -221 -346 -564 -68 -126 -129 -235 -136 -241 -7 -5 -39
-21 -72 -34 -33 -12 -69 -31 -80 -40 -25 -22 -65 -43 -71 -38 -11 11 32 114
86 207 33 57 58 106 55 109 -10 10 -151 -95 -238 -178 -53 -50 -114 -122 -150
-175 -34 -49 -66 -95 -72 -102 -7 -6 -27 -42 -46 -79 -19 -37 -45 -78 -59 -91
l-25 -23 27 4 c15 3 38 12 50 20 12 9 30 16 40 16 21 0 142 96 223 177 50 50
174 133 199 133 3 0 0 -10 -9 -23 -29 -45 -2 -36 42 14 35 38 48 47 58 39 10
-8 17 -5 30 12 31 44 128 213 205 358 89 168 159 276 408 630 208 296 464 591
642 740 69 58 90 80 77 80 -3 0 -20 -12 -39 -27z m-1399 -1575 c-7 -13 -34
-59 -60 -103 -26 -44 -52 -98 -58 -121 -12 -44 -116 -168 -135 -161 -6 3 -27
-9 -46 -26 -19 -16 -29 -27 -22 -23 6 4 12 4 12 1 0 -9 -43 -44 -55 -45 -5 0
-30 -14 -54 -30 -24 -17 -46 -28 -48 -26 -7 6 68 128 126 205 31 40 72 95 91
122 36 50 120 129 204 192 57 43 61 44 45 15z"/>
<path d="M6385 6820 c-11 -4 -72 -27 -135 -50 -63 -23 -180 -73 -260 -111 -80
-38 -151 -69 -157 -69 -6 0 -13 -9 -16 -19 -5 -19 -4 -19 41 0 26 11 51 24 57
28 18 14 97 42 90 32 -3 -6 -40 -29 -83 -52 -84 -46 -191 -115 -207 -133 -5
-6 -39 -32 -75 -58 -64 -46 -192 -168 -176 -168 5 0 -7 -19 -26 -42 -53 -65
-57 -77 -49 -138 7 -55 7 -55 15 -20 10 43 61 151 98 205 62 92 195 196 449
348 147 88 212 121 332 171 49 20 100 48 113 61 26 26 23 30 -11 15z"/>
<path d="M7282 6033 c-222 -30 -631 -146 -762 -217 -42 -23 -91 -35 -180 -46
-47 -6 -96 -13 -110 -16 -74 -16 -108 -16 -127 3 -19 19 -26 21 -193 68 -52
15 -101 29 -108 31 -7 2 -10 9 -6 15 4 7 3 9 -3 6 -6 -4 -26 -1 -44 7 -45 18
-110 30 -89 16 11 -7 4 -10 -27 -10 -24 0 -43 5 -43 10 0 6 5 10 10 10 6 0 10
4 10 9 0 5 -17 11 -37 14 -21 3 -64 13 -96 22 -33 9 -61 14 -64 11 -3 -2 -1
-17 4 -32 8 -23 18 -30 59 -39 28 -6 43 -13 34 -17 -8 -3 -12 -9 -8 -13 5 -5
16 -1 26 8 22 20 49 22 54 5 2 -6 24 -13 49 -14 25 -2 72 -13 105 -25 32 -13
72 -22 87 -21 15 1 59 -11 97 -28 37 -16 70 -30 73 -30 2 0 22 -7 43 -16 35
-15 37 -17 18 -24 -11 -5 -70 -18 -130 -30 -160 -32 -452 -106 -579 -147 -221
-71 -545 -199 -545 -215 0 -8 97 27 115 42 19 16 389 141 489 166 166 41 260
67 271 74 25 18 243 68 435 100 423 71 502 81 830 106 271 21 830 31 830 15 0
-6 -9 -11 -19 -11 -36 0 -346 -60 -431 -83 -140 -39 -419 -143 -510 -190 -47
-24 -98 -51 -115 -59 -16 -8 -53 -27 -81 -42 -60 -30 -68 -32 -60 -11 3 8 3
15 0 15 -12 0 -183 -90 -329 -173 -184 -105 -170 -96 -164 -101 2 -2 45 18 94
46 153 85 273 148 281 148 5 0 -57 -38 -137 -84 -81 -46 -193 -113 -250 -148
-57 -35 -117 -70 -133 -78 -15 -8 -58 -41 -94 -72 -64 -57 -82 -68 -82 -48 0
6 -18 -1 -40 -15 -22 -14 -43 -25 -47 -25 -11 0 -70 70 -90 107 -14 27 -15 34
-3 48 7 9 86 64 174 122 194 128 234 153 351 216 103 56 97 55 -35 -4 -52 -23
-183 -99 -290 -169 -272 -176 -247 -163 -272 -149 -16 9 -23 9 -26 0 -5 -15
-31 -14 -83 4 -24 9 -70 17 -101 19 -32 2 -65 9 -73 16 -8 6 -18 9 -23 6 -10
-6 -101 35 -141 63 -44 32 -152 69 -215 75 -58 5 -95 23 -68 33 6 3 12 11 12
18 0 23 -20 28 -40 10 -14 -13 -29 -15 -67 -10 l-48 6 40 -25 c22 -14 47 -26
55 -26 8 0 33 -7 55 -15 22 -8 57 -14 77 -15 21 0 52 -6 70 -14 95 -41 116
-51 160 -77 56 -33 103 -47 200 -59 38 -5 72 -11 77 -15 19 -11 100 -22 112
-14 9 5 20 1 32 -12 10 -10 24 -19 32 -19 8 0 15 -5 15 -10 0 -6 20 -36 45
-67 l44 -57 -21 -23 c-32 -34 -16 -28 55 22 77 53 91 57 51 13 -16 -18 -22
-27 -14 -20 19 16 31 15 24 -3 -10 -24 -2 -19 62 43 40 38 123 95 252 171 106
63 190 116 187 119 -3 3 -11 0 -17 -6 -7 -7 -17 -12 -22 -12 -6 0 0 7 12 16
12 8 26 13 31 9 12 -7 78 32 72 42 -5 9 120 74 257 133 53 24 112 49 131 58
18 8 46 15 61 15 22 0 29 6 33 23 2 13 -1 25 -6 27 -11 3 199 89 328 134 146
51 401 117 515 132 47 7 101 15 120 19 55 12 67 5 74 -40 4 -22 13 -53 21 -69
9 -16 18 -57 22 -91 7 -75 17 -98 43 -98 11 0 20 -4 20 -9 0 -23 21 -62 30
-56 17 10 -27 83 -52 87 -17 2 -23 9 -22 28 2 33 -16 132 -26 145 -4 6 -11 27
-14 47 -3 21 -7 43 -8 50 -4 17 63 26 192 27 86 0 107 3 117 17 11 15 25 16
112 10 69 -5 101 -3 106 4 4 6 5 14 1 17 -3 3 -117 0 -254 -7 -302 -14 -301
-15 -356 83 -20 37 -33 72 -30 81 3 9 1 16 -5 16 -21 0 -11 -45 24 -103 19
-32 35 -62 35 -67 0 -5 -84 -9 -187 -9 -197 -1 -374 -6 -508 -17 -79 -6 -80
-5 -55 12 25 19 62 30 215 68 50 12 100 28 112 34 12 7 32 12 45 12 13 0 30 5
38 10 10 7 -7 9 -55 6 -76 -5 -326 -78 -430 -125 -47 -22 -87 -31 -185 -40
-69 -7 -145 -15 -170 -17 -44 -5 -44 -5 -20 10 25 16 238 86 315 105 22 5 81
20 130 34 151 41 477 82 572 73 49 -5 67 8 26 19 -15 3 -29 2 -31 -3 -1 -5
-13 -8 -25 -6 -62 10 -192 8 -275 -3z"/>
<path d="M6750 5442 c0 -4 16 -24 36 -43 33 -31 142 -169 251 -317 22 -32 73
-116 111 -187 39 -72 76 -129 81 -127 6 1 10 -1 9 -5 -2 -11 10 -40 38 -94 24
-46 24 -47 8 -112 -19 -77 -13 -132 17 -148 16 -8 19 -16 14 -40 -6 -27 -2
-35 39 -73 25 -23 46 -46 46 -52 0 -5 13 -26 30 -45 40 -49 60 -146 95 -463
19 -173 20 -566 2 -651 -9 -44 -18 -61 -31 -63 -21 -4 -62 -48 -71 -74 -4 -10
4 -36 16 -57 25 -46 22 -94 -9 -139 -28 -40 -46 -120 -31 -138 9 -11 9 -18 1
-26 -7 -7 -12 -20 -12 -30 0 -26 -27 -22 -33 5 -3 12 -9 58 -13 101 -5 61 -9
74 -16 57 -11 -31 8 -148 31 -186 18 -30 18 -32 -11 -133 -15 -57 -63 -192
-104 -300 -42 -109 -87 -226 -100 -262 -48 -126 -87 -210 -96 -210 -6 0 -8 -7
-5 -15 6 -13 -69 -175 -124 -271 l-24 -41 -58 18 c-62 20 -127 15 -151 -12 -8
-9 -7 -10 7 -5 63 22 182 8 182 -22 0 -6 -20 -22 -44 -34 -27 -14 -51 -36 -62
-56 -9 -18 -40 -57 -68 -86 -54 -58 -66 -88 -57 -139 8 -45 -14 -73 -43 -56
-25 16 -38 103 -23 149 6 16 7 30 3 30 -15 0 -21 -29 -21 -97 0 -57 3 -69 25
-89 14 -13 25 -27 25 -31 0 -4 -39 -53 -86 -108 -83 -97 -247 -311 -371 -485
-50 -70 -153 -255 -153 -275 0 -3 6 -5 13 -5 6 0 23 25 35 54 25 57 73 137
117 196 66 88 122 166 141 199 12 20 27 36 33 36 6 0 36 38 67 85 54 81 109
150 170 215 67 71 124 145 111 145 -8 0 -20 18 -27 39 -11 36 -11 43 8 73 11
18 39 51 62 73 23 22 48 55 57 73 28 58 44 61 273 51 245 -11 391 -23 565 -50
290 -44 437 -86 765 -214 246 -97 298 -121 432 -202 62 -37 125 -74 139 -81
14 -8 48 -31 75 -52 27 -22 67 -51 90 -67 l40 -27 -60 -64 c-61 -64 -171 -152
-190 -152 -6 0 -24 -13 -41 -29 -53 -51 -85 -58 -242 -55 l-142 2 5 -31 c3
-18 10 -55 15 -84 7 -36 7 -58 0 -72 -13 -24 -14 -61 -2 -61 5 0 12 17 15 38
7 41 2 174 -7 188 -3 5 51 8 121 6 144 -4 194 6 240 49 17 16 40 33 50 37 25
9 88 58 131 102 84 84 122 110 147 104 24 -6 31 4 15 21 -14 16 -39 144 -51
260 -6 61 -15 154 -21 208 -11 113 2 302 27 382 8 28 19 102 24 165 15 187 24
247 41 267 9 10 24 33 34 52 10 19 47 67 84 106 36 40 81 94 99 121 62 92 82
125 82 131 0 16 78 88 93 85 25 -5 21 7 -21 57 -51 61 -93 123 -131 196 -85
159 -149 270 -254 437 -63 101 -125 203 -137 228 -12 25 -31 57 -41 71 -27 38
-65 162 -79 254 -7 44 -18 89 -25 100 -6 11 -22 50 -35 87 -22 62 -22 72 -11
125 7 32 19 70 26 84 12 27 12 28 -15 232 -18 127 -25 98 -9 -35 15 -133 15
-125 0 -208 -31 -161 -31 -163 -16 -180 8 -9 21 -47 30 -85 19 -92 26 -115 42
-145 7 -14 13 -35 13 -47 0 -28 48 -163 65 -183 7 -8 23 -35 35 -60 12 -25 74
-128 137 -229 63 -101 135 -222 160 -270 25 -47 51 -93 58 -101 7 -8 31 -51
55 -95 23 -44 46 -84 51 -89 5 -6 9 -15 9 -20 0 -6 -24 12 -52 40 -67 64 -133
106 -284 182 -257 129 -406 182 -717 257 -274 66 -489 84 -771 66 -93 -6 -171
-9 -173 -7 -2 2 4 36 13 77 21 96 31 520 14 600 -6 30 -11 68 -11 84 1 26 -15
118 -61 354 -13 67 -28 103 -42 98 -5 -2 -18 13 -29 32 l-18 36 64 60 c87 82
148 110 287 134 180 31 372 37 510 16 63 -10 124 -18 135 -18 37 1 190 -27
262 -48 87 -24 164 -57 216 -93 47 -32 53 -33 27 -3 -49 53 -62 63 -107 87
-26 14 -60 35 -75 47 -15 12 -54 31 -85 42 -32 12 -67 26 -78 31 -54 25 -214
63 -365 87 -95 15 -169 17 -435 16 -176 -1 -332 -5 -347 -10 -16 -4 133 -8
345 -8 346 0 381 -2 502 -23 202 -37 385 -101 450 -158 21 -18 24 -24 10 -19
-115 44 -388 93 -570 102 -117 6 -327 -9 -441 -31 -98 -19 -174 -59 -238 -124
l-54 -55 -27 17 c-21 14 -29 15 -35 6 -12 -19 -33 27 -26 56 5 18 0 27 -19 40
-20 13 -25 24 -25 59 0 68 11 107 32 113 12 3 15 8 9 16 -13 15 -81 166 -75
166 2 0 13 -15 24 -32 14 -22 20 -27 20 -15 0 19 -16 45 -116 199 -35 53 -64
100 -64 105 0 15 -156 237 -198 282 -44 46 -44 46 13 -36 31 -46 54 -83 52
-83 -3 0 -29 33 -59 73 -96 126 -178 209 -178 179z m746 -2461 c-3 -4 149 -8
337 -7 386 1 410 -1 718 -79 342 -86 531 -164 797 -329 86 -54 228 -173 218
-183 -7 -7 -59 23 -81 47 -25 28 -234 151 -310 183 -154 64 -320 121 -430 147
-247 58 -305 65 -540 65 -199 0 -228 -2 -305 -23 -104 -29 -211 -69 -352 -133
-59 -27 -115 -49 -124 -49 -24 0 -12 64 26 139 35 69 36 75 12 121 -21 39 -19
54 11 88 20 22 33 30 23 13z m1059 -195 c253 -46 414 -98 636 -205 142 -68
406 -235 401 -253 -1 -5 -20 -27 -42 -48 -22 -21 -37 -45 -35 -52 3 -8 -10
-32 -28 -53 -19 -22 -42 -55 -51 -73 -9 -18 -24 -36 -32 -39 -7 -3 -14 -11
-14 -18 0 -7 -19 -32 -43 -56 -51 -53 -97 -113 -97 -129 0 -6 -9 -20 -20 -32
-12 -14 -20 -36 -20 -58 0 -20 -7 -62 -15 -93 -8 -32 -15 -89 -15 -126 0 -40
-8 -92 -19 -127 -11 -32 -19 -70 -19 -84 0 -14 -4 -81 -7 -150 -6 -91 -3 -160
9 -257 9 -73 16 -150 16 -172 0 -22 9 -77 20 -122 11 -46 18 -84 17 -86 -2 -1
-62 37 -135 85 -301 199 -479 286 -901 438 -273 98 -650 160 -1038 171 -117 3
-213 7 -213 9 0 4 135 277 155 314 18 35 132 319 140 352 4 16 11 26 16 23 4
-3 19 29 33 72 35 113 77 232 98 280 10 24 18 49 18 56 0 25 62 232 74 246 22
28 297 143 427 180 122 34 183 40 369 36 132 -2 209 -10 315 -29z"/>
<path d="M7945 2641 c-77 -5 -34 -8 185 -13 157 -4 305 -11 330 -16 25 -4 -75
-6 -230 -4 -154 2 -293 -1 -315 -6 -28 -6 17 -8 145 -4 245 6 575 -22 740 -64
23 -6 24 -5 9 10 -19 20 -252 70 -398 85 -127 13 -342 19 -466 12z"/>
<path d="M7460 2493 c0 -50 -39 -193 -102 -377 -28 -82 -52 -162 -54 -178 -2
-16 -15 -67 -29 -115 -13 -47 -27 -109 -30 -137 -3 -35 3 -18 22 57 14 59 31
107 37 107 14 1 118 313 151 452 25 110 33 228 15 228 -5 0 -10 -17 -10 -37z"/>
<path d="M8420 2140 c-8 -5 -22 -7 -31 -4 -9 2 -34 -5 -55 -18 -27 -16 -54
-22 -96 -23 l-58 0 6 -35 c3 -19 7 -45 10 -57 2 -13 5 -26 5 -30 2 -19 39 -80
59 -98 12 -11 30 -36 40 -56 19 -37 50 -180 50 -230 0 -42 17 -36 23 9 25 188
26 218 12 272 -17 64 -19 126 -5 135 6 3 10 18 10 33 0 28 24 71 47 85 14 9
18 27 6 27 -5 0 -15 -5 -23 -10z m-56 -125 c-12 -71 -12 -85 2 -128 12 -36 14
-69 10 -139 -9 -126 -13 -127 -36 -13 -11 55 -34 112 -49 125 -35 30 -64 76
-76 124 -8 31 -15 61 -15 65 0 5 26 12 58 15 31 4 71 13 87 20 17 7 31 13 32
12 0 -1 -5 -37 -13 -81z"/>
<path d="M7960 5394 c0 -3 13 -24 29 -47 15 -23 52 -80 81 -127 29 -47 72
-107 95 -135 23 -27 53 -66 66 -86 13 -20 91 -105 173 -190 160 -165 151 -151
-33 55 -64 70 -137 158 -163 195 -83 116 -155 224 -188 284 -17 31 -38 57 -46
57 -8 0 -14 -3 -14 -6z"/>
<path d="M4030 5114 c-19 -7 -49 -10 -66 -8 -34 6 -149 -19 -171 -37 -7 -6
-10 -16 -6 -23 3 -6 3 -8 -2 -4 -9 8 -65 -22 -65 -34 0 -4 -8 -8 -18 -8 -17 0
-94 -52 -157 -105 -16 -14 -36 -25 -43 -25 -8 0 -37 -15 -64 -32 l-51 -33 29
-6 c33 -8 24 -12 -25 -13 -48 -1 -54 -26 -6 -26 29 0 36 -3 31 -15 -6 -17 19
-21 29 -5 3 6 15 10 26 10 12 0 19 6 17 14 -4 17 69 69 77 55 4 -5 29 12 56
38 28 26 75 65 104 86 30 21 55 42 55 46 0 13 139 74 209 92 57 16 92 33 80
42 -2 2 -20 -2 -39 -9z"/>
<path d="M3931 5000 c-28 -67 -123 -188 -158 -201 -13 -5 -67 -9 -119 -9 -62
0 -94 -4 -94 -11 0 -6 -6 -9 -14 -6 -8 3 -22 -1 -33 -9 -16 -14 -14 -14 27 -8
65 11 92 8 102 -10 5 -9 14 -16 21 -16 27 0 157 56 162 70 3 8 24 35 45 59 33
36 40 40 40 23 0 -11 -7 -28 -16 -37 -9 -9 -15 -18 -12 -20 7 -7 48 7 48 16 0
5 0 11 0 14 0 3 6 18 15 35 19 37 19 62 0 36 -18 -24 -31 -15 -17 11 6 10 21
18 33 18 18 0 26 8 33 33 11 40 21 41 22 2 1 -28 34 -70 56 -70 17 0 7 22 -12
27 -19 5 -36 37 -31 61 2 12 -27 48 -33 41 -2 -2 -9 -15 -17 -29 l-13 -25 -6
30 c-5 29 -6 29 -29 -25z"/>
<path d="M2400 4912 c0 -7 -46 -65 -119 -147 -135 -154 -230 -287 -341 -475
-94 -161 -143 -266 -136 -294 3 -11 -13 -106 -35 -210 -29 -133 -38 -190 -30
-195 6 -4 16 -34 22 -67 6 -32 14 -63 19 -69 4 -5 13 -26 19 -46 18 -56 101
-125 101 -83 0 8 -7 14 -16 14 -42 0 -92 122 -101 245 -3 44 5 105 32 230 32
146 41 174 67 203 16 19 35 46 41 61 20 46 104 165 143 203 22 20 65 49 97 63
31 15 57 30 57 34 0 4 6 8 14 8 15 0 94 57 165 119 60 53 88 67 130 66 24 -1
49 7 74 25 45 31 35 42 -15 18 -25 -12 -28 -12 -15 -1 33 26 1 26 -37 0 -43
-29 -56 -26 -32 8 29 41 17 55 -15 18 -16 -20 -27 -41 -24 -50 3 -8 3 -11 -1
-8 -3 4 -47 -26 -97 -67 -50 -41 -95 -75 -99 -75 -13 0 -9 18 27 127 19 58 35
109 35 114 0 6 20 58 45 116 48 111 51 123 35 123 -5 0 -10 -4 -10 -8z m-65
-153 c-24 -46 -45 -92 -45 -103 0 -10 -11 -55 -24 -100 -14 -44 -26 -94 -28
-111 -2 -24 -12 -34 -53 -55 -117 -59 -146 -89 -288 -296 -22 -30 -41 -54 -43
-51 -16 16 137 294 264 480 99 144 250 333 259 324 2 -2 -17 -42 -42 -88z"/>
<path d="M4835 4888 c-40 -21 -123 -87 -180 -144 -46 -46 -215 -126 -355 -169
-125 -39 -162 -55 -124 -55 35 0 297 89 334 114 19 12 57 34 84 47 26 13 85
58 131 100 108 100 154 118 283 111 64 -3 92 -1 92 7 0 7 -36 11 -112 11 -94
-1 -120 -4 -153 -22z"/>
<path d="M5669 4794 c-16 -19 -18 -149 -4 -244 8 -50 15 -67 31 -75 12 -6 29
-17 38 -24 12 -10 22 -11 39 -4 15 7 50 8 97 2 71 -7 103 -14 178 -38 44 -13
128 -67 151 -97 15 -19 41 -33 41 -21 0 15 -45 118 -69 157 -17 28 -31 54 -32
58 -1 17 -155 237 -169 241 -8 2 -3 -10 13 -28 15 -18 27 -42 27 -54 -1 -23
-8 -17 -95 83 -17 19 -40 42 -50 50 -24 18 59 -83 127 -155 25 -27 57 -63 71
-79 26 -30 111 -169 124 -202 7 -18 6 -18 -17 -3 -104 68 -195 113 -226 112
-19 -1 -34 3 -34 7 0 4 -17 4 -37 -1 -21 -5 -49 -8 -63 -8 -24 0 -24 0 -5 11
11 6 48 12 82 12 35 1 63 3 63 6 0 10 -149 72 -162 67 -9 -3 -6 -7 7 -12 11
-4 36 -14 55 -23 l35 -16 -60 -10 c-44 -8 -61 -16 -63 -28 -5 -25 -14 -23 -46
10 -21 23 -26 35 -21 60 3 19 1 32 -5 32 -13 0 -13 170 0 204 11 29 -1 34 -21
10z"/>
<path d="M6591 4800 c-12 -7 -13 -11 -1 -24 7 -9 20 -14 29 -11 10 3 22 -4 30
-18 14 -22 14 -22 -8 -3 -36 32 -23 8 28 -54 50 -60 186 -279 239 -385 40 -80
79 -191 87 -248 4 -26 12 -47 17 -47 5 0 7 4 4 8 -2 4 -7 33 -10 64 -10 108
-75 247 -232 498 -110 177 -159 235 -183 220z"/>
<path d="M5450 4736 c0 -15 48 -85 55 -79 4 5 4 -3 1 -17 -5 -17 -4 -21 2 -12
7 11 10 10 16 -3 9 -24 8 -27 -6 -19 -8 5 -9 2 -4 -12 24 -57 20 -58 -42 -14
-34 24 -64 41 -67 38 -3 -2 28 -27 68 -55 40 -29 78 -58 85 -65 16 -20 72
-160 67 -168 -2 -4 2 -56 10 -116 8 -60 15 -166 15 -235 0 -125 -11 -184 -37
-204 -11 -9 -83 -122 -83 -131 0 -3 -18 -34 -76 -131 l-16 -28 26 30 c14 17
56 79 93 138 36 59 69 110 73 112 4 2 5 -8 4 -23 -6 -43 6 -10 25 70 14 60 16
94 9 188 -15 229 -30 356 -49 425 -25 89 -125 292 -150 306 -11 5 -19 8 -19 5z"/>
<path d="M4570 4405 c-7 -13 -17 -22 -21 -19 -5 3 -28 -12 -51 -34 -114 -102
-196 -149 -281 -161 -36 -5 -74 -14 -86 -21 -23 -12 -246 -34 -260 -25 -5 3
-53 5 -105 6 -80 1 -104 -3 -137 -20 -22 -12 -44 -21 -50 -21 -6 0 -38 -14
-72 -31 -34 -17 -71 -34 -82 -38 -59 -18 -364 -188 -391 -217 -32 -34 -70 -50
-44 -19 16 20 -1 20 -38 1 -15 -8 -70 -22 -122 -31 -52 -10 -117 -26 -145 -36
-27 -10 -88 -27 -135 -38 -117 -28 -227 -68 -264 -95 -37 -28 -122 -66 -130
-59 -8 8 -107 -57 -101 -66 2 -5 -30 -41 -73 -82 -58 -55 -73 -74 -59 -77 9
-2 41 -28 70 -59 62 -65 174 -131 121 -70 -11 12 -26 35 -32 51 -12 26 -11 28
5 21 10 -4 31 -10 47 -13 21 -3 27 -1 21 8 -9 15 -9 15 72 -28 77 -40 172 -76
180 -68 3 3 -3 9 -13 12 -10 4 -56 24 -102 46 -66 30 -99 54 -158 113 -41 41
-77 75 -79 75 -13 0 -1 -22 35 -63 22 -25 40 -54 40 -66 0 -20 -1 -20 -35 -4
-37 18 -55 53 -55 108 0 31 25 61 94 113 39 30 56 28 56 -5 0 -53 22 -107 67
-167 48 -64 115 -128 95 -90 -5 10 -20 28 -31 38 -26 24 -27 36 -1 36 14 0 18
5 13 17 -5 12 -3 14 7 8 7 -5 30 -11 49 -15 20 -4 49 -11 65 -15 21 -6 28 -5
24 5 -2 7 -21 14 -42 16 -52 4 -107 43 -158 109 -41 52 -73 68 -42 19 9 -13
13 -24 9 -24 -4 0 7 -16 24 -35 40 -46 40 -64 -1 -33 -34 26 -54 74 -60 144
-3 35 0 39 42 60 57 30 60 30 61 -3 l1 -28 9 30 c6 23 7 18 4 -23 -5 -61 12
-95 84 -170 39 -41 60 -40 24 1 -17 19 -17 19 2 14 84 -25 106 -19 75 20 -33
42 -27 53 30 49 58 -3 67 14 23 39 -21 12 -23 15 -8 13 13 -2 19 2 17 11 -2
10 4 12 25 6 72 -19 93 -22 93 -14 0 14 22 10 42 -8 25 -23 32 -11 14 25 -18
35 -10 49 16 25 17 -15 18 -15 18 10 0 31 8 33 36 12 10 -8 27 -15 37 -15 15
0 15 3 5 20 -17 27 -3 36 26 16 14 -9 34 -16 45 -16 19 0 19 0 0 38 -11 20
-28 48 -39 62 -10 14 -22 37 -25 52 -6 25 -4 27 42 36 26 6 51 8 55 4 4 -4 23
-33 42 -64 34 -57 34 -57 8 -47 -14 5 -45 23 -69 39 -49 33 -57 27 -15 -12 34
-32 112 -72 112 -58 0 7 8 9 20 5 30 -9 25 2 -25 57 -25 28 -45 59 -45 69 0
25 37 25 45 0 10 -34 142 -110 165 -96 12 7 13 35 2 35 -14 0 -74 108 -70 127
3 14 11 7 35 -28 35 -51 107 -99 147 -99 24 0 37 23 19 32 -5 2 -19 17 -33 33
l-25 30 35 -31 c31 -28 80 -53 80 -41 0 3 -7 21 -15 41 l-15 36 32 -20 c53
-32 50 -24 -12 39 -51 52 -98 118 -88 125 2 1 22 12 46 24 l42 22 0 -45 c0
-31 10 -65 31 -106 17 -34 33 -59 35 -56 3 3 1 14 -5 25 -17 31 -14 34 19 17
16 -8 41 -15 56 -15 l27 0 -24 26 -24 26 45 -22 c28 -14 45 -19 48 -12 2 8 12
6 28 -4 13 -9 24 -12 24 -6 0 6 -8 13 -18 16 -10 4 -29 20 -41 37 l-23 31 23
-7 c13 -4 31 -10 39 -13 27 -9 3 8 -41 31 -43 22 -62 47 -79 109 -9 29 -7 30
46 54 74 32 99 31 132 -8 25 -30 42 -98 24 -98 -14 0 -60 54 -72 84 -6 16 -13
26 -16 23 -3 -2 1 -20 9 -39 20 -49 67 -121 74 -114 3 3 0 12 -7 21 -8 9 -8
15 -2 15 6 0 14 -4 17 -10 14 -23 26 -8 20 28 -6 37 -6 37 12 16 10 -12 27
-34 37 -48 24 -34 35 -33 43 4 3 17 9 30 13 30 11 0 37 -33 44 -57 4 -13 11
-23 15 -23 13 0 31 -49 31 -87 0 -36 -44 -178 -62 -200 -5 -6 -11 -24 -14 -39
-6 -33 -22 -64 -33 -64 -5 0 -25 -37 -46 -82 -21 -46 -40 -77 -42 -70 -9 24
-22 11 -17 -17 8 -37 -41 -136 -133 -274 -38 -56 -87 -131 -108 -167 -76 -128
-209 -281 -259 -299 -6 -2 -38 -25 -71 -51 -33 -26 -116 -77 -185 -112 -114
-59 -161 -77 -287 -108 -24 -6 -43 -14 -43 -18 0 -10 197 -4 238 8 49 13 32
-1 -70 -59 -84 -48 -128 -81 -128 -95 0 -10 64 7 115 29 199 89 278 133 388
217 65 50 119 88 121 87 1 -2 8 -38 14 -79 7 -41 19 -88 27 -104 8 -16 15 -42
15 -58 0 -41 23 -88 59 -122 21 -21 27 -32 19 -37 -30 -19 81 -69 152 -69 10
0 22 -5 25 -10 8 -12 59 -13 83 -1 9 4 44 22 77 39 33 16 96 42 140 57 106 35
539 233 574 263 9 7 66 42 126 78 169 99 196 125 103 97 -28 -8 -48 -20 -48
-28 0 -7 -12 -22 -27 -33 -37 -26 -315 -176 -328 -177 -5 0 -59 -25 -120 -54
-228 -110 -343 -156 -273 -108 56 37 178 169 178 193 0 4 -13 -5 -30 -21 -16
-16 -30 -32 -30 -37 0 -15 -85 -99 -127 -126 -24 -15 -43 -32 -43 -39 0 -6
-13 -16 -30 -21 -27 -10 -25 -6 24 44 30 31 57 54 60 52 3 -1 16 12 30 30 38
53 169 172 189 172 20 0 22 -11 5 -28 -8 -8 -9 -12 -1 -12 6 0 19 7 28 16 9
10 33 19 53 21 20 2 41 8 47 12 5 5 52 15 103 22 50 7 92 16 92 20 0 3 21 14
46 24 73 28 44 28 -68 2 -236 -56 -298 -67 -298 -49 0 11 95 100 175 164 39
30 113 77 165 103 52 27 113 61 135 76 52 35 287 149 307 149 8 0 26 8 39 18
13 11 85 33 159 51 158 38 250 65 303 88 36 16 39 16 57 -3 10 -10 30 -48 44
-83 30 -75 35 -181 10 -246 -8 -22 -19 -53 -24 -70 -5 -16 -30 -66 -55 -109
-25 -44 -45 -85 -45 -93 0 -7 -3 -13 -7 -13 -13 0 -97 -86 -116 -118 -10 -18
-13 -33 -8 -37 6 -3 22 14 36 39 14 24 33 50 42 58 24 18 12 0 -55 -89 -65
-88 -101 -119 -115 -101 -6 9 -7 7 -3 -6 5 -14 -12 -38 -66 -95 -40 -42 -78
-76 -85 -76 -7 0 -108 -95 -226 -210 -117 -116 -227 -219 -244 -230 -45 -28
-293 -217 -384 -292 -43 -35 -80 -63 -84 -63 -17 0 -176 -141 -405 -360 -41
-39 -97 -86 -125 -105 -90 -60 -409 -387 -614 -630 -51 -60 -100 -115 -107
-121 -17 -14 -18 -24 -1 -24 6 0 48 44 92 97 161 195 485 528 633 651 71 59
73 60 125 56 108 -10 677 -16 677 -8 0 5 -134 10 -298 10 -163 1 -310 6 -326
11 l-29 9 64 51 c35 28 75 63 89 78 23 25 -13 2 -135 -87 -47 -34 -21 -9 134
126 79 69 150 126 158 126 7 0 13 7 13 15 0 7 6 18 14 22 7 4 49 40 92 80 44
39 90 80 104 91 39 30 396 94 610 108 99 7 166 22 102 23 -52 1 -291 -28 -474
-58 -93 -15 -168 -25 -167 -22 0 8 261 203 322 241 26 16 61 30 78 30 73 0
546 53 592 67 41 11 5 14 -54 3 -34 -6 -92 -13 -128 -16 -36 -2 -120 -10 -186
-18 -145 -17 -225 -24 -225 -20 0 2 21 16 48 31 69 40 90 62 72 73 -11 7 -4
20 35 63 28 30 61 59 75 65 14 6 86 23 160 37 261 50 430 89 430 98 0 5 -7 6
-17 3 -18 -7 -425 -90 -485 -99 -21 -3 -38 -2 -38 3 0 5 45 54 99 109 87 87
104 100 143 106 73 11 291 54 331 66 64 18 33 22 -36 5 -77 -19 -273 -56 -300
-56 -21 0 -3 22 112 145 75 80 96 114 135 225 21 58 49 134 62 170 13 36 24
77 25 90 0 14 4 34 8 45 5 12 3 25 -6 33 -7 7 -13 23 -13 35 0 20 4 22 38 19
46 -4 194 32 244 61 55 30 38 33 -34 4 -87 -35 -193 -60 -221 -53 -17 4 -30
20 -45 56 l-21 51 27 11 c79 32 131 60 152 83 18 19 20 24 7 19 -9 -3 -17 -10
-17 -14 0 -10 -115 -67 -150 -75 -14 -3 -33 1 -44 10 -20 15 -20 15 0 30 10 8
24 15 29 15 12 0 127 58 190 94 22 13 39 29 37 35 -3 15 18 54 57 108 l30 42
33 -16 c18 -9 40 -24 48 -32 8 -9 36 -33 61 -53 53 -43 137 -159 173 -243 15
-32 38 -117 52 -189 13 -72 27 -144 30 -160 4 -18 9 -24 14 -17 4 7 3 34 -2
59 -10 52 -12 260 -3 284 10 26 -14 138 -48 218 -30 75 -91 174 -121 199 -19
16 -21 31 -3 31 8 0 28 18 46 40 l32 40 58 -30 c36 -18 77 -50 105 -82 25 -29
46 -46 46 -39 0 8 -7 23 -17 33 -27 30 -6 20 34 -16 41 -36 83 -55 83 -37 0 6
-4 11 -9 11 -7 0 -96 165 -96 179 0 3 -23 28 -50 56 -54 53 -135 120 -135 111
0 -3 -22 3 -50 13 -70 27 -62 12 14 -27 88 -45 177 -129 220 -206 20 -35 36
-67 36 -71 0 -3 -19 9 -42 28 -24 19 -52 39 -64 45 -57 30 -251 92 -287 92
-27 0 -28 1 -13 22 9 12 16 34 16 49 0 14 9 34 20 44 11 10 20 14 20 8 0 -13
118 -64 125 -54 6 10 -39 31 -65 31 -11 0 -20 4 -20 9 0 5 -10 11 -21 14 -14
4 -20 11 -16 21 9 23 -42 66 -77 66 l-29 0 7 62 c4 38 3 58 -3 53 -5 -6 -12
-30 -15 -55 -16 -149 -17 -164 -8 -151 6 8 8 20 5 27 -5 14 34 34 67 34 30 0
34 -32 7 -52 -16 -11 -23 -25 -20 -36 7 -28 -14 -73 -32 -66 -17 7 -19 -4 -6
-26 7 -10 3 -21 -15 -38 -36 -37 -30 -60 7 -26 16 14 20 12 60 -31 145 -158
229 -342 229 -501 l-1 -69 -18 45 c-11 25 -24 59 -30 76 -15 40 -124 197 -134
195 -5 -1 -16 6 -25 16 -27 28 -114 98 -142 113 -36 19 -40 30 -19 51 11 11
19 26 19 34 0 9 -13 0 -33 -21 l-33 -36 -17 26 c-15 22 -16 30 -5 49 7 12 11
26 10 31 -2 4 4 19 13 32 11 17 12 22 2 18 -7 -2 -24 -27 -38 -54 -13 -28 -31
-52 -40 -55 -9 -3 -21 -16 -27 -29 -14 -32 12 -45 30 -16 16 25 36 25 67 0
l23 -20 -26 -35 c-15 -19 -39 -60 -52 -90 -22 -48 -29 -55 -55 -55 -16 0 -29
6 -30 13 0 6 -5 3 -10 -8 -10 -20 -114 -86 -158 -100 -35 -11 -18 10 29 36 22
13 40 26 40 31 0 14 -98 -52 -102 -70 -3 -9 -30 -30 -60 -45 -45 -23 -63 -27
-94 -21 -30 6 -36 4 -32 -8 9 -21 -129 -66 -274 -88 -32 -4 -61 -11 -66 -14
-4 -2 -95 -30 -202 -61 -243 -70 -292 -94 -110 -52 36 9 85 23 109 31 24 9 49
16 55 16 11 0 -110 -68 -219 -122 -33 -17 -91 -50 -130 -73 -38 -23 -82 -49
-96 -56 -49 -27 -99 -61 -99 -69 0 -4 -39 -45 -86 -91 -47 -46 -160 -157 -250
-246 -159 -158 -210 -198 -163 -131 l23 33 -28 -25 c-15 -14 -35 -38 -44 -53
-17 -28 -19 -28 -77 -22 -47 6 -74 16 -126 51 -36 24 -78 61 -92 81 -37 54
-28 96 45 206 62 95 66 102 44 94 -9 -4 -16 4 -21 21 -3 14 -20 43 -37 64 -17
22 -28 41 -25 44 7 7 42 -11 85 -43 27 -20 31 -29 26 -51 -6 -24 -5 -25 9 -12
30 29 163 236 183 283 10 26 22 47 27 47 4 0 7 11 7 24 0 14 4 27 9 30 5 3 33
79 62 168 29 90 59 170 66 179 7 8 13 19 13 24 0 4 43 94 95 199 52 105 104
216 116 246 44 115 59 149 97 228 22 45 50 112 62 149 23 72 39 90 125 147 28
19 79 60 113 91 l64 58 -57 -114 c-32 -63 -62 -127 -67 -144 -4 -16 -11 -91
-14 -165 -6 -162 -27 -300 -54 -371 -12 -28 -19 -57 -17 -63 2 -6 9 7 16 29 7
22 20 51 28 64 20 31 31 102 48 311 8 101 21 194 30 220 9 25 46 100 82 168
43 81 60 122 50 122 -7 0 -20 -11 -27 -25z m-384 -287 c11 -11 12 -27 3 -78
-11 -72 -86 -260 -102 -257 -6 1 -24 -20 -40 -46 -23 -36 -27 -51 -19 -59 9
-9 15 -2 27 26 9 21 18 36 21 33 8 -8 -39 -120 -52 -124 -7 -2 -14 12 -17 34
-15 96 -58 277 -76 310 -20 40 -61 84 -61 65 0 -6 5 -14 10 -17 6 -3 10 -11
10 -17 0 -6 -13 7 -29 28 -15 21 -40 50 -55 63 -14 14 -26 28 -26 33 0 4 53 8
118 9 64 0 135 4 157 9 51 11 114 5 131 -12z m-685 -138 c12 -30 35 -71 51
-91 35 -46 35 -50 -1 -38 -41 14 -97 71 -112 114 -7 19 -16 35 -20 35 -5 0 -3
-14 3 -31 8 -23 8 -33 -1 -38 -7 -5 1 -19 24 -41 40 -39 46 -56 13 -39 -13 7
-24 12 -25 11 -21 -14 -37 24 -38 91 0 45 1 48 40 66 22 10 41 18 41 17 1 0
12 -26 25 -56z m-197 -95 c30 -60 48 -115 38 -115 -16 1 -85 75 -92 99 l-8 26
-1 -28 c-1 -27 22 -78 55 -124 16 -22 15 -22 -16 -10 -17 7 -56 36 -86 65
l-55 54 63 44 c35 24 65 44 68 44 3 0 18 -25 34 -55z m-569 -190 c3 -19 7 -51
10 -70 7 -43 -3 -44 -41 -4 -32 34 -64 54 -64 41 0 -4 18 -27 40 -51 46 -49
50 -61 18 -54 -34 9 -58 33 -83 85 l-23 47 27 10 c25 10 88 28 103 30 4 1 10
-15 13 -34z m-270 -136 c26 -38 45 -72 42 -75 -3 -3 -31 6 -63 19 -70 30 -92
24 -36 -9 36 -22 89 -90 78 -101 -11 -11 -90 24 -112 50 -20 24 -24 39 -24 97
0 55 4 71 18 79 35 21 51 11 97 -60z m1160 -575 c6 -40 -9 -78 -22 -58 -5 6
-16 13 -25 17 -24 9 -38 -20 -39 -80 0 -26 -3 -43 -5 -37 -9 22 -41 3 -53 -32
-7 -20 -19 -38 -27 -41 -11 -4 -13 -14 -9 -37 5 -23 4 -27 -4 -16 -6 8 -11 26
-11 39 l0 24 -24 -22 -25 -23 6 23 c4 13 25 48 48 79 23 30 48 67 56 81 49 92
60 108 72 103 7 -2 19 7 27 21 16 31 26 19 35 -41z m-332 -368 c3 -8 -1 -17
-10 -20 -11 -5 -14 -15 -9 -39 5 -30 2 -35 -44 -67 -27 -19 -49 -38 -50 -42 0
-5 -7 -8 -15 -8 -7 0 -19 -8 -24 -17 -6 -10 -11 -15 -11 -10 0 4 -14 -6 -31
-22 -32 -31 -109 -74 -118 -66 -2 3 4 12 15 20 10 8 16 15 12 16 -5 1 -12 3
-18 4 -5 1 -13 3 -16 4 -4 0 -1 8 6 16 10 12 9 15 -4 15 -9 0 -20 -8 -24 -17
-4 -10 -11 -19 -17 -20 -5 -1 -28 -4 -50 -8 l-40 -6 60 34 c33 19 84 50 113
68 30 19 61 39 70 44 34 20 131 95 137 105 6 10 40 28 56 29 4 1 9 -5 12 -13z"/>
<path d="M5878 4293 c-16 -2 -28 -8 -28 -13 0 -8 62 -6 148 5 35 4 173 -19
199 -34 16 -9 57 -101 45 -101 -4 0 -35 9 -68 19 -34 11 -106 22 -160 25 -117
7 -101 -6 27 -23 216 -29 280 -60 405 -199 53 -59 101 -117 107 -129 5 -13 14
-23 19 -23 15 0 8 15 -22 50 -16 19 -29 39 -30 44 -1 20 -174 196 -209 213
-30 14 -40 26 -48 56 -12 42 -11 42 60 21 29 -9 19 22 -18 55 -20 17 -41 31
-48 31 -11 -1 11 -22 43 -40 32 -19 1 -18 -36 0 -79 39 -271 60 -386 43z"/>
<path d="M2200 4220 c-14 -11 -33 -20 -43 -20 -9 0 -26 -14 -36 -31 -10 -17
-49 -61 -85 -99 -65 -66 -84 -100 -48 -85 9 4 32 9 51 10 26 3 47 18 98 70 68
71 126 152 117 166 -8 14 -27 10 -54 -11z"/>
<path d="M5986 3991 c-7 -10 -1 -12 134 -31 102 -15 110 -18 110 -41 0 -23 3
-23 -71 1 -34 12 -66 19 -73 17 -6 -2 14 -13 44 -23 135 -46 379 -191 448
-266 56 -62 132 -137 132 -131 0 3 -36 47 -80 98 -44 51 -77 95 -73 99 3 3 1
6 -5 6 -7 0 -42 21 -79 46 -36 25 -102 63 -145 85 -58 29 -78 44 -78 59 0 11
7 20 15 20 31 0 197 -73 250 -111 64 -45 89 -51 54 -13 -36 40 -139 104 -165
104 -13 0 -52 11 -86 23 -54 20 -138 38 -295 63 -17 2 -34 0 -37 -5z"/>
<path d="M2415 3759 c-22 -5 -60 -11 -85 -12 -31 -2 -62 -14 -100 -39 -30 -19
-71 -40 -90 -47 -23 -7 -67 -43 -123 -101 -48 -50 -91 -90 -96 -90 -5 0 -14
-7 -21 -15 -15 -18 -15 -18 32 -2 24 9 59 38 103 87 38 42 83 82 104 91 20 8
66 29 102 47 37 17 89 36 115 43 27 6 53 16 59 20 5 5 17 9 27 9 10 0 18 5 18
10 0 6 -1 9 -2 9 -2 -1 -21 -5 -43 -10z"/>
<path d="M4134 3518 c-27 -40 -67 -105 -89 -144 -49 -88 -77 -128 -69 -99 4
11 -11 -4 -31 -34 -21 -30 -44 -77 -52 -105 -32 -115 -42 -152 -46 -176 -3
-14 -20 -70 -37 -125 -30 -91 -56 -143 -164 -334 -20 -35 -35 -71 -33 -80 2
-10 12 1 26 29 13 25 46 83 73 128 62 104 98 195 149 382 50 184 68 233 83
227 8 -3 40 42 81 111 37 65 90 154 117 200 27 46 48 86 45 88 -2 2 -26 -28
-53 -68z"/>
<path d="M4427 3284 c-42 -63 -77 -123 -77 -134 0 -19 19 -30 51 -30 27 0 152
64 224 115 33 23 104 68 158 100 54 32 95 60 93 63 -3 2 -31 -12 -63 -31 -32
-20 -60 -31 -64 -26 -5 9 -125 -52 -227 -117 -29 -19 -55 -34 -57 -34 -11 0
-4 25 12 42 16 18 16 18 0 12 -28 -10 -40 -42 -24 -59 12 -12 20 -11 53 7 22
11 57 33 79 48 45 31 95 57 80 43 -32 -32 -149 -105 -204 -128 -116 -48 -119
-19 -16 134 41 61 71 111 67 111 -4 0 -43 -52 -85 -116z"/>
<path d="M5842 3226 c34 -15 69 -59 59 -74 -6 -9 -19 -6 -52 12 -51 29 -130
58 -136 52 -3 -3 33 -23 79 -44 100 -49 125 -70 134 -119 11 -58 -3 -240 -25
-335 -23 -96 -67 -218 -86 -233 -6 -5 -18 -28 -25 -50 -13 -43 -52 -135 -107
-255 -34 -75 -60 -118 -120 -198 -18 -24 -33 -52 -33 -62 0 -10 -19 -42 -43
-72 -24 -29 -53 -69 -64 -88 -12 -19 -51 -63 -87 -98 -36 -34 -66 -70 -66 -80
-1 -9 -38 -55 -83 -102 -45 -47 -124 -133 -176 -190 -52 -58 -101 -109 -109
-114 -8 -5 -29 -25 -46 -45 -55 -65 -641 -641 -651 -641 -6 0 -43 -42 -82 -93
-39 -51 -92 -117 -118 -147 -38 -43 -135 -220 -135 -245 0 -3 11 -5 24 -5 25
0 36 16 36 53 0 12 5 29 11 37 9 12 10 12 5 -3 -3 -11 -3 -23 0 -29 3 -5 22
22 42 61 54 103 262 373 325 420 101 77 536 520 673 686 32 39 96 113 144 165
47 52 126 142 175 199 50 58 116 132 148 165 91 94 108 118 180 259 137 263
157 308 217 474 34 92 65 172 71 177 5 6 9 19 9 30 0 12 11 57 24 101 14 47
20 84 15 90 -5 5 -9 44 -9 86 l0 77 24 -11 c28 -13 70 -74 117 -170 18 -37 39
-67 47 -67 10 0 9 8 -6 33 -11 17 -32 55 -48 82 -44 78 -100 151 -139 181 -19
14 -35 31 -35 37 0 5 9 2 19 -7 11 -10 24 -16 30 -15 5 2 -17 32 -49 67 -41
43 -66 62 -82 61 -22 -1 -22 -1 4 -13z"/>
<path d="M7892 3100 c-112 -13 -75 -17 117 -12 147 4 212 1 292 -12 156 -26
314 -69 441 -122 132 -54 258 -96 258 -85 0 5 -21 14 -47 21 -27 7 -113 39
-193 71 -301 121 -604 169 -868 139z"/>
<path d="M6405 2438 c-18 -80 -113 -326 -180 -464 -137 -284 -737 -1140 -1085
-1549 -47 -55 -74 -91 -60 -80 92 70 486 590 828 1092 209 305 266 398 338
548 83 173 195 485 174 485 -5 0 -12 -15 -15 -32z"/>
<path d="M7090 2414 c-28 -74 -104 -234 -135 -284 -19 -30 -51 -84 -71 -120
-21 -36 -62 -108 -93 -160 -30 -52 -66 -115 -79 -140 -14 -25 -40 -63 -57 -85
-18 -22 -54 -76 -80 -120 -59 -98 -105 -159 -139 -186 -49 -39 -171 -229 -147
-229 5 0 12 9 16 19 12 38 87 144 148 209 35 37 89 110 121 162 62 100 106
159 106 141 0 -23 19 -10 25 17 3 16 24 60 47 98 154 260 369 686 354 702 -3
2 -10 -8 -16 -24z"/>
<path d="M5708 1918 c-20 -36 -49 -86 -64 -110 -15 -24 -41 -68 -57 -98 -17
-30 -47 -74 -67 -97 -20 -24 -45 -64 -55 -90 -28 -75 -61 -135 -95 -173 -17
-19 -38 -48 -47 -65 -8 -16 -41 -66 -73 -110 -59 -82 -85 -125 -76 -125 10 0
143 184 171 235 15 28 37 61 50 75 13 14 42 66 64 115 22 50 53 106 69 125 15
19 45 60 64 90 20 30 56 78 81 105 44 48 55 72 21 44 -16 -13 -16 -12 -4 11 7
14 24 42 37 62 14 20 23 45 21 55 -2 12 -15 -3 -40 -49z"/>
<path d="M7295 1053 c-197 -18 -432 -63 -550 -107 -64 -23 -36 -19 137 24 206
51 376 72 598 74 149 1 191 -3 285 -22 216 -46 481 -114 537 -138 73 -30 84
-30 33 0 -42 25 -114 48 -225 71 -36 7 -99 23 -140 34 -184 50 -334 71 -488
69 -81 -1 -165 -3 -187 -5z"/>
<path d="M6574 611 c-31 -47 -78 -113 -104 -146 -121 -153 -201 -301 -199
-368 1 -30 2 -29 10 10 4 24 17 63 28 88 27 61 103 175 116 175 20 0 83 75
150 180 37 58 76 115 87 126 19 21 19 22 -7 22 -21 0 -35 -15 -81 -87z"/>
</g>
</svg>
