<?xml version="1.0" standalone="no"?>
<!DOCTYPE svg PUBLIC "-//W3C//DTD SVG 20010904//EN"
 "http://www.w3.org/TR/2001/REC-SVG-20010904/DTD/svg10.dtd">
<svg version="1.0" xmlns="http://www.w3.org/2000/svg"
 width="1143.000000pt" height="810.000000pt" viewBox="0 0 1143.000000 810.000000"
 preserveAspectRatio="xMidYMid meet">
<metadata>
Created by potrace 1.16, written by Peter Selinger 2001-2019
</metadata>
<g transform="translate(0.000000,810.000000) scale(0.100000,-0.100000)"
fill="#000000" stroke="none">
<path d="M0 4050 l0 -4050 5715 0 5715 0 0 4050 0 4050 -5715 0 -5715 0 0
-4050z m7576 3671 c130 -57 168 -156 140 -359 -27 -193 -17 -376 30 -542 28
-99 135 -324 202 -425 92 -138 233 -265 330 -296 56 -17 60 -27 27 -53 -28
-23 -28 -24 -8 -30 34 -11 91 -81 99 -121 7 -38 -6 -80 -38 -121 -27 -33 -100
-69 -195 -95 -43 -12 -94 -30 -115 -40 -104 -53 -104 -155 2 -207 88 -43 109
-203 38 -279 l-21 -23 21 -23 c30 -32 51 -88 58 -155 6 -53 4 -59 -22 -88 -22
-23 -44 -33 -90 -42 -89 -18 -124 -63 -124 -161 0 -62 9 -89 83 -246 58 -121
62 -135 62 -200 -1 -79 -25 -138 -90 -213 -72 -84 -131 -99 -292 -77 -236 33
-362 17 -408 -53 -45 -68 -48 -115 -41 -547 9 -526 1 -585 -79 -585 l-33 0
-12 -82 c-36 -253 -244 -709 -462 -1016 -282 -396 -700 -742 -1126 -933 -64
-28 -73 -35 -67 -53 21 -72 38 -174 30 -191 -6 -15 -11 -1 -21 55 -13 81 -32
140 -43 140 -4 0 -54 -18 -112 -39 -295 -111 -589 -177 -907 -201 -143 -12
-303 -4 -329 16 -17 12 -16 14 7 39 14 15 93 76 175 136 276 200 552 420 758
603 l97 87 -72 106 c-111 162 -224 291 -298 341 -64 44 -66 44 -130 39 -36 -3
-123 -23 -195 -43 -263 -74 -344 -93 -451 -105 -132 -14 -237 -7 -296 19 -110
48 -172 199 -185 450 l-6 112 -62 0 c-124 0 -215 78 -215 185 0 61 28 112 70
128 40 15 45 34 11 51 -52 27 -141 145 -141 188 0 6 11 23 24 37 29 32 46 81
46 132 0 42 18 58 67 60 25 1 24 2 -12 14 -22 7 -56 16 -75 19 -123 21 -177
144 -114 262 42 79 119 171 378 450 149 161 271 316 312 395 35 69 41 114 59
434 9 154 23 309 31 345 19 84 109 266 176 354 59 78 152 152 204 162 169 32
324 -87 573 -441 243 -345 285 -402 366 -500 133 -162 285 -268 384 -269 45
-1 46 0 70 48 39 78 40 289 6 731 -18 229 -26 392 -23 470 8 213 27 222 247
119 163 -76 288 -182 383 -321 71 -106 104 -140 154 -159 39 -15 52 -15 101
-4 120 26 225 91 331 204 50 54 127 157 165 223 5 8 -21 26 -74 54 -156 81
-251 204 -265 345 -18 170 96 299 248 281 106 -13 200 -79 229 -163 31 -88 6
-259 -61 -416 -17 -39 -28 -74 -25 -78 12 -19 154 -45 250 -45 92 0 104 2 152
29 117 65 158 206 118 412 -8 42 -60 220 -115 394 -55 174 -100 321 -100 327
0 5 -25 10 -57 10 -47 -1 -79 8 -168 47 -138 60 -155 70 -155 100 0 30 30 54
135 112 l80 43 -97 1 c-59 0 -99 4 -104 11 -10 17 86 107 146 136 71 34 178
43 203 18 25 -25 21 -50 -15 -91 -31 -36 -32 -37 -8 -29 48 14 118 66 146 108
40 60 46 157 12 206 -55 81 -160 95 -313 41 -204 -73 -276 -124 -630 -450 -88
-81 -182 -166 -208 -189 -47 -40 -77 -52 -77 -30 0 15 263 418 358 548 138
190 320 351 479 423 103 47 170 58 323 55 114 -3 143 -7 186 -26z m-5696 -269
c0 -5 -21 -24 -46 -42 -117 -84 -270 -263 -352 -412 -88 -160 -144 -349 -161
-543 -47 -550 253 -1077 754 -1321 206 -100 394 -139 630 -131 214 8 356 43
543 133 52 25 96 43 99 41 10 -11 -20 -48 -124 -148 -206 -199 -435 -321 -716
-381 -136 -29 -396 -31 -536 -5 -462 88 -839 374 -1041 792 -101 206 -142 385
-144 610 -1 255 42 442 154 670 148 301 406 543 723 679 135 58 217 80 217 58z
m696 -872 c60 -71 114 -130 120 -130 6 0 78 25 159 55 140 52 175 62 175 50 0
-3 -40 -71 -90 -151 -49 -80 -90 -148 -90 -151 0 -2 48 -65 106 -139 58 -73
103 -138 100 -142 -3 -5 -76 8 -163 29 -87 21 -164 39 -170 39 -7 0 -56 -65
-110 -145 -53 -80 -100 -142 -104 -138 -5 5 -14 84 -21 176 -9 134 -15 170
-27 176 -9 4 -85 27 -169 51 -89 25 -151 48 -149 54 2 6 74 40 161 75 l157 65
-7 178 c-4 116 -3 178 3 178 5 0 59 -58 119 -130z m6984 -3625 c72 -160 135
-293 138 -297 4 -4 161 -28 347 -54 187 -25 343 -49 347 -53 3 -3 -88 -118
-203 -254 -115 -137 -209 -253 -209 -258 0 -5 60 -141 134 -304 73 -162 132
-296 130 -298 -2 -2 -158 18 -346 44 -189 27 -346 48 -349 49 -3 0 -100 -112
-215 -249 -115 -137 -212 -248 -215 -246 -3 2 -66 136 -139 298 l-133 293
-345 47 c-190 26 -348 50 -351 52 -2 3 3 13 11 22 34 40 384 459 396 474 10
13 -10 64 -123 314 -75 164 -134 300 -131 302 3 3 161 -16 352 -42 l348 -48
19 24 c78 96 401 478 404 476 1 -2 61 -133 133 -292z"/>
<path d="M7230 7724 c-169 -32 -367 -163 -532 -352 -45 -51 -368 -518 -423
-612 -13 -22 38 23 270 236 313 288 383 337 580 410 171 63 290 47 353 -49 64
-96 11 -247 -111 -317 -49 -28 -50 -29 -26 -38 32 -13 55 -39 74 -87 23 -54
12 -114 -29 -168 l-33 -43 19 -65 c11 -35 57 -183 104 -329 99 -310 114 -375
114 -491 0 -109 -21 -176 -73 -235 -66 -75 -103 -89 -232 -89 -83 1 -129 6
-189 23 -43 13 -80 21 -81 20 -2 -2 -26 -37 -53 -78 -126 -187 -295 -326 -447
-366 -69 -19 -109 -17 -155 6 -41 21 -47 27 -165 187 -82 112 -151 174 -272
245 -79 46 -189 94 -241 104 -25 5 -30 2 -43 -28 -21 -48 -16 -306 11 -643 24
-301 24 -604 1 -679 -45 -142 -196 -107 -404 93 -102 98 -178 195 -368 466
-312 447 -427 561 -575 573 -28 2 -68 -1 -88 -8 -87 -28 -194 -149 -276 -310
-78 -154 -85 -194 -110 -625 -7 -104 -16 -212 -21 -240 -22 -118 -119 -255
-389 -545 -287 -309 -360 -408 -360 -488 0 -59 32 -109 84 -133 56 -26 73 -24
103 11 28 34 56 38 118 16 22 -8 56 -17 77 -21 75 -12 46 -53 -40 -56 l-37 -1
40 -8 c46 -9 87 -4 128 17 32 16 61 73 72 140 8 48 31 76 41 48 11 -27 -4
-145 -23 -184 -10 -19 -34 -46 -53 -59 -31 -21 -44 -23 -110 -19 -41 2 -100
10 -130 17 -62 15 -115 7 -107 -14 5 -13 -2 -57 -17 -103 -6 -19 -2 -22 45
-32 34 -8 110 -45 213 -105 89 -51 196 -113 238 -137 49 -28 76 -50 75 -59 -4
-28 -55 -105 -96 -148 -38 -39 -120 -87 -201 -118 -25 -10 -28 -13 -11 -11
l24 2 3 -130 c6 -260 84 -430 208 -451 68 -11 256 -6 346 10 47 9 148 34 225
56 376 111 408 108 553 -39 65 -67 201 -241 273 -351 l16 -24 113 115 c419
424 667 826 752 1223 41 190 24 520 -31 595 -42 59 -62 66 -199 66 -111 0
-144 -5 -260 -34 -104 -27 -147 -43 -195 -75 -143 -92 -333 -146 -523 -146
-126 0 -195 10 -313 47 -151 47 -216 114 -214 219 3 113 71 201 248 319 102
68 175 132 175 154 0 17 -37 40 -80 50 -72 17 -225 13 -360 -10 -172 -28 -256
-16 -350 51 -43 31 -38 42 14 35 l44 -7 -14 43 c-12 35 -13 52 -4 91 7 26 16
50 20 53 5 3 -11 25 -34 49 -39 38 -67 98 -53 112 8 8 240 -86 324 -132 45
-25 137 -81 204 -125 67 -44 123 -78 126 -76 2 3 -6 31 -19 63 l-23 58 -190
86 c-292 132 -435 224 -435 278 0 38 33 88 72 108 97 50 363 -21 549 -147 35
-23 147 -127 249 -230 205 -207 242 -232 369 -252 92 -14 94 -32 4 -24 -125
12 -172 44 -393 266 -224 225 -302 281 -473 339 -182 61 -304 55 -342 -18 -30
-59 -19 -72 134 -162 114 -66 421 -212 429 -203 9 9 -67 109 -100 132 -18 12
-74 34 -123 48 -157 46 -255 115 -255 181 0 73 172 44 344 -58 88 -52 135 -95
201 -183 29 -38 101 -114 159 -168 149 -138 144 -146 -42 -63 -67 30 -122 54
-122 53 0 -1 9 -31 20 -65 23 -72 24 -82 10 -82 -5 0 -76 44 -158 98 -172 113
-272 167 -401 217 -50 19 -93 35 -96 35 -13 0 27 -60 56 -83 27 -21 36 -23 63
-15 57 18 176 -35 176 -78 0 -7 19 -23 43 -35 76 -38 104 -79 79 -115 -33 -51
-195 -69 -306 -35 -81 25 -99 20 -33 -9 71 -31 129 -34 267 -11 131 22 306 27
374 11 50 -11 90 -41 94 -70 5 -30 -66 -97 -182 -174 -171 -112 -237 -197
-238 -302 -1 -105 72 -165 257 -216 121 -32 365 -32 490 1 82 21 264 96 254
105 -2 2 -44 -5 -94 -16 -124 -26 -288 -21 -360 11 -54 24 -118 80 -141 123
-20 39 -17 112 6 158 42 82 156 163 311 222 72 27 97 32 179 32 78 0 104 -4
145 -22 100 -46 166 -135 167 -227 1 -67 -16 -115 -58 -170 -19 -25 -32 -45
-30 -45 3 0 51 11 108 25 239 57 366 53 442 -14 59 -52 91 -220 82 -431 -9
-214 -52 -379 -157 -598 -136 -285 -308 -519 -603 -820 l-141 -143 19 -32 c94
-156 256 -481 271 -540 4 -15 13 -27 20 -27 8 0 78 33 157 73 315 161 606 381
819 620 192 215 318 405 454 682 131 266 198 457 219 627 l5 47 -58 31 c-93
50 -253 175 -441 347 -261 237 -303 288 -356 430 -34 90 -43 217 -20 295 29
100 117 165 264 195 56 12 83 13 115 5 23 -6 43 -10 44 -8 2 2 10 29 18 60 38
145 103 228 188 241 95 14 213 -48 258 -137 12 -24 24 -75 30 -127 16 -158 8
-933 -14 -1291 -3 -37 45 -41 68 -6 19 28 23 196 17 701 -4 305 1 341 54 412
48 63 195 80 426 49 148 -20 206 -4 271 76 100 123 107 197 33 358 -91 198
-96 211 -96 280 0 42 6 77 18 100 20 41 74 80 111 81 21 0 17 4 -25 23 -88 40
-217 132 -319 227 -17 17 68 89 233 196 89 58 162 107 162 109 0 2 -17 12 -37
23 -56 28 -75 54 -81 111 -4 47 -3 52 35 89 31 31 56 44 128 66 149 45 178 58
217 97 44 44 57 92 35 134 -20 38 -55 70 -91 84 -24 9 -35 7 -70 -14 -62 -36
-161 -76 -237 -94 -54 -14 -79 -27 -123 -65 -31 -27 -56 -52 -56 -58 0 -14 48
-10 130 11 131 34 176 23 124 -31 -47 -49 -126 -82 -201 -83 -57 -1 -67 2 -85
23 -10 14 -17 33 -14 43 2 11 -5 28 -20 43 -17 17 -24 35 -24 63 l0 39 92 7
c83 6 98 11 145 42 90 60 178 96 247 101 37 3 72 13 85 22 23 17 23 17 -45 51
-83 41 -211 160 -283 265 -104 150 -205 374 -236 520 -25 122 -30 327 -11 472
27 207 -10 302 -134 349 -45 17 -271 29 -330 18z"/>
<path d="M7163 7131 c-68 -23 -153 -86 -153 -113 0 -4 46 -8 101 -8 116 0 152
14 189 76 18 28 20 37 10 49 -17 20 -83 19 -147 -4z"/>
<path d="M7131 6939 c-123 -62 -157 -88 -148 -112 9 -24 243 -117 293 -117 37
0 44 3 44 19 0 22 -25 51 -44 51 -7 0 -20 8 -30 19 -40 45 -38 131 5 177 34
37 10 29 -120 -37z"/>
<path d="M7261 6951 c-35 -49 -25 -127 19 -151 19 -10 20 -9 14 45 l-7 55 31
0 c21 0 37 -8 51 -26 27 -34 26 -46 -5 -83 -14 -17 -24 -39 -22 -48 3 -14 8
-11 27 15 45 64 45 138 0 196 -30 38 -80 36 -108 -3z"/>
<path d="M6813 6191 c-102 -26 -164 -133 -148 -256 10 -80 65 -184 129 -242
45 -41 178 -123 201 -123 12 0 76 151 96 227 59 233 -13 378 -197 397 -27 3
-64 1 -81 -3z"/>
<path d="M7927 5276 c-132 -85 -217 -150 -217 -166 0 -17 51 -11 145 15 50 14
102 25 116 25 25 0 26 2 22 45 -6 44 0 60 52 138 9 15 16 27 14 26 -2 0 -61
-38 -132 -83z"/>
<path d="M7777 5031 c92 -81 235 -160 289 -161 40 0 56 19 56 66 0 82 -83 121
-270 126 l-114 3 39 -34z"/>
<path d="M3984 4465 c-20 -51 77 -119 241 -170 123 -39 159 -66 228 -175 33
-52 40 -57 138 -100 56 -25 107 -47 113 -49 6 -1 -35 42 -91 98 -57 56 -120
125 -142 154 -21 28 -52 64 -67 78 -83 76 -258 161 -362 175 -44 5 -53 4 -58
-11z"/>
<path d="M6827 4315 c-54 -19 -83 -49 -117 -120 -40 -85 -55 -163 -36 -184 21
-24 46 -86 46 -116 0 -18 -5 -25 -20 -25 -24 0 -47 42 -56 101 -4 24 -12 47
-18 51 -21 14 -144 8 -204 -10 -84 -27 -145 -72 -174 -129 -19 -40 -23 -63
-23 -143 1 -109 24 -190 80 -284 49 -82 86 -122 247 -268 206 -188 309 -272
428 -351 l105 -69 7 38 c3 22 12 192 18 379 14 377 7 914 -12 977 -33 110
-173 189 -271 153z"/>
<path d="M3950 4081 c-15 -28 -12 -108 5 -140 31 -61 134 -53 174 13 40 65 35
75 -59 112 -101 39 -106 40 -120 15z"/>
<path d="M5092 3719 c-126 -22 -328 -134 -378 -209 -59 -89 -36 -192 55 -249
82 -50 107 -56 241 -55 170 1 305 35 362 91 94 92 116 225 51 315 -61 86 -200
130 -331 107z"/>
<path d="M3190 2773 c0 -44 34 -89 97 -129 32 -21 69 -45 83 -54 49 -32 314
-80 345 -63 14 8 -20 31 -181 124 -247 140 -265 149 -309 149 -32 0 -35 -3
-35 -27z"/>
<path d="M3295 2499 c-18 -83 19 -197 75 -227 67 -35 256 51 327 150 l31 44
-71 0 c-51 1 -101 10 -171 33 -54 17 -118 31 -141 31 -40 0 -44 -2 -50 -31z"/>
<path d="M5005 1188 c-165 -147 -331 -281 -633 -508 -157 -118 -284 -219 -281
-225 7 -18 389 -11 519 8 231 36 466 96 674 174 67 25 122 47 124 48 4 3 -83
206 -120 280 -43 85 -167 303 -176 309 -4 2 -52 -36 -107 -86z"/>
<path d="M1720 7391 c-339 -127 -635 -406 -785 -740 -36 -80 -29 -96 41 -96
45 0 50 -2 64 -32 12 -25 21 -33 43 -33 38 0 77 -41 77 -80 0 -23 4 -30 19
-30 23 0 61 -45 61 -72 0 -11 -5 -28 -11 -39 -8 -16 -5 -26 15 -50 33 -39 33
-64 -2 -98 -28 -28 -28 -28 -8 -54 24 -32 15 -73 -19 -89 -19 -8 -23 -16 -19
-34 7 -26 -33 -74 -61 -74 -8 0 -15 -8 -15 -18 0 -29 -25 -54 -53 -54 -16 0
-27 -6 -27 -14 0 -22 -43 -56 -66 -51 -13 2 -26 -4 -33 -16 -10 -16 -20 -18
-51 -13 l-38 6 19 -63 c10 -34 33 -96 51 -138 l33 -77 48 -5 c58 -5 102 -42
119 -101 7 -22 27 -53 46 -70 18 -17 49 -45 68 -62 19 -18 34 -26 34 -19 0 7
3 20 6 28 3 10 -2 18 -15 22 -32 10 -53 58 -41 90 8 22 6 32 -10 52 -21 27
-27 68 -10 78 18 11 11 156 -10 203 -17 39 -18 42 -2 42 53 0 162 -96 162
-143 0 -8 12 -22 26 -32 25 -16 27 -16 56 12 17 15 39 41 48 57 l18 29 -49 91
c-174 327 -206 736 -83 1092 66 192 174 364 325 517 58 59 106 107 105 107 0
-1 -35 -14 -76 -29z m-411 -493 c-5 -72 -9 -84 -33 -105 -15 -12 -37 -23 -49
-24 l-22 0 23 -9 c29 -12 28 -34 -3 -58 -14 -11 -23 -26 -20 -34 3 -8 -3 -22
-14 -32 -15 -14 -24 -15 -40 -7 -11 6 -31 11 -45 11 -31 0 -48 27 -34 53 7 14
5 24 -8 38 -24 26 -8 53 33 57 24 2 34 11 49 45 11 25 33 50 53 62 19 11 48
34 65 51 48 48 52 44 45 -48z m17 -1064 c-2 -23 -7 -47 -12 -55 -4 -8 -7 -24
-6 -35 4 -25 -9 -32 -63 -30 -31 1 -40 5 -43 21 -2 11 -13 28 -24 38 -15 15
-17 22 -7 33 6 8 17 14 24 14 15 0 27 25 30 63 2 15 20 48 41 73 l38 47 13
-64 c7 -35 11 -82 9 -105z"/>
<path d="M1143 6791 c-5 -18 -10 -21 -39 -15 -30 5 -34 4 -34 -15 0 -11 9 -26
19 -33 16 -10 17 -13 4 -26 -23 -23 -12 -47 22 -46 17 0 35 -6 41 -14 15 -21
37 -5 30 23 -4 17 0 25 19 33 30 14 34 52 6 52 -14 0 -21 8 -23 27 -4 35 -37
45 -45 14z"/>
<path d="M872 6488 c-19 -67 -20 -73 -5 -82 28 -16 64 -59 88 -107 13 -25 42
-68 64 -96 39 -50 39 -51 21 -68 -11 -10 -45 -66 -75 -125 -51 -101 -99 -160
-129 -160 -10 0 -10 -12 -3 -55 6 -30 14 -55 19 -55 5 0 16 -7 25 -15 20 -20
43 -16 57 10 6 11 12 22 13 24 2 2 9 -2 17 -8 24 -20 56 3 56 39 0 32 6 36 29
21 24 -15 51 6 51 39 0 25 4 30 23 30 36 0 61 33 54 70 -5 24 -3 30 11 30 41
0 57 57 25 92 -15 17 -14 19 10 42 34 32 34 66 1 106 -20 23 -24 34 -15 43 30
30 1 101 -47 112 -25 5 -27 9 -24 39 3 28 -1 37 -22 51 -16 11 -38 16 -56 13
-24 -4 -30 -1 -30 14 0 51 -37 71 -82 47 -17 -9 -23 -8 -30 5 -16 28 -24 18
-46 -56z"/>
<path d="M835 6338 c-22 -68 -34 -377 -16 -423 9 -22 5 -27 103 134 22 36 52
70 73 82 l36 22 -35 23 c-19 13 -51 51 -71 84 -52 85 -79 109 -90 78z"/>
<path d="M1216 5633 c7 -21 13 -66 14 -101 0 -75 20 -121 53 -122 15 0 6 96
-13 138 -10 23 -15 42 -10 42 15 0 40 -56 47 -105 7 -52 19 -58 28 -14 15 68
-27 149 -96 185 -38 19 -38 19 -23 -23z"/>
<path d="M1527 5554 c-4 -4 -7 -25 -7 -47 0 -35 6 -46 50 -86 36 -33 54 -59
64 -94 20 -66 31 -77 80 -77 29 0 53 -8 76 -25 34 -25 74 -33 84 -16 3 5 -6
16 -20 26 -78 51 -234 208 -307 308 -7 10 -16 15 -20 11z"/>
<path d="M1463 5474 c-40 -36 -40 -46 -8 -78 14 -14 25 -36 25 -50 0 -20 9
-29 43 -44 45 -21 71 -45 81 -78 5 -17 0 -23 -26 -32 -18 -6 -53 -18 -78 -27
-54 -20 -98 -13 -134 20 -15 14 -30 25 -33 25 -10 0 8 -119 26 -172 41 -119
59 -143 141 -192 148 -90 322 -153 499 -182 117 -19 152 -19 144 2 -4 12 -14
14 -40 9 -41 -7 -83 15 -83 45 0 11 -7 20 -15 20 -24 0 -65 46 -65 72 0 15 -9
27 -22 33 -17 7 -23 19 -24 41 0 17 -10 40 -22 52 -24 24 -29 57 -11 68 8 5 6
10 -5 16 -20 11 -21 51 -1 68 9 8 13 21 9 36 -4 16 1 30 19 48 l25 25 -47 -5
c-39 -5 -51 -2 -80 20 -25 18 -47 26 -76 26 -51 0 -70 18 -90 87 -11 39 -26
59 -60 87 -25 21 -48 49 -52 64 l-8 27 -32 -31z"/>
<path d="M1322 5428 c-7 -7 -12 -18 -12 -25 0 -9 -9 -11 -30 -6 -25 5 -30 2
-30 -15 0 -11 7 -22 15 -26 11 -4 13 -11 5 -31 -17 -46 12 -74 41 -39 11 14
13 14 21 0 5 -9 18 -16 30 -16 16 0 19 5 16 25 -4 20 -1 25 14 25 10 0 21 7
24 15 8 20 -13 45 -37 45 -14 0 -19 7 -19 30 0 31 -17 39 -38 18z"/>
<path d="M1006 5343 c25 -43 64 -103 87 -133 42 -55 198 -223 203 -218 6 7
-36 142 -54 171 -10 18 -38 45 -61 61 -34 23 -50 44 -73 96 -32 72 -64 100
-117 100 l-31 0 46 -77z"/>
<path d="M1400 5301 c0 -5 -3 -16 -6 -25 -4 -11 4 -20 27 -31 19 -8 29 -14 22
-15 -7 0 -28 8 -48 17 -42 20 -52 13 -36 -25 14 -34 49 -55 89 -55 29 0 142
42 142 53 0 18 -38 55 -74 71 -43 19 -116 26 -116 10z"/>
<path d="M1892 5168 c-15 -15 -16 -45 -1 -53 6 -5 3 -13 -10 -22 -25 -17 -28
-58 -5 -67 13 -5 14 -9 4 -21 -19 -22 -4 -64 25 -71 20 -5 23 -9 15 -20 -20
-23 -8 -59 20 -62 23 -3 25 -7 22 -37 -3 -27 1 -36 21 -49 13 -9 32 -14 41
-10 13 5 16 0 16 -25 0 -42 30 -58 71 -37 30 15 31 15 41 -14 9 -27 14 -30 51
-30 23 0 49 4 57 10 9 5 19 5 26 -1 7 -6 32 -9 55 -7 37 3 53 14 65 46 0 1 18
-5 39 -14 36 -15 44 -14 124 6 101 25 244 80 320 123 l53 30 -32 13 c-18 8
-60 36 -95 64 -52 42 -70 50 -104 50 -38 0 -40 -2 -30 -18 18 -28 2 -71 -31
-90 -23 -13 -30 -24 -30 -49 0 -22 -6 -36 -19 -43 -30 -15 -33 -12 -10 11 15
15 19 28 14 50 -6 25 -4 29 14 29 38 0 68 74 39 97 -7 6 -36 13 -65 16 -47 5
-53 4 -67 -18 -21 -31 -61 -52 -149 -76 -38 -11 -86 -28 -108 -39 -21 -11 -40
-20 -43 -20 -2 0 -14 15 -25 33 -11 19 -57 62 -102 97 -44 35 -85 72 -90 81
-5 10 -9 38 -9 63 0 41 -3 48 -32 66 -38 23 -59 25 -76 8z"/>
<path d="M3182 5079 c-91 -39 -262 -89 -308 -89 -12 0 -25 -4 -28 -9 -7 -11
62 -74 105 -96 l32 -17 70 48 c61 42 241 203 227 203 -3 0 -47 -18 -98 -40z"/>
<path d="M2060 5083 c0 -14 12 -36 29 -51 115 -107 130 -124 136 -152 6 -27
10 -29 37 -25 17 3 38 9 47 14 9 4 46 16 84 26 66 17 148 73 121 82 -7 2 -24
-7 -39 -21 -25 -24 -121 -63 -131 -54 -2 3 15 11 38 18 48 14 103 49 93 59 -4
3 -33 11 -66 17 -57 10 -59 10 -53 -9 6 -18 3 -19 -23 -14 -26 5 -32 2 -42
-19 -14 -32 -35 -26 -39 10 -2 18 -9 26 -20 25 -33 -3 -35 1 -14 24 l22 23
-90 36 -90 36 0 -25z"/>
<path d="M2477 6628 c1 -18 4 -91 6 -162 l4 -128 -29 -10 c-22 -8 -27 -15 -23
-29 3 -10 1 -27 -4 -38 -8 -13 -8 -28 -1 -46 7 -18 7 -33 0 -45 -9 -17 -5 -21
29 -31 l39 -12 7 -86 c4 -47 10 -119 13 -160 l7 -74 88 132 88 133 40 -7 c40
-7 41 -7 43 40 1 12 15 26 39 37 42 21 47 42 17 81 -11 14 -20 27 -20 30 0 3
36 63 79 133 44 71 78 130 76 132 -2 2 -65 -19 -141 -47 -75 -28 -140 -51
-145 -51 -5 0 -50 48 -100 108 -125 146 -115 138 -112 100z m433 -173 c0 -18
-29 -37 -93 -61 -36 -13 -55 -28 -73 -56 -14 -22 -31 -41 -39 -45 -11 -4 -8
-12 15 -33 17 -15 30 -33 30 -39 0 -20 -52 -34 -82 -23 -21 8 -28 7 -28 -2 0
-6 -8 -27 -18 -46 -11 -19 -22 -65 -25 -102 -3 -38 -11 -77 -17 -88 -14 -26
-47 -26 -55 0 -7 22 10 51 29 49 7 0 6 -2 -1 -6 -17 -6 -17 -56 -1 -51 20 7
30 69 23 133 -4 33 -7 79 -8 102 -2 36 -5 42 -20 37 -22 -7 -77 5 -77 16 0 5
22 19 48 31 48 22 49 23 36 48 -16 30 -18 107 -4 116 14 9 70 -49 70 -73 0
-31 11 -33 42 -7 16 13 45 27 66 30 48 8 151 45 158 57 3 5 3 12 -1 16 -3 3
-10 0 -15 -8 -5 -8 -12 -11 -15 -8 -12 12 6 28 31 28 14 0 24 -6 24 -15z"/>
<path d="M2393 6272 c-7 -15 -10 -45 -7 -67 l5 -40 -17 39 c-14 31 -15 42 -5
58 7 11 10 22 8 25 -3 2 -46 -13 -96 -33 -50 -21 -90 -39 -88 -40 2 -2 49 -15
106 -30 86 -22 105 -24 112 -13 5 8 7 23 3 34 -8 28 -8 36 1 68 9 35 -7 35
-22 -1z"/>
<path d="M9225 2994 c-104 -124 -197 -234 -205 -244 -14 -17 -30 -16 -355 29
-187 26 -341 47 -343 45 -2 -1 55 -131 127 -289 72 -159 131 -293 131 -299 0
-6 -93 -121 -206 -256 -114 -134 -203 -245 -198 -247 5 -1 160 -23 344 -49
184 -25 336 -47 336 -47 1 -1 62 -134 135 -295 125 -277 134 -292 148 -274 9
11 101 122 206 246 132 157 196 226 210 226 11 0 166 -20 344 -45 179 -25 325
-44 326 -42 1 1 -58 134 -131 296 -111 244 -132 297 -121 310 6 8 99 118 205
244 105 126 192 232 192 236 0 4 -145 26 -322 50 -178 24 -332 47 -343 51 -14
6 -57 90 -149 294 -71 157 -132 286 -135 286 -3 0 -91 -102 -196 -226z m322
-100 c67 -148 128 -272 135 -276 7 -4 139 -23 293 -43 331 -43 345 -45 345
-55 0 -5 -87 -112 -194 -240 l-194 -232 18 -42 c10 -22 66 -146 124 -275 59
-129 103 -238 99 -242 -4 -4 -150 12 -323 36 -268 37 -317 41 -330 30 -9 -8
-96 -111 -195 -229 -99 -119 -186 -214 -193 -213 -7 1 -67 121 -133 267 -66
145 -123 268 -128 273 -4 4 -140 25 -302 47 -336 46 -339 47 -339 61 0 6 81
106 179 224 99 117 185 222 192 232 9 16 -8 61 -110 286 -67 146 -121 271
-121 277 0 15 7 14 333 -31 164 -22 304 -39 311 -36 7 3 98 107 202 231 104
124 193 224 199 223 5 -2 64 -125 132 -273z"/>
<path d="M9245 2933 c-87 -103 -167 -197 -177 -209 l-19 -21 293 -41 c161 -22
294 -40 294 -39 3 4 -217 482 -225 490 -4 4 -79 -77 -166 -180z m256 -65 c49
-109 89 -202 89 -207 0 -6 -12 -8 -27 -5 -16 2 -124 18 -241 34 -118 16 -215
30 -217 32 -6 6 288 349 297 346 5 -2 49 -92 99 -200z"/>
<path d="M9260 2894 c-72 -86 -129 -158 -127 -161 7 -7 429 -64 434 -59 6 6
-160 375 -169 376 -3 0 -66 -70 -138 -156z"/>
<path d="M8414 2744 c37 -97 220 -482 227 -478 15 9 349 407 345 411 -2 3
-558 83 -574 83 -2 0 -1 -7 2 -16z m291 -47 c127 -18 230 -36 229 -41 0 -16
-289 -354 -295 -347 -5 5 -173 372 -186 407 -7 18 -18 19 252 -19z"/>
<path d="M8485 2678 c54 -129 155 -343 162 -345 4 -1 68 70 141 158 119 143
130 159 110 164 -32 7 -388 55 -409 55 -16 0 -17 -3 -4 -32z m237 -68 c24 -25
29 -36 24 -58 -9 -34 -41 -62 -73 -62 -32 0 -73 42 -73 75 0 31 41 75 70 75
12 0 35 -14 52 -30z"/>
<path d="M8852 2466 c-98 -116 -183 -218 -190 -227 -10 -14 6 -57 104 -275 64
-143 122 -264 128 -270 9 -9 521 -83 604 -88 17 -1 63 47 210 223 l189 224
-119 261 c-66 143 -123 264 -127 269 -4 4 -146 27 -315 51 l-308 43 -176 -211z
m487 143 c163 -22 297 -42 297 -42 1 -1 54 -116 117 -256 l115 -254 -175 -209
c-97 -115 -180 -211 -185 -214 -10 -7 -551 64 -583 76 -14 6 -53 80 -134 258
l-114 251 29 35 c103 126 330 395 333 395 3 1 138 -17 300 -40z"/>
<path d="M8869 2428 c-96 -115 -173 -211 -172 -216 3 -15 215 -477 221 -484 7
-7 584 -90 587 -85 1 2 296 356 333 399 13 15 3 43 -98 266 l-112 248 -293 40
-292 39 -174 -207z m40 0 c-85 -101 -160 -191 -168 -201 -12 -15 -2 -44 90
-245 56 -125 104 -229 106 -232 2 -2 126 -21 276 -42 257 -35 273 -36 289 -20
9 9 84 97 166 196 l150 178 -32 72 c-18 39 -65 144 -105 233 -82 181 -60 160
-191 183 l-55 9 65 -5 c120 -10 106 4 197 -197 45 -100 93 -208 107 -239 l25
-57 -166 -198 c-92 -109 -167 -199 -169 -201 -3 -5 -526 68 -547 76 -11 4 -58
94 -122 237 -58 126 -105 233 -105 237 0 11 333 408 338 403 2 -2 -65 -86
-149 -187z m415 57 c-4 -9 2 -18 17 -24 l24 -10 -22 0 c-19 -1 -23 -7 -23 -31
0 -17 5 -30 13 -30 9 0 9 -2 0 -8 -6 -4 -13 -25 -15 -47 -3 -35 0 -40 19 -43
15 -2 32 7 48 24 l26 28 -33 18 c-18 9 -28 17 -23 17 6 0 21 -6 35 -14 32 -18
40 -18 40 -1 0 7 12 21 26 31 16 10 23 22 20 32 -6 13 -4 14 9 3 13 -10 13
-15 3 -21 -9 -6 -5 -17 19 -41 17 -18 40 -48 52 -67 16 -28 21 -32 27 -18 3 9
10 14 15 11 11 -6 12 -35 2 -33 -5 1 -22 -4 -40 -10 -36 -14 -51 -44 -33 -66
12 -15 6 -35 -11 -35 -5 0 -9 16 -9 35 0 34 -12 46 -25 24 -4 -5 -18 -14 -31
-19 -13 -5 -24 -16 -24 -23 0 -20 44 -40 74 -35 16 3 26 1 26 -7 0 -6 13 -12
30 -12 27 0 29 3 33 46 l3 46 2 -54 c2 -42 5 -52 17 -48 19 8 24 -3 14 -28 -5
-15 -8 -16 -8 -4 -1 24 -98 26 -104 2 -4 -15 -5 -15 -6 2 -1 17 -8 20 -41 20
-24 0 -42 -5 -45 -13 -12 -32 49 -88 66 -61 5 8 9 18 9 23 0 5 3 6 6 3 4 -4 0
-17 -9 -30 -14 -22 -13 -24 23 -54 29 -25 40 -29 50 -20 10 10 10 8 2 -8 -6
-11 -25 -33 -44 -50 l-33 -30 28 31 c32 36 34 48 7 41 -11 -3 -18 0 -17 6 1 6
-9 16 -23 23 -21 11 -27 11 -45 -4 -20 -17 -20 -17 -1 5 18 22 18 23 0 29 -11
4 -27 14 -36 22 -14 11 -21 12 -32 3 -13 -11 -11 -34 8 -96 2 -5 6 -22 11 -37
8 -32 8 -32 38 -17 21 10 21 10 3 -5 -11 -9 -24 -16 -30 -16 -6 0 -5 -5 2 -12
7 -7 12 -16 12 -20 0 -4 -9 1 -20 12 -11 11 -20 26 -20 34 0 26 -25 36 -77 29
-47 -5 -51 -8 -55 -34 -4 -27 -2 -28 41 -32 l46 -3 -52 -2 c-42 -2 -51 -5 -47
-17 5 -11 -1 -15 -22 -14 -21 1 -23 3 -8 6 17 3 20 11 19 49 -1 27 -8 50 -16
55 -11 7 -11 9 3 9 13 0 16 9 15 42 -2 53 -26 61 -62 22 -21 -22 -23 -30 -13
-42 11 -13 10 -14 -9 -4 -19 10 -23 9 -28 -8 -3 -11 -11 -20 -17 -20 -5 0 -8
-7 -5 -14 4 -10 1 -13 -9 -9 -8 3 -14 -1 -14 -11 0 -20 -16 -21 -24 0 -3 8 -2
12 4 9 19 -12 10 19 -12 44 l-23 26 25 -21 c26 -22 50 -22 50 1 0 8 6 20 13
27 21 21 50 86 43 97 -6 10 -38 9 -66 -1 -26 -10 -105 -33 -112 -33 -3 0 -10
-3 -14 -7 -4 -5 -12 -8 -18 -8 -6 0 -3 5 7 11 9 5 17 16 17 24 0 8 7 11 18 8
10 -2 26 5 36 16 10 11 23 17 30 15 7 -3 19 2 26 11 7 8 19 15 26 15 20 0 17
30 -3 46 -10 7 -28 14 -40 14 -18 0 -22 -7 -26 -37 l-4 -38 -1 41 c-2 40 -4
42 -39 47 -21 4 -42 8 -48 9 -5 2 -12 -17 -15 -42 l-6 -45 -4 52 c-3 32 -1 52
5 52 25 -3 35 2 36 19 0 13 2 12 9 -5 11 -26 10 -26 44 -13 14 5 26 6 26 1 0
-4 20 -8 45 -8 37 0 45 4 45 19 0 24 -47 71 -62 62 -7 -5 -8 -3 -4 5 5 8 -8
27 -33 50 -38 36 -40 39 -24 52 16 13 17 12 4 -3 -12 -16 -11 -18 8 -18 11 0
21 -5 21 -10 0 -6 12 -15 27 -21 21 -8 30 -6 47 9 12 11 28 22 36 27 8 4 0 -5
-17 -20 -18 -14 -33 -30 -33 -33 0 -13 68 -45 79 -38 14 9 14 63 1 71 -5 3
-10 14 -10 24 0 10 -6 30 -13 44 -11 20 -17 23 -33 15 -13 -6 -11 -3 5 10 24
19 15 40 -11 27 -7 -4 -4 1 6 9 11 9 27 16 35 16 13 0 13 -2 2 -9 -20 -13 2
-23 36 -16 l28 5 -27 -11 c-33 -13 -35 -29 -8 -54 11 -10 17 -21 15 -25 -3 -4
2 -13 10 -20 8 -7 15 -21 15 -31 0 -21 34 -27 46 -8 7 12 23 70 29 106 2 12 6
27 10 32 3 6 -2 12 -12 12 -17 1 -17 2 0 6 35 9 15 22 -40 26 l-58 3 67 2 c56
2 66 0 62 -13z"/>
<path d="M9218 2263 c-51 -25 -78 -63 -80 -115 -4 -107 95 -177 190 -134 49
23 74 59 79 115 9 104 -96 178 -189 134z"/>
<path d="M9695 2571 c3 -8 54 -121 113 -252 84 -188 109 -235 120 -227 16 14
336 396 339 406 2 4 -128 25 -287 48 -240 33 -290 38 -285 25z m299 -52 c122
-17 223 -32 225 -35 2 -2 -2 -12 -11 -21 -8 -10 -74 -89 -147 -176 -74 -87
-137 -155 -141 -150 -6 7 -72 149 -166 361 l-24 52 22 0 c12 0 121 -14 242
-31z"/>
<path d="M9763 2509 c22 -52 159 -354 163 -357 2 -4 254 291 266 313 6 9 -43
19 -195 39 -111 15 -212 30 -225 33 -23 5 -23 5 -9 -28z m245 -66 c12 -10 24
-30 28 -45 5 -22 0 -34 -25 -59 -25 -25 -37 -30 -59 -25 -60 15 -80 79 -37
121 28 29 65 32 93 8z"/>
<path d="M8470 2013 c-85 -102 -165 -197 -177 -212 l-22 -28 292 -41 c160 -22
292 -40 293 -39 1 2 -225 500 -229 502 -1 1 -72 -81 -157 -182z m245 -63 c50
-110 91 -207 93 -215 3 -11 -4 -14 -25 -10 -15 3 -124 19 -242 35 -117 16
-215 30 -217 32 -4 5 288 357 296 357 3 0 46 -89 95 -199z"/>
<path d="M8478 1964 c-76 -90 -136 -164 -133 -164 2 0 102 -14 221 -30 119
-17 219 -28 221 -26 4 4 -155 365 -166 377 -3 4 -68 -67 -143 -157z m161 -20
c12 -15 21 -34 21 -44 0 -34 -39 -70 -75 -70 -36 0 -75 36 -75 70 0 34 39 70
75 70 24 0 39 -7 54 -26z"/>
<path d="M9736 1816 c-94 -111 -171 -207 -173 -212 -3 -9 564 -91 571 -83 4 5
-212 481 -222 491 -4 4 -83 -85 -176 -196z m266 -53 c62 -138 90 -209 82 -211
-14 -3 -466 57 -472 63 -2 2 0 10 5 18 14 24 278 336 284 337 4 0 49 -93 101
-207z"/>
<path d="M9761 1789 c-73 -88 -132 -161 -130 -163 4 -4 443 -65 445 -62 3 2
-167 371 -174 378 -4 3 -67 -65 -141 -153z m172 -21 c9 -11 17 -31 17 -45 0
-32 -42 -73 -75 -73 -31 0 -75 41 -75 70 0 71 86 103 133 48z"/>
<path d="M8910 1653 c0 -3 222 -497 225 -501 1 -1 82 92 180 208 97 116 175
213 174 214 -6 4 -579 82 -579 79z m304 -64 c122 -17 223 -32 225 -34 2 -3
-63 -83 -144 -180 -82 -97 -151 -172 -155 -168 -6 7 -73 151 -166 361 l-24 52
22 0 c12 0 121 -14 242 -31z"/>
<path d="M8983 1579 c27 -62 159 -354 162 -357 2 -2 220 254 263 309 11 14 -9
19 -191 43 -111 15 -212 30 -225 33 -23 5 -23 5 -9 -28z"/>
</g>
</svg>
