<?xml version="1.0" standalone="no"?>
<!DOCTYPE svg PUBLIC "-//W3C//DTD SVG 20010904//EN"
 "http://www.w3.org/TR/2001/REC-SVG-20010904/DTD/svg10.dtd">
<svg version="1.0" xmlns="http://www.w3.org/2000/svg"
 width="1041.000000pt" height="295.000000pt" viewBox="0 0 1041.000000 295.000000"
 preserveAspectRatio="xMidYMid meet">

<g transform="translate(0.000000,295.000000) scale(0.100000,-0.100000)"
fill="#000000" stroke="none">
<path d="M8108 1797 l-3 -1093 -735 1083 -735 1083 -207 0 c-115 0 -208 -3
-208 -6 0 -3 27 -45 60 -92 l60 -87 0 -1298 0 -1297 25 0 25 0 2 1253 3 1252
869 -1278 c478 -702 875 -1277 883 -1277 11 0 13 242 13 1425 l0 1425 -25 0
-25 0 -2 -1093z"/>
<path d="M40 1475 l0 -1395 528 0 c562 0 742 8 893 39 418 87 727 315 902 666
201 405 206 1014 11 1408 -165 335 -463 554 -866 636 -158 33 -341 41 -915 41
l-553 0 0 -1395z m1320 1326 c178 -48 346 -153 445 -279 68 -85 151 -248 190
-369 19 -60 47 -175 61 -258 24 -137 27 -173 27 -420 0 -223 -4 -296 -22 -421
-22 -157 -72 -348 -116 -448 -119 -269 -328 -427 -630 -476 -87 -15 -408 -14
-558 0 -120 12 -301 37 -329 46 -17 5 -18 77 -18 1330 l0 1325 433 -3 c414 -4
436 -5 517 -27z"/>
<path d="M2810 1480 l0 -1390 58 0 c33 0 107 -3 165 -7 l107 -6 0 1396 0 1397
-165 0 -165 0 0 -1390z"/>
<path d="M3358 2803 c496 -1286 1072 -2758 1079 -2760 7 -3 943 2795 943 2820
0 5 -12 7 -26 5 -25 -3 -36 -35 -402 -1165 -207 -640 -379 -1159 -383 -1155
-3 4 -201 528 -439 1165 l-432 1157 -183 0 -183 0 26 -67z"/>
<path d="M5580 1480 l0 -1390 58 0 c33 0 107 -3 165 -7 l107 -6 0 1396 0 1397
-165 0 -165 0 0 -1390z"/>
<path d="M8550 1480 l0 -1390 839 0 839 0 16 73 c36 163 47 229 42 235 -12 11
-228 -37 -490 -108 -407 -111 -465 -121 -713 -127 l-213 -5 0 671 0 671 375 0
375 0 0 35 0 35 -375 0 -375 0 0 620 0 620 103 0 c255 0 451 -29 852 -128 169
-42 403 -88 410 -81 2 3 -11 63 -29 134 l-32 130 -812 3 -812 2 0 -1390z"/>
</g>
</svg>
