<?xml version="1.0" standalone="no"?>
<!DOCTYPE svg PUBLIC "-//W3C//DTD SVG 20010904//EN"
 "http://www.w3.org/TR/2001/REC-SVG-20010904/DTD/svg10.dtd">
<svg version="1.0" xmlns="http://www.w3.org/2000/svg"
 width="800.000000pt" height="800.000000pt" viewBox="0 0 800.000000 800.000000"
 preserveAspectRatio="xMidYMid meet">

<g transform="translate(0.000000,800.000000) scale(0.100000,-0.100000)"
fill="#000000" stroke="none">
<path d="M4472 6789 c-161 -166 -203 -223 -228 -315 l-16 -62 -37 15 c-54 23
-128 -3 -197 -69 l-53 -50 -11 43 c-20 74 -68 156 -110 190 -22 18 -40 36 -40
41 0 24 -121 168 -142 168 -20 0 -61 -46 -96 -110 -41 -74 -57 -186 -49 -344
3 -67 13 -143 21 -171 26 -84 21 -96 -20 -50 -20 22 -59 76 -88 120 -59 89
-81 112 -91 95 -8 -12 12 -76 66 -213 22 -53 39 -102 39 -108 0 -6 -44 36 -99
93 -112 117 -144 140 -165 117 -8 -8 -28 -59 -46 -114 -37 -116 -36 -133 11
-315 50 -192 106 -259 263 -313 36 -13 68 -26 71 -28 2 -3 -60 -10 -138 -17
-144 -12 -287 -45 -287 -66 0 -8 45 -11 143 -12 78 0 169 -5 202 -12 33 -7 70
-15 81 -17 18 -4 25 -19 39 -77 10 -40 29 -102 42 -137 13 -35 22 -65 21 -66
-2 -1 -35 -19 -74 -39 -85 -44 -190 -134 -175 -149 7 -7 29 -2 70 17 58 26 96
31 191 28 l45 -2 99 -192 99 -191 -27 -79 c-15 -44 -53 -145 -85 -226 -32 -81
-80 -208 -106 -282 -26 -74 -55 -156 -66 -181 -51 -128 -174 -579 -245 -904
-35 -157 -114 -739 -114 -835 0 -28 -3 -50 -8 -50 -24 0 -390 1135 -445 1380
-9 42 -8 48 22 94 24 38 31 61 31 98 0 35 4 50 15 55 41 15 85 152 85 264 0
71 -4 84 -54 195 -76 169 -87 209 -93 362 -7 154 -19 166 -46 46 -23 -104 -18
-254 12 -338 30 -84 26 -82 -19 9 -36 73 -98 164 -220 322 -44 57 -91 171
-105 256 -4 24 -11 37 -22 37 -13 0 -15 -13 -11 -95 2 -52 1 -95 -3 -95 -4 0
-12 12 -18 28 -18 40 -38 65 -50 58 -6 -4 2 -40 20 -94 61 -178 58 -226 -27
-414 -90 -199 -104 -272 -84 -429 16 -130 76 -229 158 -262 20 -8 60 -37 87
-65 54 -54 114 -78 164 -67 l28 6 38 -146 c20 -80 36 -148 33 -150 -2 -2 -52
21 -111 51 -59 30 -110 54 -112 54 -16 0 0 -34 35 -76 25 -30 40 -59 40 -76 0
-41 16 -74 67 -140 40 -53 43 -59 22 -53 -43 14 -83 37 -128 76 -38 34 -132
79 -164 79 -7 0 -38 18 -71 40 -58 40 -59 40 -155 40 -53 0 -123 -5 -156 -10
-33 -5 -109 -12 -170 -16 -173 -9 -185 -15 -99 -54 66 -29 122 -77 161 -138
42 -65 97 -119 165 -163 64 -42 120 -43 234 -6 43 14 100 28 126 31 26 3 73
19 104 36 61 32 101 37 149 16 l30 -13 -57 -27 c-33 -15 -74 -46 -96 -71 -41
-46 -120 -191 -110 -201 4 -3 32 15 65 39 40 31 72 47 103 52 73 12 116 34
159 81 22 24 46 44 54 44 8 0 33 -17 55 -37 37 -35 45 -53 97 -213 32 -96 102
-302 156 -457 l99 -282 -1 -138 c-1 -121 37 -512 56 -574 7 -22 293 -145 307
-131 7 7 4 27 -10 64 -53 144 -159 750 -139 801 3 8 34 29 68 46 48 24 75 31
121 31 78 0 110 -15 192 -90 66 -60 152 -110 189 -110 20 0 22 11 5 28 -17 17
32 16 102 -3 64 -17 156 -20 165 -4 4 6 -1 16 -11 24 -17 12 -11 15 56 35 41
13 81 27 88 33 19 15 14 30 -8 24 -28 -7 -26 19 3 37 12 8 69 27 125 42 107
29 264 99 270 122 3 9 -4 11 -25 6 l-28 -7 32 34 c17 19 53 63 80 99 41 55 63
73 143 118 106 59 150 98 185 157 33 58 40 85 21 85 -13 0 -12 5 5 34 20 35
49 150 49 200 0 21 -4 27 -15 22 -8 -3 6 20 30 50 50 61 105 163 105 194 0 12
-7 20 -16 20 -14 0 -16 15 -12 123 3 108 7 129 31 182 15 33 35 67 43 77 30
32 8 41 -91 33 l-93 -7 5 25 c4 20 -1 26 -27 36 -18 6 -43 8 -56 5 -19 -5 -24
-2 -24 14 0 16 -9 21 -44 26 -24 4 -56 4 -70 0 -22 -5 -26 -3 -26 15 0 18 -6
21 -37 21 -21 -1 -56 -7 -78 -15 -49 -18 -45 -18 -45 0 0 19 -33 19 -69 1 -15
-8 -65 -44 -110 -80 -83 -66 -105 -78 -95 -52 15 40 -59 13 -183 -67 -79 -52
-94 -56 -86 -27 8 29 -2 25 -68 -26 -43 -33 -79 -74 -122 -140 -34 -51 -65
-94 -69 -94 -3 0 -8 8 -10 18 -6 25 -37 -29 -99 -170 -28 -64 -64 -131 -80
-150 l-28 -33 -1 33 c0 17 -4 32 -9 32 -5 0 -37 -48 -72 -107 -40 -69 -64
-102 -67 -90 -6 29 -19 19 -41 -32 -40 -94 -51 -167 -51 -351 -1 -203 -6 -219
-85 -275 -81 -58 -79 -65 -72 178 4 116 11 244 16 282 6 39 22 159 36 268 23
185 56 366 135 742 53 251 115 449 286 907 33 87 62 158 65 158 7 0 43 -84 74
-172 9 -25 37 -81 64 -125 l47 -78 45 1 c24 1 64 8 89 17 25 9 71 23 103 33
32 9 100 42 150 72 51 30 118 68 150 84 l59 30 24 -23 c33 -31 94 -154 94
-190 0 -32 18 -48 31 -28 5 8 9 46 9 86 0 56 -7 91 -30 155 l-30 82 25 50 c14
27 28 71 31 98 4 27 10 50 13 53 4 2 30 -14 59 -36 65 -50 157 -198 174 -282
7 -32 17 -56 22 -54 17 6 24 63 14 119 -13 69 -44 129 -122 232 -36 48 -63 86
-61 86 2 0 73 -35 157 -78 162 -82 298 -131 437 -157 106 -19 200 -20 207 -1
3 7 -20 72 -50 143 -42 99 -60 158 -77 249 -33 187 -59 230 -172 290 l-71 37
99 29 c149 44 252 68 288 68 38 0 62 13 53 28 -4 6 -29 23 -56 38 -27 15 -47
30 -45 34 3 4 26 13 52 19 60 16 96 42 117 86 21 44 46 171 46 236 0 43 -4 54
-35 83 l-35 34 58 10 c138 25 251 94 312 193 37 60 35 81 -11 133 -32 37 -152
129 -181 139 -24 8 -23 18 7 78 14 28 24 58 21 67 -3 9 -27 30 -53 46 -27 16
-71 47 -99 68 -28 21 -56 38 -62 38 -6 0 -14 12 -18 28 -10 48 -56 151 -69
156 -17 6 -203 -21 -233 -34 -13 -5 -29 -10 -36 -10 -7 0 -32 38 -55 85 -23
47 -47 85 -54 85 -7 0 -25 -18 -41 -40 -16 -21 -46 -55 -67 -76 l-38 -37 -7
39 c-3 22 -16 56 -27 77 -20 36 -23 37 -71 36 -28 -1 -64 -4 -81 -8 -26 -6
-43 2 -117 54 -162 111 -265 175 -282 175 -10 0 -84 -68 -164 -151z m266 71
c93 -58 184 -118 223 -150 17 -13 18 -20 8 -52 -9 -27 -9 -61 -1 -130 l10 -93
-31 -35 c-41 -47 -100 -91 -166 -125 -51 -25 -58 -26 -109 -16 -31 6 -68 11
-84 11 -25 0 -28 3 -23 22 9 26 75 162 121 248 19 36 33 76 32 90 -4 31 -22
29 -26 -2 -2 -13 -46 -109 -97 -213 -119 -241 -122 -254 -101 -370 52 -280 48
-297 -41 -178 -32 43 -73 101 -90 128 -44 71 -112 212 -119 250 -3 18 2 79 11
136 25 160 50 203 230 385 82 85 152 154 153 154 2 0 47 -27 100 -60z m-1055
-182 c71 -88 87 -118 87 -167 l-1 -46 -20 38 c-28 52 -34 41 -14 -25 9 -29 21
-109 25 -178 17 -259 90 -460 263 -718 38 -57 89 -148 114 -202 l45 -98 -33
-78 c-37 -84 -73 -121 -107 -109 -12 3 -49 43 -82 88 -34 45 -89 118 -124 162
-73 93 -157 219 -173 261 -6 16 -23 59 -37 96 -23 59 -37 126 -61 298 -3 25
-15 81 -25 125 -39 168 -34 383 11 480 21 45 75 115 89 115 5 0 24 -19 43 -42z
m1457 26 c0 -4 -15 -21 -32 -39 -18 -17 -43 -58 -56 -91 -12 -32 -30 -70 -40
-82 -18 -24 -18 -23 -21 70 -2 105 5 121 59 136 41 12 90 15 90 6z m223 -78
c-5 -61 -3 -68 36 -142 23 -42 40 -78 38 -80 -9 -10 -163 37 -174 52 -7 10
-16 32 -19 50 -5 30 0 41 56 109 35 41 64 75 65 75 2 0 0 -29 -2 -64z m-188
37 c4 -10 13 -46 20 -79 8 -35 49 -133 95 -228 48 -97 84 -184 87 -209 l5 -42
-50 52 c-41 43 -52 63 -66 120 -16 63 -79 193 -133 273 -27 41 -29 73 -5 105
20 29 37 32 47 8z m241 -66 c12 -28 32 -77 44 -107 12 -30 29 -66 37 -78 17
-28 10 -40 -12 -22 -27 22 -105 190 -105 226 0 48 12 42 36 -19z m345 -74 c12
-27 24 -66 27 -87 5 -37 4 -39 -19 -33 -13 3 -62 8 -109 12 -47 3 -100 8 -118
11 l-33 5 31 39 c45 56 115 100 162 100 37 0 40 -3 59 -47z m-593 -85 c27 -46
51 -102 54 -125 8 -60 55 -156 94 -194 19 -18 34 -41 34 -51 0 -23 -27 -78
-38 -78 -5 0 -30 14 -58 32 -65 41 -289 148 -386 184 -43 16 -78 32 -78 36 0
4 15 15 33 24 91 47 165 126 251 267 17 28 18 29 32 9 8 -11 36 -58 62 -104z
m367 72 c-39 -40 -55 -43 -55 -11 0 10 14 24 33 34 55 27 63 19 22 -23z
m-1670 -66 c14 -23 34 -82 45 -131 14 -58 30 -100 48 -123 15 -19 36 -48 46
-64 l18 -28 -40 -42 c-40 -41 -81 -115 -82 -148 0 -31 -19 -29 -33 4 -22 52
-65 235 -77 328 -9 65 -9 108 0 183 12 95 13 97 31 81 10 -9 30 -36 44 -60z
m324 -40 c29 -11 38 -20 34 -33 -4 -15 -12 -18 -47 -14 -26 3 -56 -1 -81 -11
-56 -24 -32 -38 35 -20 30 8 59 14 65 14 6 0 16 -30 23 -67 19 -102 95 -248
217 -418 60 -82 127 -179 151 -215 69 -107 142 -262 158 -336 8 -38 20 -93 27
-121 7 -29 10 -55 7 -58 -11 -11 -53 16 -69 44 -17 29 -103 105 -240 212 -84
65 -196 195 -245 284 -23 42 -68 191 -80 262 -4 26 0 78 11 136 15 80 16 100
5 126 -12 29 -15 31 -69 31 -63 0 -124 25 -129 53 -5 25 69 94 132 123 61 28
48 27 95 8z m1335 -61 c148 -56 167 -71 247 -189 39 -58 77 -123 84 -145 l14
-40 -37 7 c-20 4 -118 33 -217 66 -99 32 -185 58 -191 58 -6 0 -14 18 -17 40
-3 22 -30 91 -60 154 -30 63 -53 117 -51 119 7 6 119 -28 228 -70z m154 46
c53 -6 106 -16 118 -24 38 -25 75 -231 45 -250 -6 -3 -24 16 -42 42 -72 106
-106 139 -181 173 -40 18 -76 38 -80 44 -21 30 -7 31 140 15z m242 -64 c44
-30 85 -55 90 -55 19 0 10 -29 -11 -41 -12 -6 -41 -29 -64 -50 l-42 -39 -7 52
c-4 29 -18 83 -31 121 -14 37 -23 67 -20 67 2 0 41 -25 85 -55z m-1292 -111
c18 -7 118 -100 235 -217 274 -277 302 -294 532 -323 156 -19 225 -36 331 -79
99 -39 112 -42 93 -18 -31 37 -237 104 -364 118 -102 11 -186 35 -280 80 -107
51 -198 126 -344 284 -57 62 -124 126 -148 143 -23 17 -41 33 -40 35 9 8 161
-28 224 -53 219 -85 387 -181 583 -330 52 -39 124 -86 160 -104 83 -42 217
-129 253 -165 16 -16 27 -38 27 -54 -1 -56 -38 -214 -56 -238 -27 -36 -93 -59
-273 -94 -86 -17 -228 -53 -315 -80 -88 -27 -198 -54 -245 -60 -84 -12 -87
-11 -138 14 -47 24 -52 30 -58 69 -4 24 -13 66 -21 93 -7 28 -16 66 -18 85 -8
64 -101 248 -185 365 -34 49 -35 52 -32 130 1 52 -5 116 -18 182 -25 120 -26
162 -6 209 16 38 27 39 103 8z m-1247 -21 c12 -21 49 -70 81 -110 62 -76 88
-126 88 -168 0 -31 -8 -31 -50 -2 -26 17 -42 42 -71 115 -53 129 -79 202 -75
202 3 0 14 -17 27 -37z m672 9 c28 -2 47 -9 47 -16 0 -19 -62 -73 -67 -59 -2
6 -18 31 -35 54 -23 32 -26 40 -12 34 11 -5 40 -10 67 -13z m1901 -99 c-15
-37 -29 -69 -30 -71 -1 -2 -12 1 -23 8 -20 10 -20 12 -5 43 18 35 75 99 82 92
3 -2 -8 -35 -24 -72z m-1829 -19 c-29 -155 -10 -305 57 -438 38 -76 168 -211
297 -309 52 -40 118 -94 145 -120 l51 -48 -55 27 c-30 15 -71 37 -90 49 -57
35 -194 83 -260 91 -70 8 -65 3 -127 104 -25 41 -73 114 -105 162 -32 48 -72
113 -88 144 -60 112 -31 206 102 341 45 45 83 81 85 79 2 -2 -4 -38 -12 -82z
m-783 -75 c67 -72 142 -142 165 -156 37 -21 45 -34 73 -106 53 -138 82 -219
78 -221 -3 -3 -68 -21 -113 -32 -36 -9 -110 69 -213 225 -107 163 -139 232
-148 319 -6 57 5 102 26 102 4 0 64 -59 132 -131z m-150 -96 c36 -89 194 -328
262 -396 79 -80 66 -90 -60 -46 -54 18 -111 44 -127 58 -36 30 -122 207 -142
292 -21 89 -19 154 7 230 l23 64 6 -71 c4 -38 18 -97 31 -131z m2899 129 c83
-64 123 -114 116 -144 -10 -38 -63 -105 -106 -134 -34 -22 -54 -27 -138 -31
-79 -4 -102 -2 -118 11 -20 15 -20 16 10 40 17 14 46 33 65 42 51 24 100 63
100 79 0 8 -16 32 -35 54 -19 21 -35 42 -35 47 0 18 51 84 65 84 8 0 42 -21
76 -48z m-589 14 c99 -38 448 -138 462 -132 6 2 -8 12 -31 21 -30 13 -42 24
-46 44 -3 14 -3 28 0 31 3 3 28 -20 55 -50 l51 -54 -49 -23 c-27 -13 -62 -23
-79 -23 -37 0 -100 28 -142 64 -35 30 -90 52 -101 41 -4 -4 4 -15 18 -24 13
-9 47 -35 74 -59 28 -24 61 -45 73 -48 13 -4 23 -9 23 -13 0 -4 -23 -29 -50
-56 l-51 -50 -82 42 c-46 24 -129 77 -184 119 l-101 76 25 36 c14 21 29 47 34
60 11 28 22 28 101 -2z m352 -342 c28 -10 63 -14 87 -11 53 7 49 -6 -6 -21
-48 -13 -123 -16 -149 -6 -19 7 -21 25 -4 42 15 15 15 15 72 -4z m-2142 -251
c9 -10 23 -34 31 -53 25 -63 126 -217 171 -263 75 -78 164 -109 198 -69 8 9
28 41 44 70 51 97 82 92 139 -25 98 -203 152 -265 356 -410 64 -45 120 -88
125 -95 6 -7 16 -49 23 -94 16 -100 2 -186 -39 -243 -49 -67 -233 -183 -392
-248 -89 -36 -270 -93 -278 -88 -16 10 -92 147 -105 187 -20 67 -157 366 -257
558 -50 96 -106 218 -125 270 -19 52 -46 127 -60 165 -18 49 -27 97 -31 160
-4 87 -3 92 23 123 53 64 145 91 177 55z m-242 -112 c0 -17 -3 -32 -7 -34 -5
-3 -39 1 -78 9 -38 7 -106 14 -150 14 -52 0 -75 4 -65 10 18 10 158 27 243 29
57 1 57 1 57 -28z m902 -67 c37 -14 172 -79 300 -145 128 -66 266 -134 305
-151 40 -16 111 -54 157 -83 78 -48 96 -55 96 -34 0 4 -22 21 -50 39 -27 18
-50 33 -50 35 0 1 43 8 96 15 l96 12 65 -32 c122 -60 160 -115 182 -260 7 -41
16 -93 22 -115 13 -52 66 -189 91 -239 22 -42 13 -60 -27 -51 -11 3 -54 12
-95 20 -70 14 -234 58 -341 91 -62 20 -282 149 -376 221 -41 32 -93 71 -116
87 -23 16 -101 85 -174 153 -141 133 -215 230 -246 323 -10 30 -37 76 -60 104
l-41 49 49 -7 c27 -4 79 -19 117 -32z m1323 -141 l40 -27 -68 -13 c-37 -7 -99
-24 -138 -38 -204 -73 -417 -104 -494 -70 l-40 18 70 13 c39 7 131 31 205 54
126 39 320 86 365 89 11 0 38 -11 60 -26z m-2135 -190 c0 -10 3 -28 6 -39 5
-20 1 -22 -63 -27 -37 -3 -79 -8 -93 -12 l-25 -7 25 22 c34 28 122 80 138 80
6 0 12 -8 12 -17z m-1189 -470 c24 -55 40 -131 29 -138 -12 -7 -48 87 -53 138
-3 26 -3 47 0 47 2 0 13 -21 24 -47z m2590 -68 c53 -65 119 -182 119 -211 0
-10 -21 17 -46 61 -49 85 -108 153 -161 186 -33 20 -49 51 -38 69 9 15 70 -36
126 -105z m-2613 -55 c16 -41 40 -115 52 -164 24 -96 24 -134 0 -359 -10 -91
-10 -134 -1 -188 13 -80 58 -177 96 -207 14 -11 25 -22 25 -25 0 -13 -84 -17
-140 -6 -81 16 -119 43 -153 109 -27 52 -28 60 -23 145 4 73 15 121 57 245 46
138 52 169 61 285 9 122 7 165 -8 225 -12 44 3 17 34 -60z m1484 -121 c-154
-397 -283 -817 -337 -1099 -14 -74 -43 -218 -65 -320 -21 -102 -48 -268 -60
-370 -11 -102 -25 -214 -30 -250 -39 -258 -29 -600 25 -895 8 -44 28 -163 45
-265 17 -102 33 -197 36 -212 5 -21 2 -28 -8 -28 -23 0 -198 88 -203 102 -3 7
-17 105 -31 218 -23 174 -27 238 -25 420 4 440 76 1069 156 1355 8 28 26 106
40 175 14 69 43 181 65 250 21 69 62 197 90 286 56 178 102 306 213 589 41
105 78 199 82 210 6 17 10 15 27 -21 l21 -41 -41 -104z m-1280 -14 c69 -97
126 -213 142 -290 7 -36 12 -65 10 -65 -2 0 -19 28 -39 63 -20 34 -56 87 -79
117 -115 149 -145 202 -151 265 l-6 60 37 -40 c20 -22 59 -71 86 -110z m159
-10 c6 -33 38 -125 71 -204 54 -130 60 -152 60 -215 1 -103 -44 -226 -82 -226
-10 0 -13 193 -4 307 5 63 2 84 -29 180 -32 98 -45 186 -37 248 2 16 4 15 6
-5 3 -14 9 -52 15 -85z m-189 -127 c174 -245 203 -308 203 -440 l0 -87 -45
-46 c-25 -26 -60 -55 -78 -66 -32 -20 -33 -20 -64 -2 -68 40 -118 166 -118
298 0 38 7 125 17 192 17 120 13 203 -12 266 -16 38 7 11 97 -115z m2258 56
c24 -66 37 -144 23 -144 -5 0 -15 16 -22 35 -7 19 -28 56 -47 80 -39 52 -41
60 -16 74 31 19 40 12 62 -45z m-2530 -181 c-23 -65 -50 -154 -60 -198 l-19
-80 0 70 c-1 93 19 170 71 283 59 127 64 82 8 -75z m467 15 c-3 -8 -6 -5 -6 6
-1 11 2 17 5 13 3 -3 4 -12 1 -19z m21 -499 c4 -37 -56 -130 -103 -157 -58
-33 -147 -28 -201 13 l-38 29 82 12 c86 12 117 27 197 98 45 39 59 41 63 5z
m1995 -149 c-6 -24 15 -27 55 -6 15 8 44 17 64 21 34 6 36 5 31 -14 -5 -20 -3
-21 71 -15 73 7 76 6 76 -15 0 -19 5 -21 55 -21 30 0 55 -2 55 -5 0 -3 -7 -17
-16 -31 -10 -14 -13 -28 -8 -33 5 -4 51 -4 102 2 51 5 95 7 99 3 4 -3 -3 -26
-14 -50 -28 -57 -41 -136 -46 -268 -3 -85 -1 -108 10 -108 7 0 13 -2 13 -5 0
-18 -55 -109 -94 -157 -43 -53 -59 -98 -36 -98 17 0 11 -77 -11 -136 -12 -31
-37 -73 -55 -94 -41 -45 -44 -65 -9 -56 16 4 25 2 25 -6 0 -22 -98 -105 -170
-142 -88 -46 -130 -83 -180 -155 -21 -31 -54 -72 -74 -90 -23 -22 -34 -41 -31
-52 7 -20 -56 -45 -210 -84 -104 -27 -150 -55 -161 -102 -5 -17 -20 -27 -62
-40 -45 -14 -58 -23 -60 -40 -4 -28 -17 -29 -113 -3 -91 24 -139 26 -139 5 0
-18 0 -18 -42 -1 -19 8 -67 44 -107 80 -39 35 -92 72 -117 82 -61 23 -144 15
-215 -22 -30 -16 -57 -30 -61 -32 -5 -2 -8 6 -8 17 0 14 13 27 43 42 125 64
130 75 138 344 7 225 24 323 55 311 14 -5 72 75 120 165 14 26 19 30 22 17 2
-10 10 -18 17 -18 27 0 64 54 126 187 43 91 66 130 73 123 17 -17 25 -12 50
38 37 72 121 187 155 211 34 25 42 26 35 7 -9 -22 11 -27 37 -8 13 9 66 43
119 74 79 47 97 54 106 42 23 -29 53 -14 179 85 94 74 117 85 108 51z m-2043
-22 c0 -7 18 -74 39 -148 22 -74 54 -187 71 -250 49 -177 198 -629 317 -965
37 -103 39 -116 34 -190 -4 -57 -8 -74 -14 -60 -9 20 -174 500 -287 830 -32
94 -79 226 -104 294 -56 147 -140 455 -126 459 5 2 20 12 32 22 27 23 38 25
38 8z m-92 -334 c74 -42 91 -64 99 -135 3 -30 12 -66 19 -81 16 -31 19 -92 4
-83 -5 3 -10 14 -10 24 0 9 -20 50 -45 91 -24 41 -47 87 -50 103 -6 23 -35 40
-35 20 1 -10 47 -103 83 -168 l29 -50 -47 49 c-69 73 -101 126 -109 176 -4 25
-13 58 -21 74 -14 26 -14 28 3 21 9 -3 45 -22 80 -41z m-389 -64 c33 -22 68
-40 78 -40 36 -1 130 -47 196 -98 37 -29 74 -52 80 -52 7 0 46 -16 86 -35 41
-20 76 -34 78 -31 7 7 83 -67 83 -80 0 -14 -35 7 -108 65 -51 40 -147 74 -187
66 -16 -3 -47 -17 -67 -30 -21 -14 -49 -25 -64 -25 -14 0 -78 -16 -141 -35
-133 -40 -171 -43 -228 -15 -40 19 -143 121 -212 207 -18 22 -52 54 -77 70
l-45 30 46 7 c25 3 67 6 92 6 25 1 73 7 106 14 33 8 97 14 142 15 79 1 83 0
142 -39z m570 -255 c0 -5 -6 -1 -14 9 -8 11 -15 27 -15 35 1 17 29 -26 29 -44z
m-89 -31 c0 -1 -28 -12 -63 -23 -67 -22 -107 -46 -107 -62 0 -5 13 -3 28 5 48
25 136 56 158 56 18 0 14 -7 -25 -50 -49 -52 -101 -80 -151 -80 -17 0 -46 -7
-65 -14 -19 -8 -35 -13 -35 -10 0 13 52 92 72 111 42 39 108 70 149 70 21 0
39 -1 39 -3z"/>
<path d="M5705 5512 c-83 -44 -109 -62 -237 -164 -54 -42 -134 -99 -178 -125
-43 -26 -79 -54 -80 -62 0 -7 6 -11 15 -8 31 13 235 154 317 221 47 39 123 91
167 114 45 24 79 48 76 53 -8 11 1 15 -80 -29z"/>
<path d="M5801 5521 c-12 -16 -35 -60 -52 -97 -17 -38 -42 -84 -56 -102 -17
-22 -22 -37 -15 -44 14 -14 66 54 92 121 11 31 32 73 45 93 14 21 25 42 25 48
0 19 -19 10 -39 -19z"/>
<path d="M4226 5129 c3 -35 10 -82 13 -104 8 -43 -2 -225 -15 -264 -11 -38 15
-16 33 27 28 67 8 389 -25 400 -10 3 -12 -9 -6 -59z"/>
<path d="M4134 4293 c-24 -81 -31 -232 -10 -258 13 -18 15 -13 13 65 -1 53 6
112 17 158 13 50 15 77 8 84 -7 7 -16 -9 -28 -49z"/>
<path d="M4980 3023 c-31 -158 -36 -168 -148 -271 -57 -52 -105 -92 -107 -90
-2 2 3 35 11 73 19 88 35 277 25 288 -4 4 -11 -31 -15 -79 -7 -98 -41 -276
-58 -308 -6 -12 -27 -35 -47 -52 -120 -105 -227 -194 -233 -194 -3 0 7 44 23
98 51 166 85 382 61 382 -6 0 -13 -30 -17 -67 -16 -178 -85 -426 -131 -475
-55 -58 -264 -229 -264 -215 0 7 14 51 31 98 31 85 109 375 109 406 0 42 -21
-10 -40 -102 -34 -154 -126 -427 -152 -452 -33 -30 -259 -175 -265 -169 -2 2
12 42 32 88 44 100 113 312 120 371 8 61 -6 26 -50 -122 -34 -119 -101 -292
-131 -338 -8 -12 -59 -45 -114 -73 -55 -29 -100 -58 -100 -66 0 -9 37 6 108
42 l107 56 135 -21 c74 -11 155 -27 179 -35 50 -18 71 -20 71 -7 0 9 -235 68
-293 73 -15 2 -29 6 -30 9 -1 4 56 45 128 93 l129 86 81 0 c70 0 217 -20 268
-36 9 -3 17 -1 17 5 0 6 -17 15 -37 20 -39 10 -216 39 -267 43 -28 3 -26 6 50
65 43 34 99 81 124 103 75 69 118 84 224 76 50 -3 117 -12 149 -20 45 -11 57
-11 57 -1 0 18 -75 34 -195 42 -58 3 -104 9 -103 14 6 15 248 219 270 228 57
22 143 23 222 3 52 -14 76 -16 73 -9 -6 21 -107 48 -180 48 l-72 1 90 84 c50
46 99 86 110 88 11 3 59 10 108 17 113 15 117 34 5 25 l-83 -6 63 60 c76 73
78 103 3 36 -29 -26 -54 -46 -56 -44 -2 2 5 43 15 91 9 48 14 90 9 92 -4 3
-13 -21 -19 -52z"/>
<path d="M1815 2869 c-3 -4 14 -13 37 -20 24 -6 59 -19 78 -29 50 -25 168 -48
290 -55 58 -3 138 -13 179 -20 71 -14 93 -13 78 2 -13 13 -146 33 -288 42
-139 10 -192 21 -257 55 -40 21 -111 36 -117 25z"/>
</g>
</svg>
